<svg width="982" height="912" viewBox="0 0 982 912" fill="none" xmlns="http://www.w3.org/2000/svg">
<path d="M0.665226 117.925L48.8978 69.6928L360.437 0.181171L402.049 41.793L335.287 108.555L310.66 83.9273L113.72 128.291L111.456 130.554L283.424 302.521L234.342 351.603L0.665226 117.925ZM88.8759 307.976L154.506 242.346L176.997 222.12L379.686 19.4302L437.15 76.8941L147.472 366.572L88.8759 307.976Z" fill="#F5F5F5"/>
<path d="M331.545 563.375C307.295 538.936 292.335 512.001 286.666 482.569C281.091 453.232 284.854 422.577 297.955 390.604C311.151 358.726 333.637 326.992 365.415 295.403C397.004 263.814 428.597 241.563 460.192 228.65C491.882 215.832 522.254 212.352 551.308 218.21C580.552 224.068 607.298 239.121 631.548 263.371C655.798 287.621 670.805 314.321 676.569 343.47C682.426 372.713 678.946 403.18 666.128 434.869C653.404 466.465 631.201 498.01 599.517 529.505C567.739 561.282 535.864 583.722 503.891 596.823C472.013 610.018 441.405 613.829 412.068 608.254C382.73 602.679 355.889 587.719 331.545 563.375ZM382.323 512.596C398.93 529.203 420.533 534.115 447.131 527.333C473.729 520.55 503.671 500.421 536.958 466.945C558.929 444.974 574.958 424.416 585.044 405.271C595.225 386.221 599.889 368.913 599.035 353.349C598.275 337.879 592.376 324.624 581.336 313.584C564.823 297.072 543.362 292.112 516.953 298.707C490.543 305.301 460.837 325.006 427.833 357.821C405.579 380.074 389.22 400.868 378.756 420.202C368.481 439.536 363.723 457.032 364.483 472.69C365.337 488.254 371.284 501.557 382.323 512.596Z" fill="#F5F5F5"/>
<path d="M545.193 662.453L593.425 614.22L904.965 544.709L946.576 586.32L879.815 653.082L855.187 628.455L658.247 672.818L655.984 675.082L827.951 847.049L778.87 896.13L545.193 662.453ZM633.403 852.503L699.033 786.873L721.524 766.647L924.214 563.957L981.678 621.421L691.999 911.099L633.403 852.503Z" fill="#F5F5F5"/>
</svg>
