<svg width="25" height="25" viewBox="0 0 25 25" fill="none" xmlns="http://www.w3.org/2000/svg">
<path d="M11.458 9.37492H13.5413V7.29159H11.458M12.4997 20.8333C7.90593 20.8333 4.16634 17.0937 4.16634 12.4999C4.16634 7.90617 7.90593 4.16659 12.4997 4.16659C17.0934 4.16659 20.833 7.90617 20.833 12.4999C20.833 17.0937 17.0934 20.8333 12.4997 20.8333ZM12.4997 2.08325C11.1317 2.08325 9.7772 2.35269 8.51339 2.87617C7.24958 3.39966 6.10126 4.16695 5.13398 5.13422C3.18047 7.08773 2.08301 9.73725 2.08301 12.4999C2.08301 15.2626 3.18047 17.9121 5.13398 19.8656C6.10126 20.8329 7.24958 21.6002 8.51339 22.1237C9.7772 22.6472 11.1317 22.9166 12.4997 22.9166C15.2623 22.9166 17.9119 21.8191 19.8654 19.8656C21.8189 17.9121 22.9163 15.2626 22.9163 12.4999C22.9163 11.132 22.6469 9.77744 22.1234 8.51363C21.5999 7.24982 20.8326 6.1015 19.8654 5.13422C18.8981 4.16695 17.7498 3.39966 16.486 2.87617C15.2222 2.35269 13.8676 2.08325 12.4997 2.08325ZM11.458 17.7083H13.5413V11.4583H11.458V17.7083Z" fill="#1600DB"/>
</svg>
