<svg width="10" height="10" viewBox="0 0 10 10" fill="none" xmlns="http://www.w3.org/2000/svg">
<path d="M7.79584 3.42086C7.7571 3.3818 7.71102 3.35081 7.66024 3.32965C7.60947 3.3085 7.55501 3.29761 7.5 3.29761C7.445 3.29761 7.39054 3.3085 7.33976 3.32965C7.28899 3.35081 7.24291 3.3818 7.20417 3.42086L5.29584 5.32919C5.2571 5.36824 5.21102 5.39924 5.16024 5.42039C5.10947 5.44155 5.05501 5.45244 5 5.45244C4.945 5.45244 4.89054 5.44155 4.83976 5.42039C4.78899 5.39924 4.74291 5.36824 4.70417 5.32919L2.79584 3.42086C2.7571 3.3818 2.71102 3.35081 2.66025 3.32965C2.60947 3.3085 2.55501 3.29761 2.5 3.29761C2.445 3.29761 2.39054 3.3085 2.33976 3.32965C2.28899 3.35081 2.24291 3.3818 2.20417 3.42086C2.12657 3.49892 2.08301 3.60453 2.08301 3.71461C2.08301 3.82468 2.12657 3.93029 2.20417 4.00836L4.11667 5.92086C4.35105 6.15494 4.66875 6.28642 5 6.28642C5.33126 6.28642 5.64896 6.15494 5.88334 5.92086L7.79584 4.00836C7.87344 3.93029 7.917 3.82468 7.917 3.71461C7.917 3.60453 7.87344 3.49892 7.79584 3.42086Z" fill="#646464"/>
</svg>
