<svg width="96" height="141" viewBox="0 0 96 141" fill="none" xmlns="http://www.w3.org/2000/svg">
<path d="M20.3532 103.309L34.197 92.1389L14.9888 76.6428V99.5911L19.9736 103.616L20.3532 103.309Z" fill="#111111"/>
<path d="M80.7695 57.4357L37.7534 92.14L36.8658 92.8601L35.9782 93.5802L21.7549 105.052H50.196L51.0836 104.337L51.9767 103.617L80.7695 80.3784V57.4357Z" fill="#111111"/>
<path d="M20.3532 74.5956L34.197 63.4257L14.9888 47.9296V70.8779L19.9792 74.897L20.3532 74.5956Z" fill="#111111"/>
<path d="M51.0836 75.6146L51.9712 74.8945L80.7695 51.6615V28.7194L37.7534 63.4231L36.8658 64.1432L35.9726 64.8578L21.7549 76.3291H50.196L51.0836 75.6146Z" fill="#111111"/>
<path d="M20.3532 45.8736L34.197 34.7092L14.9888 19.2131V42.1559L19.9736 46.1806L20.3532 45.8736Z" fill="#111111"/>
<path d="M50.196 47.6159L51.0836 46.9014L51.9767 46.1813L80.7695 22.9483V0L37.7534 34.7043L36.8658 35.4244L35.9726 36.1445L21.7549 47.6159H50.196Z" fill="#111111"/>
<path d="M1.60433 130.008C2.10561 130.499 2.70344 130.879 3.39731 131.147C4.09117 131.415 4.85314 131.55 5.68377 131.55C6.47364 131.55 7.21833 131.398 7.91721 131.094C8.6161 130.79 9.20893 130.304 9.69513 129.635L8.11479 128.511C7.76032 128.967 7.37795 129.299 6.96766 129.506C6.55737 129.714 6.13427 129.818 5.69886 129.818C5.14176 129.818 4.63769 129.717 4.18721 129.514C3.73617 129.311 3.34875 129.033 3.02498 128.678C2.70066 128.324 2.45003 127.904 2.27307 127.417C2.09556 126.931 2.00681 126.399 2.00681 125.822C2.00681 125.285 2.09556 124.784 2.27307 124.318C2.45003 123.852 2.70066 123.444 3.02498 123.095C3.3493 122.745 3.73672 122.472 4.18721 122.274C4.63769 122.076 5.14176 121.978 5.69886 121.978C6.07342 121.978 6.44576 122.049 6.81529 122.19C7.18483 122.332 7.56777 122.616 7.96243 123.041L9.45119 121.947C8.91418 121.329 8.33419 120.891 7.71122 120.633C7.08825 120.374 6.41223 120.245 5.68264 120.245C4.85202 120.245 4.08952 120.38 3.39622 120.648C2.70235 120.916 2.10448 121.299 1.6032 121.795C1.10193 122.291 0.708949 122.891 0.425375 123.595C0.1418 124.299 0 125.082 0 125.943C0 126.783 0.1418 127.548 0.425375 128.237C0.710065 128.927 1.10249 129.516 1.60433 130.008Z" fill="#111111"/>
<path d="M15.0523 130.009C15.5536 130.5 16.1514 130.88 16.8453 131.149C17.5392 131.417 18.3011 131.551 19.1318 131.551C19.9724 131.541 20.7422 131.396 21.4411 131.118C22.14 130.839 22.7429 130.452 23.2492 129.956C23.7561 129.459 24.1507 128.867 24.4343 128.178C24.7179 127.489 24.8597 126.724 24.8597 125.883C24.8597 125.023 24.7179 124.242 24.4343 123.543C24.1507 122.845 23.7555 122.247 23.2492 121.75C22.7429 121.254 22.14 120.877 21.4411 120.618C20.7422 120.36 19.9724 120.236 19.1318 120.246C18.3011 120.246 17.5386 120.381 16.8453 120.649C16.1514 120.917 15.5542 121.299 15.0523 121.796C14.5511 122.292 14.1581 122.892 13.875 123.596C13.5915 124.3 13.4497 125.082 13.4497 125.943C13.4497 126.784 13.5915 127.549 13.875 128.237C14.1581 128.928 14.5505 129.517 15.0523 130.009ZM15.7205 124.319C15.8975 123.853 16.1481 123.445 16.4724 123.096C16.7968 122.746 17.1841 122.473 17.6346 122.275C18.0851 122.078 18.5892 121.979 19.1463 121.979C19.7034 121.979 20.2097 122.078 20.6658 122.275C21.1213 122.473 21.5114 122.746 21.8358 123.096C22.1601 123.445 22.4107 123.853 22.5883 124.319C22.7652 124.785 22.854 125.286 22.854 125.823C22.854 126.4 22.7652 126.932 22.5883 127.419C22.4107 127.905 22.1601 128.325 21.8358 128.68C21.5114 129.034 21.1218 129.313 20.6658 129.515C20.2103 129.718 19.7034 129.819 19.1463 129.819C18.5892 129.819 18.0851 129.718 17.6346 129.515C17.1836 129.313 16.7962 129.034 16.4724 128.68C16.1481 128.325 15.8975 127.905 15.7205 127.419C15.543 126.932 15.4543 126.4 15.4543 125.823C15.4548 125.286 15.5436 124.785 15.7205 124.319Z" fill="#111111"/>
<path d="M41.345 131.279V120.521H38.4585L35.5563 128.058L32.6843 120.521H29.7671V131.279H31.5908V122.344H31.6209L34.8876 131.279H36.2251L39.4918 122.344H39.5219V131.279H41.345Z" fill="#111111"/>
<path d="M48.7419 126.827H50.1095C50.6766 126.827 51.2209 126.787 51.7428 126.705C52.2642 126.624 52.7231 126.469 53.1177 126.242C53.5124 126.014 53.8266 125.692 54.06 125.277C54.2928 124.862 54.4094 124.315 54.4094 123.636C54.4094 123.039 54.3006 122.54 54.0829 122.139C53.8646 121.739 53.5738 121.42 53.2093 121.182C52.8448 120.944 52.4216 120.775 51.9404 120.673C51.4593 120.572 50.9602 120.521 50.4438 120.521H46.8271V131.279H48.7419V126.827ZM48.7419 122.162H50.1095C50.3629 122.162 50.6264 122.177 50.8999 122.208C51.1734 122.239 51.4213 122.307 51.6446 122.413C51.8673 122.52 52.0499 122.671 52.1916 122.869C52.3334 123.067 52.4043 123.332 52.4043 123.667C52.4043 124.031 52.3256 124.315 52.1687 124.517C52.0119 124.72 51.8093 124.872 51.5609 124.973C51.3124 125.074 51.0417 125.135 50.7481 125.155C50.4539 125.176 50.1703 125.186 49.8973 125.186H48.7424L48.7419 122.162Z" fill="#111111"/>
<path d="M63.164 120.521H61.5077L56.8276 131.279H58.9701L59.9425 128.817H64.6069L65.6095 131.279H67.7977L63.164 120.521ZM60.5961 127.176L62.2825 122.8L63.9388 127.176H60.5961Z" fill="#111111"/>
<path d="M81.7316 131.279V120.521H79.8169V128.513H79.7867L74.5752 120.521H72.0376V131.279H73.9523V123.028H73.9824L79.3005 131.279H81.7316Z" fill="#111111"/>
<path d="M89.7983 131.279H91.713V126.675L95.7545 120.521H93.4753L90.8014 124.806L88.1572 120.521H85.7568L89.7983 126.675V131.279Z" fill="#111111"/>
<path d="M1.36601 135.988H0.0151367V135.321H3.4688V135.988H2.11792V140.257H1.36656L1.36601 135.988Z" fill="#111111"/>
<path d="M10.8637 139.154H8.99146L8.61243 140.257H7.82031L9.61499 135.321H10.2413L12.036 140.257H11.2472L10.8637 139.154ZM10.6505 138.49L9.93598 136.333H9.92313L9.2086 138.49H10.6505Z" fill="#111111"/>
<path d="M18.8937 137.537H20.6476V138.543C20.6387 139.037 20.4696 139.452 20.1396 139.785C19.8081 140.118 19.3905 140.288 18.887 140.297C18.499 140.288 18.1747 140.193 17.9152 140.012C17.6511 139.838 17.4591 139.637 17.3396 139.409C17.3034 139.335 17.271 139.263 17.2414 139.196C17.214 139.126 17.1917 139.038 17.1738 138.932C17.1398 138.733 17.123 138.352 17.123 137.788C17.123 137.214 17.1398 136.831 17.1738 136.637C17.2101 136.442 17.2654 136.285 17.3396 136.166C17.4591 135.938 17.6511 135.735 17.9152 135.556C18.1747 135.376 18.4985 135.283 18.887 135.279C19.3632 135.283 19.7517 135.425 20.0514 135.702C20.3518 135.982 20.541 136.328 20.6203 136.741H19.8282C19.7673 136.543 19.6568 136.374 19.4966 136.233C19.3297 136.101 19.1265 136.031 18.887 136.027C18.7112 136.031 18.5599 136.067 18.4332 136.132C18.3048 136.199 18.201 136.284 18.1217 136.386C18.0246 136.492 17.9604 136.629 17.9285 136.796C17.8923 136.971 17.8744 137.302 17.8744 137.788C17.8744 138.273 17.8923 138.601 17.9285 138.773C17.9604 138.944 18.0246 139.083 18.1217 139.189C18.201 139.291 18.3048 139.373 18.4332 139.437C18.5593 139.511 18.7106 139.548 18.887 139.548C19.1784 139.548 19.4184 139.449 19.6082 139.25C19.798 139.06 19.8946 138.811 19.8996 138.502V138.245H18.8943L18.8937 137.537Z" fill="#111111"/>
<path d="M28.0093 135.321H28.7573V139.55H31.161V140.258H28.0093V135.321Z" fill="#111111"/>
<path d="M36.7192 135.321H37.4673V140.257H36.7192V135.321Z" fill="#111111"/>
<path d="M43.3609 135.321H44.0654L46.2999 138.829H46.3133V135.321H47.0613V140.257H46.3535L44.1223 136.749H44.1089V140.257H43.3604L43.3609 135.321Z" fill="#111111"/>
<path d="M52.959 135.321H56.1112V136.029H53.7076V137.437H55.7595V138.101H53.7076V139.55H56.1112V140.258H52.959V135.321Z" fill="#111111"/>
<path d="M66.548 138.101H64.5948V140.257H63.8462V135.321H64.5948V137.437H66.548V135.321H67.296V140.257H66.548V138.101Z" fill="#111111"/>
<path d="M74.667 135.321H77.8193V136.029H75.4156V137.437H77.467V138.101H75.4156V139.55H77.8193V140.258H74.667V135.321Z" fill="#111111"/>
<path d="M83.374 135.321H85.3004C85.7113 135.321 86.0462 135.429 86.3058 135.646C86.6195 135.892 86.783 136.242 86.7964 136.698C86.7875 137.369 86.4693 137.825 85.8419 138.066L86.9862 140.257H86.0959L85.0771 138.147H84.1226V140.257H83.3746L83.374 135.321ZM84.1226 137.484H85.2535C85.5332 137.48 85.7431 137.398 85.8832 137.241C86.0211 137.094 86.0897 136.913 86.0897 136.699C86.0853 136.442 86.0027 136.255 85.8425 136.14C85.7157 136.039 85.5332 135.988 85.2937 135.988H84.1226V137.484Z" fill="#111111"/>
<path d="M92.457 135.321H95.6093V136.029H93.2056V137.437H95.257V138.101H93.2056V139.55H95.6093V140.258H92.457V135.321Z" fill="#111111"/>
</svg>
