<svg width="119" height="157" viewBox="0 0 119 157" fill="none" xmlns="http://www.w3.org/2000/svg">
<path d="M2.43552 156.059H3.53733V149.791H5.21202V148.754H0.755859V149.791H2.43552V156.059Z" fill="#111111"/>
<path d="M10.9955 156.058L11.8093 154.284H14.9364L15.7025 156.058H16.9084L13.4221 148.295L9.80762 156.058H10.9955ZM13.4035 150.765L14.4867 153.248H12.2683L13.4035 150.765Z" fill="#111111"/>
<path d="M25.8046 149.654C26.6655 149.654 27.3957 150.052 27.9946 150.851L28.7799 150.099C28.3228 149.575 27.8577 149.197 27.3845 148.964C26.8891 148.73 26.3564 148.614 25.7854 148.614C24.7226 148.614 23.8208 148.984 23.0795 149.725C22.3388 150.464 21.9678 151.362 21.9678 152.422C21.9678 153.459 22.3319 154.349 23.0609 155.09C23.7893 155.828 24.6644 156.197 25.6863 156.197C26.733 156.197 27.5957 155.815 28.2739 155.052C28.5737 154.711 28.7867 154.345 28.9125 153.954C29.0419 153.532 29.1063 153.046 29.1063 152.497V152.256H26.0883V153.292H27.9097C27.859 153.806 27.618 154.248 27.1857 154.617C26.7534 154.983 26.2666 155.166 25.7241 155.166C25.0868 155.166 24.4959 154.921 23.9503 154.432C23.3669 153.906 23.0752 153.235 23.0752 152.422C23.0752 151.634 23.3365 150.978 23.8605 150.454C24.3832 149.92 25.0317 149.654 25.8046 149.654Z" fill="#111111"/>
<path d="M38.6895 148.754V156.059H41.9391V155.023H39.7919V148.754H38.6895Z" fill="#111111"/>
<path d="M48.9306 148.754H47.8281V156.058H48.9306V148.754Z" fill="#111111"/>
<path d="M55.5322 156.06H56.6347V150.946L61.9616 156.504V148.755H60.8592V153.831L55.5322 148.258V156.06Z" fill="#111111"/>
<path d="M68.5537 156.059H72.5844V155.023H69.6561V152.581H72.4995V151.546H69.6561V149.791H72.5844V148.754H68.5537V156.059Z" fill="#111111"/>
<path d="M86.271 151.612H83.121V148.754H82.0186V156.059H83.121V152.648H86.271V156.059H87.3734V148.754H86.271V151.612Z" fill="#111111"/>
<path d="M97.9985 149.791V148.754H93.9678V156.059H97.9985V155.023H95.0702V152.581H97.9136V151.546H95.0702V149.791H97.9985Z" fill="#111111"/>
<path d="M105.392 153.069H105.591L107.677 156.058H109.025L106.764 152.945C107.249 152.841 107.64 152.603 107.937 152.231C108.233 151.859 108.381 151.414 108.381 150.897C108.381 150.235 108.145 149.702 107.672 149.298C107.243 148.936 106.546 148.754 105.581 148.754H104.29V156.058H105.392L105.392 153.069ZM105.392 149.791H105.785C106.8 149.791 107.308 150.165 107.308 150.912C107.308 151.709 106.786 152.108 105.742 152.108H105.392L105.392 149.791Z" fill="#111111"/>
<path d="M119 149.791V148.754H114.97V156.059H119V155.023H116.072V152.581H118.916V151.546H116.072V149.791H119Z" fill="#111111"/>
<path d="M74.2331 0.842773L24.5186 50.5635V71.6955L74.2331 21.9809V0.842773Z" fill="#111111"/>
<path d="M74.2331 64.1077V46.6918L45.5204 75.4045V75.4107L24.5186 96.4063V113.828L45.5204 92.8265L74.2331 64.1077Z" fill="#111111"/>
<path d="M45.5186 53.6599V71.6889V71.6951L74.2312 42.9886L95.2393 21.9805V3.93909L74.2312 24.9472L45.5186 53.6599Z" fill="#111111"/>
<path d="M95.2393 46.0718L74.2312 67.0805L45.5186 95.7864V113.828L95.2393 64.107V46.0718Z" fill="#111111"/>
<path d="M2.75126 139.437C3.3706 140.044 4.10762 140.512 4.96479 140.844C5.82134 141.175 6.76212 141.34 7.78775 141.34C8.76321 141.34 9.68231 141.153 10.5451 140.777C11.4078 140.402 12.1392 139.802 12.7394 138.977L10.7885 137.589C10.3506 138.152 9.87865 138.561 9.37202 138.818C8.8654 139.074 8.3433 139.202 7.80571 139.202C7.11762 139.202 6.4958 139.077 5.93901 138.827C5.38284 138.577 4.90409 138.233 4.50462 137.795C4.1039 137.358 3.79485 136.839 3.57622 136.238C3.35697 135.638 3.24797 134.982 3.24797 134.269C3.24797 133.606 3.35759 132.987 3.57622 132.412C3.79485 131.837 4.10452 131.334 4.50462 130.902C4.90471 130.47 5.38284 130.133 5.93901 129.889C6.4958 129.645 7.11762 129.523 7.80571 129.523C8.26836 129.523 8.72791 129.611 9.18436 129.786C9.64082 129.961 10.1128 130.311 10.6008 130.836L12.439 129.486C11.7763 128.723 11.0604 128.182 10.2917 127.863C9.52252 127.544 8.68765 127.385 7.78775 127.385C6.76212 127.385 5.82134 127.551 4.96479 127.882C4.10824 128.213 3.3706 128.686 2.75126 129.299C2.13254 129.911 1.64759 130.652 1.29766 131.521C0.947734 132.391 0.772461 133.356 0.772461 134.419C0.772461 135.457 0.947734 136.401 1.29766 137.252C1.64759 138.102 2.13192 138.83 2.75126 139.437Z" fill="#111111"/>
<path d="M19.3518 139.437C19.9712 140.044 20.7082 140.513 21.5654 140.844C22.4219 141.176 23.3627 141.341 24.3883 141.341C25.4257 141.329 26.3764 141.15 27.2398 140.807C28.1025 140.463 28.8464 139.985 29.4719 139.372C30.0968 138.759 30.5848 138.028 30.9348 137.177C31.2847 136.326 31.46 135.382 31.46 134.344C31.46 133.282 31.2847 132.319 30.9348 131.456C30.5842 130.593 30.0968 129.855 29.4719 129.242C28.8464 128.63 28.1025 128.164 27.2398 127.845C26.3764 127.526 25.4264 127.373 24.3883 127.385C23.3627 127.385 22.4219 127.551 21.5654 127.883C20.7088 128.214 19.9712 128.687 19.3518 129.299C18.7331 129.912 18.2482 130.653 17.8982 131.522C17.5483 132.392 17.373 133.357 17.373 134.42C17.373 135.458 17.5483 136.402 17.8982 137.252C18.2482 138.103 18.7331 138.831 19.3518 139.437ZM20.1774 132.413C20.3961 131.838 20.7057 131.334 21.1058 130.903C21.5059 130.471 21.984 130.133 22.5408 129.89C23.097 129.646 23.7188 129.524 24.4069 129.524C25.0944 129.524 25.7199 129.646 26.2829 129.89C26.8453 130.134 27.3271 130.472 27.7272 130.903C28.1273 131.334 28.437 131.838 28.6562 132.413C28.8748 132.988 28.9845 133.607 28.9845 134.269C28.9845 134.982 28.8748 135.639 28.6562 136.239C28.437 136.839 28.1273 137.358 27.7272 137.796C27.3271 138.234 26.8459 138.578 26.2829 138.828C25.7199 139.078 25.0944 139.203 24.4069 139.203C23.7188 139.203 23.097 139.078 22.5408 138.828C21.984 138.578 21.5059 138.234 21.1058 137.796C20.7057 137.359 20.3961 136.84 20.1774 136.239C19.9582 135.639 19.8492 134.982 19.8492 134.269C19.8486 133.607 19.9582 132.988 20.1774 132.413Z" fill="#111111"/>
<path d="M41.122 127.723H37.5205V141.003H39.7712V129.974H39.8084L43.8415 141.003H45.4927L49.5252 129.974H49.563V141.003H51.8137V127.723H48.2494L44.6671 137.027L41.122 127.723Z" fill="#111111"/>
<path d="M60.9451 135.508H62.6334C63.3333 135.508 64.0059 135.458 64.6494 135.358C65.2935 135.258 65.8596 135.067 66.347 134.786C66.8344 134.504 67.2221 134.107 67.5101 133.595C67.7975 133.082 67.9412 132.407 67.9412 131.569C67.9412 130.831 67.8068 130.215 67.538 129.721C67.2686 129.227 66.9093 128.833 66.4591 128.539C66.0088 128.246 65.4867 128.036 64.8928 127.911C64.2988 127.786 63.6826 127.723 63.0453 127.723H58.5811V141.004H60.9445V135.508H60.9451ZM60.9451 129.749H62.6334C62.9456 129.749 63.2713 129.768 63.6089 129.805C63.9464 129.843 64.253 129.927 64.528 130.059C64.803 130.19 65.0284 130.378 65.2031 130.621C65.3777 130.864 65.4657 131.193 65.4657 131.606C65.4657 132.056 65.3684 132.406 65.1752 132.656C64.9813 132.906 64.7311 133.094 64.4245 133.219C64.118 133.344 63.7835 133.419 63.4212 133.444C63.0583 133.469 62.7084 133.482 62.3708 133.482H60.9451V129.749Z" fill="#111111"/>
<path d="M74.7713 137.965H80.5299L81.768 141.004H84.4689L78.7481 127.723H76.7036L70.9258 141.004H73.571L74.7713 137.965ZM77.6599 130.537L79.7043 135.939H75.5777L77.6599 130.537Z" fill="#111111"/>
<path d="M89.7031 127.723V141.003H92.0665V130.818H92.1043L98.6693 141.003H101.671V127.723H99.3073V137.589H99.2695L92.8358 127.723H89.7031Z" fill="#111111"/>
<path d="M111.629 141.003H113.991V135.32L118.982 127.723H116.168L112.866 133.013L109.602 127.723H106.639L111.629 135.32V141.003Z" fill="#111111"/>
</svg>
