<svg width="114" height="130" viewBox="0 0 114 130" fill="none" xmlns="http://www.w3.org/2000/svg">
<path d="M60.8792 31.5306C60.4437 31.5887 60.0257 31.6526 59.5849 31.7339C59.434 31.7629 59.2772 31.7919 59.1262 31.8268C59.1262 31.8326 59.1262 31.8326 59.1262 31.8326C58.8765 36.4487 56.9952 40.9836 53.4765 44.4966C49.9751 47.9979 45.4635 49.8792 40.8705 50.1405C40.8647 50.1405 40.8647 50.1405 40.8647 50.1405C40.8299 50.3031 40.8008 50.4599 40.7718 50.6109C40.6847 51.0696 40.6266 51.4818 40.5744 51.8709V51.9057C40.5105 52.3702 40.4699 52.7767 40.4466 53.1425V53.1773C40.4002 53.8161 40.377 54.3851 40.377 54.9193C40.377 55.0122 40.377 55.1051 40.3828 55.198V55.32C40.3828 55.4535 40.3886 55.5812 40.3944 55.7148V55.7554C40.4002 55.9006 40.4002 56.0283 40.4118 56.1561L40.4176 56.2025V56.249C40.4292 56.4116 40.435 56.5742 40.4524 56.7309L40.4583 56.7774V56.818C40.4699 56.969 40.4815 57.1142 40.4989 57.2709C40.5105 57.4161 40.5221 57.5438 40.5395 57.6716L40.5453 57.7239L40.5512 57.7761L40.557 57.8051C40.5691 57.9097 40.5802 58.0142 40.5976 58.1245L40.6324 58.3452V58.3742C40.6847 58.7342 40.7428 59.1 40.8183 59.46L40.8241 59.4832L40.8299 59.5006C40.9053 59.9303 41.0041 60.36 41.1144 60.7781C41.1725 61.022 41.2421 61.2658 41.3118 61.5097H41.3176C48.6745 61.1439 55.921 58.1535 61.5301 52.5444C67.1567 46.9179 70.147 39.6307 70.4954 32.2448C70.2631 32.1751 70.0309 32.1113 69.7928 32.0532C69.3457 31.9429 68.8986 31.8442 68.4457 31.7571C67.9928 31.67 67.5689 31.6003 67.1683 31.548C66.0999 31.4029 65.0315 31.3274 63.9573 31.3274C63.336 31.3274 62.7321 31.3506 62.1688 31.3913C61.6457 31.4383 61.245 31.4784 60.8792 31.5306Z" fill="#111111"/>
<path d="M66.6855 15.8404C68.4855 19.092 69.6526 22.5934 70.1868 26.1818C70.2623 26.6928 70.3261 27.2038 70.3726 27.7205C70.4248 28.2257 70.4655 28.7309 70.4887 29.236C70.9823 29.358 71.4758 29.4973 71.9636 29.6541C72.4571 29.8051 72.9449 29.9793 73.4268 30.1651C73.4326 30.1651 73.4384 30.1709 73.4384 30.1709C73.6591 30.2522 73.8797 30.3393 74.1004 30.4322C77.2766 31.7445 80.1914 33.6838 82.694 36.1865C87.6993 41.1917 90.4574 47.846 90.4574 54.9241C90.4574 61.9965 87.6993 68.6565 82.694 73.656C77.6888 78.6612 71.0345 81.4193 63.9564 81.4193C56.8782 81.4193 50.2239 78.6612 45.2245 73.656C42.5245 70.9559 40.5271 67.8204 39.2438 64.4642C39.238 64.4584 39.238 64.4526 39.238 64.4468C39.0522 63.9649 38.878 63.4829 38.727 62.9894C38.7212 62.9894 38.7212 62.9894 38.7212 62.9836C38.5703 62.4958 38.4309 62.0081 38.3032 61.5145C38.0245 61.5029 37.7457 61.4855 37.467 61.4623C37.4496 61.4623 37.4322 61.4623 37.4148 61.4565C37.2696 61.4506 37.1302 61.439 36.9909 61.4216C36.9212 61.4158 36.8573 61.41 36.7877 61.4042C36.7354 61.3984 36.6773 61.3926 36.6251 61.3868C36.4218 61.3694 36.2244 61.3461 36.0212 61.3229C35.7657 61.2939 35.5102 61.259 35.2547 61.2184C35.098 61.1952 34.9412 61.1719 34.7786 61.1429C34.6102 61.1197 34.4476 61.0906 34.2792 61.0558C34.1109 61.0268 33.9483 60.9977 33.7857 60.9629C33.2399 60.8584 32.6941 60.7364 32.1541 60.5971C32.0263 60.5681 31.8986 60.5332 31.765 60.4984C31.1031 60.3242 30.4469 60.1268 29.7966 59.9003C29.4482 59.7842 29.1056 59.6622 28.763 59.5287C28.4495 59.4126 28.1301 59.2848 27.8166 59.1513C27.4566 59.0003 27.0966 58.8435 26.7424 58.6751C26.5798 58.6054 26.4172 58.5242 26.2604 58.4429C26.185 58.4138 26.1153 58.379 26.0398 58.3325C25.9004 58.2687 25.7617 58.199 25.6217 58.1235C25.5985 58.1177 25.5753 58.1061 25.552 58.0887C25.3372 57.9841 25.1223 57.868 24.9075 57.7461C24.8204 57.6996 24.7333 57.6532 24.6462 57.6009C24.3965 57.4616 24.1468 57.3164 23.903 57.1654C23.7868 57.1016 23.6765 57.0319 23.5662 56.9622C23.5197 56.939 23.4675 56.9041 23.421 56.8693C22.9159 56.5615 22.4223 56.2306 21.9346 55.8822C21.9462 56.4861 21.9752 57.0899 22.0159 57.6938C22.01 57.6996 22.01 57.7054 22.0159 57.717C22.0507 58.3209 22.103 58.919 22.1726 59.5171V59.5229C22.1726 59.5577 22.1726 59.5809 22.1784 59.6158C23.2236 69.0688 27.4101 77.825 34.2328 84.6477C42.1761 92.5852 52.7324 96.9575 63.9564 96.9575C75.1862 96.9575 85.7425 92.5852 93.68 84.6477C101.623 76.7044 105.996 66.1539 105.996 54.9241C105.996 49.3092 104.904 43.8627 102.819 38.8284C100.729 33.7942 97.6516 29.1664 93.68 25.2005C86.8399 18.3546 78.0488 14.1565 68.5668 13.1345C68.5319 13.1287 68.4913 13.1229 68.4564 13.1229C67.8584 13.0591 67.2603 13.0068 66.6622 12.972H66.6332C66.0351 12.9313 65.4312 12.9081 64.8274 12.8965C65.1758 13.3784 65.5009 13.872 65.8145 14.3713C66.1222 14.8539 66.4125 15.3468 66.6855 15.8404Z" fill="#111111"/>
<path d="M26.0346 44.4963C26.0868 44.5486 26.1333 44.595 26.1856 44.6415C26.4933 44.9434 26.8069 45.2338 27.132 45.5067C27.283 45.6402 27.4398 45.768 27.5965 45.8957C27.7765 46.0409 27.9623 46.186 28.154 46.3254C28.3282 46.4589 28.5023 46.5867 28.6824 46.7086C28.8856 46.8538 29.0946 46.9931 29.3037 47.1267C29.3501 47.1557 29.4024 47.1906 29.4488 47.2196C29.5708 47.2951 29.6927 47.3706 29.8146 47.4402C29.8379 47.4577 29.8611 47.4693 29.8843 47.4809C30.0353 47.5738 30.1921 47.6609 30.343 47.7422C30.674 47.928 31.005 48.1022 31.3417 48.259C31.3824 48.2822 31.4288 48.3054 31.4753 48.3228C31.5566 48.3635 31.6437 48.4041 31.7308 48.439C31.8992 48.5203 32.0734 48.5957 32.2476 48.6654C32.4218 48.7409 32.596 48.8106 32.7701 48.8745C32.9269 48.9383 33.0895 48.9964 33.2463 49.0545C33.8444 49.2635 34.4424 49.4435 35.0521 49.5945C35.2495 49.6467 35.4528 49.6932 35.6502 49.7338C35.7779 49.7687 35.9057 49.7919 36.0392 49.8151C36.1786 49.8441 36.3179 49.8674 36.4573 49.8906C36.4631 49.8964 36.4689 49.8964 36.4747 49.8964C36.9508 49.9777 37.4328 50.0416 37.9147 50.088C38.0018 49.6119 38.1063 49.1299 38.2225 48.6596C38.2225 48.6538 38.2225 48.6538 38.2225 48.6538C38.3328 48.1777 38.4605 47.7073 38.6057 47.237C38.6057 47.2312 38.6057 47.2312 38.6057 47.2254C39.8309 43.1841 42.0315 39.375 45.2251 36.1872C48.3374 33.0749 52.1001 30.8278 56.1995 29.5794C56.2053 29.5794 56.2053 29.5736 56.2111 29.5736C56.6814 29.4342 57.1517 29.3007 57.6279 29.1903H57.6337C58.104 29.0684 58.5802 28.9639 59.0621 28.8768C59.0156 28.3948 58.9518 27.9129 58.8647 27.4368C58.7834 26.9606 58.6847 26.4845 58.5627 26.0142C57.7498 22.7741 56.095 19.7083 53.5865 17.1708C53.5517 17.1302 53.5169 17.0953 53.4762 17.0547C53.1104 16.6889 52.7388 16.3405 52.3498 16.0153C51.8968 15.6205 51.4323 15.2605 50.9562 14.9237C50.393 15.1095 49.8297 15.3011 49.2723 15.5102C49.2607 15.516 49.2491 15.516 49.2374 15.5276C48.7032 15.7192 48.1807 15.9282 47.6581 16.1489C47.6058 16.1721 47.5594 16.1895 47.5129 16.2128H47.5071C42.6122 18.2973 38.1121 21.3225 34.2334 25.2013C30.3256 29.1032 27.2888 33.6381 25.21 38.5795C25.1868 38.6201 25.1694 38.6666 25.152 38.713C24.9313 39.2356 24.7223 39.764 24.5307 40.2982C24.5249 40.3098 24.5191 40.3214 24.5191 40.3331C24.31 40.8905 24.1126 41.4479 23.9326 42.0169C24.13 42.2957 24.3391 42.5744 24.5597 42.8415C24.5771 42.8589 24.5888 42.8821 24.6004 42.8995C24.641 42.9576 24.6875 43.0099 24.7333 43.0621C24.8262 43.1783 24.9191 43.2944 25.0237 43.4047C25.0237 43.4047 25.0237 43.4047 25.0237 43.4105C25.3436 43.7821 25.6804 44.1479 26.0346 44.4963Z" fill="#111111"/>
<path d="M18.9792 53.4897C19.0024 53.5129 19.0198 53.5303 19.0431 53.5478C19.0721 52.4968 19.1418 51.4516 19.2405 50.4064C19.5076 47.7354 20.007 45.1051 20.7386 42.5386C20.8721 42.0683 21.0173 41.5979 21.1683 41.1276C21.4296 40.3089 21.7199 39.5018 22.0334 38.7005C22.016 38.6656 21.9986 38.6308 21.9812 38.596V38.5902C20.9128 36.1572 20.3495 33.5095 20.3495 30.7746C20.3495 25.5894 22.3644 20.7177 26.0341 17.0538C29.8142 13.2679 34.7846 11.375 39.755 11.375C42.2401 11.375 44.7253 11.8511 47.0596 12.7976C47.2105 12.8615 47.3615 12.9195 47.5067 12.9892C47.5415 13.0008 47.5763 13.0182 47.6112 13.0356C48.4183 12.7163 49.2312 12.426 50.0615 12.1589C50.5261 12.0079 50.9964 11.8627 51.4667 11.7292C54.0448 10.9917 56.681 10.4808 59.352 10.2137C60.3913 10.1092 61.4365 10.0395 62.4875 10.0046C62.4701 9.98141 62.4526 9.96399 62.4294 9.94657C62.1391 9.62722 61.8372 9.30786 61.5294 9.00011C60.7804 8.25107 59.9965 7.54848 59.1952 6.89234C58.7887 6.56137 58.3823 6.24782 57.9642 5.94007C54.0216 3.04842 49.5389 1.20776 44.9111 0.429682C44.4234 0.34839 43.9357 0.278712 43.4421 0.220646C42.2169 0.0754832 40.9859 0 39.755 0C38.524 0 37.293 0.0754832 36.0678 0.220646C35.5743 0.278712 35.0865 0.34839 34.5988 0.429682C29.971 1.20776 25.4941 3.04842 21.5515 5.94007C21.1334 6.24782 20.727 6.56137 20.3205 6.89234C19.5192 7.54848 18.7353 8.25107 17.9863 9.00011C12.1682 14.8182 8.96875 22.5525 8.96875 30.7746C8.96875 38.9966 12.1682 46.7309 17.9863 52.5432C18.3115 52.8684 18.6424 53.1878 18.9792 53.4897Z" fill="#111111"/>
<path d="M2.33476 129.138H3.09949V124.796H4.47388V124.117H0.960938V124.796H2.33476V129.138Z" fill="#111111"/>
<path d="M13.797 129.138H14.5995L12.7745 124.117H12.1375L10.3125 129.138H11.1184L11.504 128.016H13.4085L13.797 129.138ZM11.7235 127.341L12.4505 125.147H12.4644L13.1908 127.341H11.7235Z" fill="#111111"/>
<path d="M22.1982 125.2C22.2789 125.097 22.384 125.011 22.5152 124.942C22.6435 124.875 22.7974 124.84 22.9768 124.835C23.2195 124.84 23.4262 124.91 23.5964 125.045C23.7595 125.187 23.8722 125.36 23.9343 125.562H24.7403C24.6596 125.142 24.4668 124.79 24.162 124.504C23.8565 124.222 23.4617 124.079 22.9774 124.074C22.582 124.079 22.2528 124.173 21.9886 124.356C21.7203 124.538 21.5252 124.744 21.4033 124.977C21.3278 125.098 21.2709 125.258 21.2343 125.455C21.2 125.652 21.1826 126.043 21.1826 126.626C21.1826 127.199 21.2 127.588 21.2343 127.79C21.2529 127.898 21.2761 127.987 21.3034 128.058C21.333 128.127 21.3661 128.199 21.4033 128.275C21.5252 128.507 21.7197 128.711 21.9886 128.888C22.2528 129.072 22.582 129.168 22.9774 129.178C23.489 129.168 23.914 128.995 24.2514 128.657C24.587 128.318 24.7588 127.896 24.7681 127.394V126.371H22.9844V127.091H24.0069V127.353C24.0023 127.667 23.9036 127.921 23.7108 128.114C23.518 128.316 23.2735 128.417 22.9774 128.417C22.798 128.417 22.6441 128.379 22.5158 128.303C22.3846 128.239 22.2795 128.155 22.1988 128.052C22.1 127.944 22.035 127.803 22.0025 127.628C21.9659 127.454 21.9473 127.12 21.9473 126.626C21.9473 126.133 21.9659 125.796 22.0025 125.617C22.0338 125.447 22.0995 125.308 22.1982 125.2Z" fill="#111111"/>
<path d="M35.4189 124.117V129.138H38.6247V128.419H36.1796V124.117H35.4189Z" fill="#111111"/>
<path d="M46.4497 124.117H45.6885V129.138H46.4497V124.117Z" fill="#111111"/>
<path d="M53.8555 124.117V129.138H54.6167V125.571H54.6307L56.8998 129.138H57.6193V124.117H56.858V127.685H56.8447L54.572 124.117H53.8555Z" fill="#111111"/>
<path d="M68.2312 124.837V124.117H65.0254V129.138H68.2312V128.419H65.7866V126.944H67.8735V126.27H65.7866V124.837H68.2312Z" fill="#111111"/>
<path d="M82.4118 129.138V124.117H81.6506V126.27H79.6636V124.117H78.9023V129.138H79.6636V126.944H81.6506V129.138H82.4118Z" fill="#111111"/>
<path d="M93.0241 124.837V124.117H89.8184V129.138H93.0241V128.419H90.579V126.944H92.6659V126.27H90.579V124.837H93.0241Z" fill="#111111"/>
<path d="M100.847 126.992H101.817L102.854 129.138H103.76L102.596 126.91C103.234 126.664 103.558 126.2 103.567 125.518C103.554 125.055 103.387 124.698 103.068 124.448C102.803 124.227 102.463 124.117 102.045 124.117H100.086V129.138H100.847V126.992ZM100.847 124.796H102.038C102.281 124.796 102.467 124.847 102.596 124.951C102.759 125.068 102.842 125.257 102.847 125.518C102.847 125.737 102.777 125.92 102.637 126.069C102.494 126.23 102.281 126.313 101.996 126.317H100.846L100.847 124.796Z" fill="#111111"/>
<path d="M113.939 124.837V124.117H110.733V129.138H113.939V128.419H111.495V126.944H113.582V126.27H111.495V124.837H113.939Z" fill="#111111"/>
<path d="M6.27041 118.203C7.42069 118.203 8.44379 117.898 9.33858 117.288C10.2334 116.679 10.8582 115.833 11.2118 114.751H8.20283C7.80972 115.509 7.18029 115.887 6.31512 115.887C5.44995 115.887 4.76886 115.617 4.2724 115.076C3.77594 114.535 3.52741 113.813 3.52741 112.908C3.52741 112.003 3.77594 111.281 4.2724 110.74C4.76886 110.199 5.44995 109.929 6.31512 109.929C7.18029 109.929 7.80972 110.307 8.20283 111.064H11.2118C10.8582 109.983 10.2334 109.137 9.33858 108.527C8.44379 107.918 7.42127 107.613 6.27041 107.613C4.78568 107.613 3.52916 108.112 2.50198 109.11C1.47423 110.108 0.960938 111.374 0.960938 112.908C0.960938 114.442 1.47481 115.708 2.50198 116.706C3.52916 117.704 4.78568 118.203 6.27041 118.203Z" fill="#111111"/>
<path d="M28.7349 112.908C28.7349 111.374 28.2263 110.108 27.2084 109.11C26.1905 108.112 24.9369 107.613 23.4469 107.613C21.9576 107.613 20.6987 108.112 19.6709 109.11C18.6438 110.108 18.1299 111.374 18.1299 112.908C18.1299 114.442 18.6438 115.71 19.6709 116.713C20.6987 117.716 21.9546 118.217 23.4394 118.217C24.9241 118.217 26.1777 117.716 27.2008 116.713C28.2239 115.71 28.7349 114.442 28.7349 112.908ZM25.424 115.076C24.927 115.617 24.2633 115.887 23.433 115.887C22.6021 115.887 21.9384 115.617 21.4419 115.076C20.9455 114.535 20.697 113.813 20.697 112.908C20.697 112.003 20.9449 111.281 21.4419 110.74C21.9384 110.199 22.6021 109.929 23.433 109.929C24.2639 109.929 24.9276 110.199 25.424 110.74C25.9205 111.281 26.169 112.003 26.169 112.908C26.1684 113.813 25.9205 114.535 25.424 115.076Z" fill="#111111"/>
<path d="M47.9816 107.76H45.0911L42.1262 114.898L39.1469 107.76H36.2559V118.114H38.7782V112.273L41.1821 118.114H43.0553L45.4598 112.273V118.114H47.9816V107.76Z" fill="#111111"/>
<path d="M58.6177 114.087H60.1808C60.8985 114.087 61.5203 113.981 62.0464 113.77C62.5725 113.559 62.9679 113.286 63.2338 112.951C63.7355 112.302 63.9858 111.629 63.9858 110.93C63.9858 110.055 63.6513 109.308 62.983 108.689C62.3141 108.069 61.3798 107.76 60.1802 107.76H56.0947V118.114H58.6171V114.087H58.6177ZM58.6177 109.677H60.1808C60.5541 109.677 60.8543 109.795 61.0802 110.031C61.3067 110.267 61.4193 110.569 61.4193 110.938C61.4193 111.307 61.309 111.604 61.0872 111.83C60.8659 112.057 60.564 112.17 60.1802 112.17H58.6171V109.677H58.6177Z" fill="#111111"/>
<path d="M74.0295 107.731L70.4307 118.115H73.115L73.6899 116.375H77.4066L77.9821 118.115H80.6809L77.0971 107.731H74.0295ZM74.3245 114.457L75.5485 110.77L76.7725 114.457H74.3245Z" fill="#111111"/>
<path d="M97.0809 118.115V107.731H94.5592V114.265L90.3407 107.731H87.8184V118.115H90.3407V111.581L94.5592 118.115H97.0809Z" fill="#111111"/>
<path d="M107.893 114.78V118.114H110.416V114.78L114 107.76H111.139L109.162 112.435L107.171 107.76H104.31L107.893 114.78Z" fill="#111111"/>
</svg>
