<svg width="114" height="130" viewBox="0 0 114 130" fill="none" xmlns="http://www.w3.org/2000/svg">
<path d="M59.9178 31.5306C59.4823 31.5887 59.0642 31.6526 58.6235 31.7339C58.4726 31.7629 58.3158 31.7919 58.1648 31.8268C58.1648 31.8326 58.1648 31.8326 58.1648 31.8326C57.9151 36.4487 56.0338 40.9836 52.515 44.4966C49.0137 47.9979 44.502 49.8792 39.9091 50.1405C39.9033 50.1405 39.9033 50.1405 39.9033 50.1405C39.8684 50.3031 39.8394 50.4599 39.8104 50.6109C39.7233 51.0696 39.6652 51.4818 39.6129 51.8709V51.9057C39.5491 52.3702 39.5084 52.7767 39.4852 53.1425V53.1773C39.4388 53.8161 39.4155 54.3851 39.4155 54.9193C39.4155 55.0122 39.4155 55.1051 39.4213 55.198V55.32C39.4213 55.4535 39.4271 55.5812 39.4329 55.7148V55.7554C39.4388 55.9006 39.4388 56.0283 39.4504 56.1561L39.4562 56.2025V56.249C39.4678 56.4116 39.4736 56.5742 39.491 56.7309L39.4968 56.7774V56.818C39.5084 56.969 39.5201 57.1142 39.5375 57.2709C39.5491 57.4161 39.5607 57.5438 39.5781 57.6716L39.5839 57.7239L39.5897 57.7761L39.5955 57.8051C39.6077 57.9097 39.6188 58.0142 39.6362 58.1245L39.671 58.3452V58.3742C39.7233 58.7342 39.7813 59.1 39.8568 59.46L39.8626 59.4832L39.8684 59.5006C39.9439 59.9303 40.0426 60.36 40.153 60.7781C40.211 61.022 40.2807 61.2658 40.3504 61.5097H40.3562C47.7131 61.1439 54.9596 58.1535 60.5687 52.5444C66.1952 46.9179 69.1856 39.6307 69.534 32.2448C69.3017 32.1751 69.0695 32.1113 68.8314 32.0532C68.3843 31.9429 67.9372 31.8442 67.4843 31.7571C67.0314 31.67 66.6075 31.6003 66.2068 31.548C65.1384 31.4029 64.07 31.3274 62.9958 31.3274C62.3745 31.3274 61.7706 31.3506 61.2074 31.3913C60.6842 31.4383 60.2836 31.4784 59.9178 31.5306Z" fill="#111111"/>
<path d="M65.7245 15.8404C67.5245 19.092 68.6916 22.5934 69.2258 26.1818C69.3013 26.6928 69.3652 27.2038 69.4116 27.7205C69.4639 28.2257 69.5046 28.7309 69.5278 29.236C70.0213 29.358 70.5149 29.4973 71.0026 29.6541C71.4962 29.8051 71.9839 29.9793 72.4659 30.1651C72.4717 30.1651 72.4775 30.1709 72.4775 30.1709C72.6982 30.2522 72.9188 30.3393 73.1395 30.4322C76.3156 31.7445 79.2305 33.6838 81.7331 36.1865C86.7383 41.1917 89.4964 47.846 89.4964 54.9241C89.4964 61.9965 86.7383 68.6565 81.7331 73.656C76.7279 78.6612 70.0736 81.4193 62.9954 81.4193C55.9173 81.4193 49.263 78.6612 44.2636 73.656C41.5636 70.9559 39.5661 67.8204 38.2829 64.4642C38.2771 64.4584 38.2771 64.4526 38.2771 64.4468C38.0913 63.9649 37.9171 63.4829 37.7661 62.9894C37.7603 62.9894 37.7603 62.9894 37.7603 62.9836C37.6093 62.4958 37.47 62.0081 37.3422 61.5145C37.0635 61.5029 36.7848 61.4855 36.5061 61.4623C36.4887 61.4623 36.4712 61.4623 36.4538 61.4565C36.3087 61.4506 36.1693 61.439 36.0299 61.4216C35.9603 61.4158 35.8964 61.41 35.8267 61.4042C35.7745 61.3984 35.7164 61.3926 35.6641 61.3868C35.4609 61.3694 35.2635 61.3461 35.0603 61.3229C34.8048 61.2939 34.5493 61.259 34.2938 61.2184C34.137 61.1952 33.9802 61.1719 33.8177 61.1429C33.6493 61.1197 33.4867 61.0906 33.3183 61.0558C33.1499 61.0268 32.9873 60.9977 32.8248 60.9629C32.2789 60.8584 31.7331 60.7364 31.1931 60.5971C31.0654 60.5681 30.9376 60.5332 30.8041 60.4984C30.1421 60.3242 29.486 60.1268 28.8357 59.9003C28.4873 59.7842 28.1447 59.6622 27.8021 59.5287C27.4886 59.4126 27.1692 59.2848 26.8556 59.1513C26.4956 59.0003 26.1356 58.8435 25.7814 58.6751C25.6189 58.6054 25.4563 58.5242 25.2995 58.4429C25.224 58.4138 25.1543 58.379 25.0788 58.3325C24.9395 58.2687 24.8007 58.199 24.6608 58.1235C24.6376 58.1177 24.6143 58.1061 24.5911 58.0887C24.3763 57.9841 24.1614 57.868 23.9466 57.7461C23.8595 57.6996 23.7724 57.6532 23.6853 57.6009C23.4356 57.4616 23.1859 57.3164 22.942 57.1654C22.8259 57.1016 22.7156 57.0319 22.6053 56.9622C22.5588 56.939 22.5066 56.9041 22.4601 56.8693C21.9549 56.5615 21.4614 56.2306 20.9736 55.8822C20.9852 56.4861 21.0143 57.0899 21.0549 57.6938C21.0491 57.6996 21.0491 57.7054 21.0549 57.717C21.0898 58.3209 21.142 58.919 21.2117 59.5171V59.5229C21.2117 59.5577 21.2117 59.5809 21.2175 59.6158C22.2627 69.0688 26.4492 77.825 33.2718 84.6477C41.2152 92.5852 51.7714 96.9575 62.9954 96.9575C74.2253 96.9575 84.7815 92.5852 92.719 84.6477C100.662 76.7044 105.035 66.1539 105.035 54.9241C105.035 49.3092 103.943 43.8627 101.859 38.8284C99.7682 33.7942 96.6907 29.1664 92.719 25.2005C85.879 18.3546 77.0879 14.1565 67.6058 13.1345C67.571 13.1287 67.5303 13.1229 67.4955 13.1229C66.8974 13.0591 66.2993 13.0068 65.7013 12.972H65.6722C65.0742 12.9313 64.4703 12.9081 63.8664 12.8965C64.2148 13.3784 64.54 13.872 64.8535 14.3713C65.1613 14.8539 65.4516 15.3468 65.7245 15.8404Z" fill="#111111"/>
<path d="M25.0736 44.4963C25.1259 44.5486 25.1724 44.595 25.2246 44.6415C25.5324 44.9434 25.8459 45.2338 26.1711 45.5067C26.3221 45.6402 26.4788 45.768 26.6356 45.8957C26.8156 46.0409 27.0014 46.186 27.193 46.3254C27.3672 46.4589 27.5414 46.5867 27.7214 46.7086C27.9246 46.8538 28.1337 46.9931 28.3427 47.1267C28.3892 47.1557 28.4414 47.1906 28.4879 47.2196C28.6098 47.2951 28.7318 47.3706 28.8537 47.4402C28.8769 47.4577 28.9001 47.4693 28.9234 47.4809C29.0743 47.5738 29.2311 47.6609 29.3821 47.7422C29.7131 47.928 30.044 48.1022 30.3808 48.259C30.4215 48.2822 30.4679 48.3054 30.5143 48.3228C30.5956 48.3635 30.6827 48.4041 30.7698 48.439C30.9382 48.5203 31.1124 48.5957 31.2866 48.6654C31.4608 48.7409 31.635 48.8106 31.8092 48.8745C31.966 48.9383 32.1286 48.9964 32.2854 49.0545C32.8834 49.2635 33.4815 49.4435 34.0912 49.5945C34.2886 49.6467 34.4918 49.6932 34.6892 49.7338C34.817 49.7687 34.9447 49.7919 35.0783 49.8151C35.2176 49.8441 35.357 49.8674 35.4964 49.8906C35.5022 49.8964 35.508 49.8964 35.5138 49.8964C35.9899 49.9777 36.4718 50.0416 36.9538 50.088C37.0409 49.6119 37.1454 49.1299 37.2615 48.6596C37.2615 48.6538 37.2615 48.6538 37.2615 48.6538C37.3719 48.1777 37.4996 47.7073 37.6448 47.237C37.6448 47.2312 37.6448 47.2312 37.6448 47.2254C38.8699 43.1841 41.0706 39.375 44.2642 36.1872C47.3765 33.0749 51.1391 30.8278 55.2385 29.5794C55.2443 29.5794 55.2443 29.5736 55.2501 29.5736C55.7205 29.4342 56.1908 29.3007 56.6669 29.1903H56.6728C57.1431 29.0684 57.6192 28.9639 58.1012 28.8768C58.0547 28.3948 57.9908 27.9129 57.9037 27.4368C57.8224 26.9606 57.7237 26.4845 57.6018 26.0142C56.7889 22.7741 55.134 19.7083 52.6256 17.1708C52.5908 17.1302 52.5559 17.0953 52.5153 17.0547C52.1495 16.6889 51.7779 16.3405 51.3888 16.0153C50.9359 15.6205 50.4714 15.2605 49.9953 14.9237C49.432 15.1095 48.8688 15.3011 48.3113 15.5102C48.2997 15.516 48.2881 15.516 48.2765 15.5276C47.7423 15.7192 47.2197 15.9282 46.6971 16.1489C46.6449 16.1721 46.5984 16.1895 46.552 16.2128H46.5462C41.6513 18.2973 37.1512 21.3225 33.2724 25.2013C29.3647 29.1032 26.3278 33.6381 24.2491 38.5795C24.2259 38.6201 24.2085 38.6666 24.1911 38.713C23.9704 39.2356 23.7614 39.764 23.5698 40.2982C23.5639 40.3098 23.5581 40.3214 23.5581 40.3331C23.3491 40.8905 23.1517 41.4479 22.9717 42.0169C23.1691 42.2957 23.3781 42.5744 23.5988 42.8415C23.6162 42.8589 23.6278 42.8821 23.6394 42.8995C23.6801 42.9576 23.7265 43.0099 23.7724 43.0621C23.8653 43.1783 23.9582 43.2944 24.0627 43.4047C24.0627 43.4047 24.0627 43.4047 24.0627 43.4105C24.3827 43.7821 24.7194 44.1479 25.0736 44.4963Z" fill="#111111"/>
<path d="M18.0183 53.4897C18.0415 53.5129 18.0589 53.5303 18.0821 53.5478C18.1112 52.4968 18.1808 51.4516 18.2796 50.4064C18.5467 47.7354 19.046 45.1051 19.7776 42.5386C19.9112 42.0683 20.0564 41.5979 20.2073 41.1276C20.4686 40.3089 20.7589 39.5018 21.0725 38.7005C21.0551 38.6656 21.0377 38.6308 21.0202 38.596V38.5902C19.9518 36.1572 19.3886 33.5095 19.3886 30.7746C19.3886 25.5894 21.4035 20.7177 25.0732 17.0538C28.8532 13.2679 33.8236 11.375 38.794 11.375C41.2792 11.375 43.7644 11.8511 46.0986 12.7976C46.2496 12.8615 46.4006 12.9195 46.5457 12.9892C46.5806 13.0008 46.6154 13.0182 46.6502 13.0356C47.4573 12.7163 48.2703 12.426 49.1006 12.1589C49.5651 12.0079 50.0354 11.8627 50.5058 11.7292C53.0839 10.9917 55.72 10.4808 58.391 10.2137C59.4304 10.1092 60.4756 10.0395 61.5266 10.0046C61.5091 9.98141 61.4917 9.96399 61.4685 9.94657C61.1782 9.62722 60.8762 9.30786 60.5685 9.00011C59.8194 8.25107 59.0355 7.54848 58.2342 6.89234C57.8278 6.56137 57.4213 6.24782 57.0033 5.94007C53.0606 3.04842 48.578 1.20776 43.9502 0.429682C43.4625 0.34839 42.9747 0.278712 42.4812 0.220646C41.256 0.0754832 40.025 0 38.794 0C37.563 0 36.332 0.0754832 35.1069 0.220646C34.6133 0.278712 34.1256 0.34839 33.6378 0.429682C29.01 1.20776 24.5332 3.04842 20.5906 5.94007C20.1725 6.24782 19.766 6.56137 19.3596 6.89234C18.5583 7.54848 17.7744 8.25107 17.0254 9.00011C11.2072 14.8182 8.00781 22.5525 8.00781 30.7746C8.00781 38.9966 11.2072 46.7309 17.0254 52.5432C17.3505 52.8684 17.6815 53.1878 18.0183 53.4897Z" fill="#111111"/>
<path d="M1.37382 129.138H2.13855V124.796H3.51294V124.117H0V124.796H1.37382V129.138Z" fill="#111111"/>
<path d="M12.8365 129.138H13.639L11.814 124.117H11.177L9.35205 129.138H10.158L10.5436 128.016H12.4481L12.8365 129.138ZM10.763 127.341L11.49 125.147H11.5039L12.2303 127.341H10.763Z" fill="#111111"/>
<path d="M21.2372 125.2C21.3179 125.097 21.423 125.011 21.5543 124.942C21.6826 124.875 21.8365 124.84 22.0159 124.835C22.2586 124.84 22.4653 124.91 22.6354 125.045C22.7986 125.187 22.9113 125.36 22.9734 125.562H23.7793C23.6986 125.142 23.5059 124.79 23.201 124.504C22.8956 124.222 22.5007 124.079 22.0165 124.074C21.6211 124.079 21.2918 124.173 21.0276 124.356C20.7594 124.538 20.5643 124.744 20.4423 124.977C20.3668 125.098 20.3099 125.258 20.2734 125.455C20.2391 125.652 20.2217 126.043 20.2217 126.626C20.2217 127.199 20.2391 127.588 20.2734 127.79C20.2919 127.898 20.3152 127.987 20.3425 128.058C20.3721 128.127 20.4052 128.199 20.4423 128.275C20.5643 128.507 20.7588 128.711 21.0276 128.888C21.2918 129.072 21.6211 129.168 22.0165 129.178C22.528 129.168 22.9531 128.995 23.2904 128.657C23.626 128.318 23.7979 127.896 23.8072 127.394V126.371H22.0234V127.091H23.046V127.353C23.0413 127.667 22.9426 127.921 22.7498 128.114C22.5571 128.316 22.3126 128.417 22.0165 128.417C21.8371 128.417 21.6832 128.379 21.5549 128.303C21.4236 128.239 21.3185 128.155 21.2378 128.052C21.1391 127.944 21.0741 127.803 21.0416 127.628C21.005 127.454 20.9864 127.12 20.9864 126.626C20.9864 126.133 21.005 125.796 21.0416 125.617C21.0729 125.447 21.1385 125.308 21.2372 125.2Z" fill="#111111"/>
<path d="M34.4575 124.117V129.138H37.6633V128.419H35.2182V124.117H34.4575Z" fill="#111111"/>
<path d="M45.4893 124.117H44.728V129.138H45.4893V124.117Z" fill="#111111"/>
<path d="M52.8945 124.117V129.138H53.6558V125.571H53.6697L55.9389 129.138H56.6583V124.117H55.8971V127.685H55.8837L53.6111 124.117H52.8945Z" fill="#111111"/>
<path d="M67.2707 124.837V124.117H64.0649V129.138H67.2707V128.419H64.8262V126.944H66.913V126.27H64.8262V124.837H67.2707Z" fill="#111111"/>
<path d="M81.4509 129.138V124.117H80.6897V126.27H78.7026V124.117H77.9414V129.138H78.7026V126.944H80.6897V129.138H81.4509Z" fill="#111111"/>
<path d="M92.0627 124.837V124.117H88.8569V129.138H92.0627V128.419H89.6176V126.944H91.7044V126.27H89.6176V124.837H92.0627Z" fill="#111111"/>
<path d="M99.8857 126.992H100.857L101.893 129.138H102.799L101.635 126.91C102.273 126.664 102.597 126.2 102.606 125.518C102.593 125.055 102.426 124.698 102.107 124.448C101.842 124.227 101.502 124.117 101.084 124.117H99.125V129.138H99.8857V126.992ZM99.8857 124.796H101.077C101.32 124.796 101.506 124.847 101.635 124.951C101.798 125.068 101.881 125.257 101.886 125.518C101.886 125.737 101.816 125.92 101.676 126.069C101.534 126.23 101.32 126.313 101.035 126.317H99.8851L99.8857 124.796Z" fill="#111111"/>
<path d="M112.979 124.837V124.117H109.773V129.138H112.979V128.419H110.534V126.944H112.621V126.27H110.534V124.837H112.979Z" fill="#111111"/>
<path d="M5.30948 118.203C6.45975 118.203 7.48286 117.898 8.37764 117.288C9.27243 116.679 9.89722 115.833 10.2508 114.751H7.24189C6.84879 115.509 6.21936 115.887 5.35418 115.887C4.48901 115.887 3.80792 115.617 3.31146 115.076C2.815 114.535 2.56647 113.813 2.56647 112.908C2.56647 112.003 2.815 111.281 3.31146 110.74C3.80792 110.199 4.48901 109.929 5.35418 109.929C6.21936 109.929 6.84879 110.307 7.24189 111.064H10.2508C9.89722 109.983 9.27243 109.137 8.37764 108.527C7.48286 107.918 6.46033 107.613 5.30948 107.613C3.82475 107.613 2.56822 108.112 1.54105 109.11C0.513292 110.108 0 111.374 0 112.908C0 114.442 0.513873 115.708 1.54105 116.706C2.56822 117.704 3.82475 118.203 5.30948 118.203Z" fill="#111111"/>
<path d="M27.7745 112.908C27.7745 111.374 27.2658 110.108 26.2479 109.11C25.2301 108.112 23.9764 107.613 22.4865 107.613C20.9971 107.613 19.7383 108.112 18.7105 109.11C17.6833 110.108 17.1694 111.374 17.1694 112.908C17.1694 114.442 17.6833 115.71 18.7105 116.713C19.7383 117.716 20.9942 118.217 22.4789 118.217C23.9637 118.217 25.2173 117.716 26.2404 116.713C27.2635 115.71 27.7745 114.442 27.7745 112.908ZM24.4636 115.076C23.9666 115.617 23.3029 115.887 22.4725 115.887C21.6416 115.887 20.9779 115.617 20.4815 115.076C19.985 114.535 19.7365 113.813 19.7365 112.908C19.7365 112.003 19.9844 111.281 20.4815 110.74C20.9779 110.199 21.6416 109.929 22.4725 109.929C23.3035 109.929 23.9671 110.199 24.4636 110.74C24.9601 111.281 25.2086 112.003 25.2086 112.908C25.208 113.813 24.9601 114.535 24.4636 115.076Z" fill="#111111"/>
<path d="M47.0206 107.76H44.1301L41.1653 114.898L38.186 107.76H35.2949V118.114H37.8173V112.273L40.2212 118.114H42.0944L44.4988 112.273V118.114H47.0206V107.76Z" fill="#111111"/>
<path d="M57.6567 114.087H59.2198C59.9375 114.087 60.5594 113.981 61.0855 113.77C61.6115 113.559 62.007 113.286 62.2729 112.951C62.7746 112.302 63.0249 111.629 63.0249 110.93C63.0249 110.055 62.6904 109.308 62.0221 108.689C61.3531 108.069 60.4189 107.76 59.2192 107.76H55.1338V118.114H57.6561V114.087H57.6567ZM57.6567 109.677H59.2198C59.5932 109.677 59.8934 109.795 60.1193 110.031C60.3457 110.267 60.4584 110.569 60.4584 110.938C60.4584 111.307 60.348 111.604 60.1262 111.83C59.905 112.057 59.6031 112.17 59.2192 112.17H57.6561V109.677H57.6567Z" fill="#111111"/>
<path d="M73.0686 107.731L69.4697 118.115H72.1541L72.7289 116.375H76.4457L77.0211 118.115H79.72L76.1362 107.731H73.0686ZM73.3636 114.457L74.5876 110.77L75.8116 114.457H73.3636Z" fill="#111111"/>
<path d="M96.1205 118.115V107.731H93.5987V114.265L89.3803 107.731H86.8579V118.115H89.3803V111.581L93.5987 118.115H96.1205Z" fill="#111111"/>
<path d="M106.933 114.78V118.114H109.455V114.78L113.04 107.76H110.178L108.202 112.435L106.211 107.76H103.349L106.933 114.78Z" fill="#111111"/>
</svg>
