<svg width="123" height="113" viewBox="0 0 123 113" fill="none" xmlns="http://www.w3.org/2000/svg">
<path d="M117.817 64.4629L119.61 63.4274C119.776 63.3314 119.927 63.3216 120.049 63.3752L120.053 63.3721L120.594 63.6743L120.402 64.0057L120.338 63.9735C120.338 63.9747 120.338 63.9759 120.338 63.9771V70.2015C120.338 70.7371 120.012 71.3591 119.611 71.5914L118.082 72.4743L118.185 72.5302L117.878 72.9649L117.369 72.6786L117.371 72.6743C117.201 72.594 117.091 72.3861 117.091 72.0766V65.8523C117.09 65.3166 117.416 64.6946 117.817 64.4629Z" fill="#666666"/>
<path d="M118.337 72.9174L120.13 71.8819C120.532 71.6503 120.857 71.0277 120.857 70.492V64.2682C120.857 63.7326 120.531 63.4863 120.13 63.7186L118.337 64.754C117.935 64.9857 117.609 65.6083 117.609 66.144V72.3684C117.609 72.9034 117.935 73.1497 118.337 72.9174Z" fill="#111111"/>
<path d="M0 54.7046L1.90859 55.807V52.0518L0 50.9495V54.7046Z" fill="#111111"/>
<path d="M0 50.9477L1.90859 52.0495L27.118 37.4952L25.2094 36.3928L0 50.9477Z" fill="#111111"/>
<path d="M1.91016 55.8101L27.1195 41.2558V37.5L1.91016 52.0549V55.8101Z" fill="#4E4E4E"/>
<path d="M3.42676 57.259L60.1416 90.0997V78.74L3.42676 45.8987V57.259Z" fill="#111111"/>
<path d="M60.1416 90.0968L88.5924 73.6217V62.262L60.1416 78.737V90.0968Z" fill="#4E4E4E"/>
<path d="M3.43066 45.897L60.1449 78.7383L88.4047 62.3733L31.6905 29.532L3.43066 45.897Z" fill="#111111"/>
<path d="M8.3926 62.6303L4.58453 64.7322L3.00488 63.8202L6.81295 61.7183L8.3926 62.6303Z" fill="#111111"/>
<path d="M6.8125 61.7185L8.39215 62.6305C8.39215 62.1684 8.42377 61.7367 8.48153 61.3263C9.04517 57.3468 12.2835 55.8966 16.1694 58.1403C20.0553 60.3839 23.2888 65.5703 23.8518 70.2005C23.9096 70.6778 23.9412 71.1459 23.9412 71.608L25.5209 72.5201C25.5209 71.3344 25.3573 70.1032 25.0472 68.8598C23.8147 63.8435 20.3028 58.7027 16.1694 56.3162C11.4092 53.5679 7.46552 55.4194 6.88607 60.4052C6.83865 60.8217 6.8125 61.2564 6.8125 61.7185Z" fill="#111111"/>
<path d="M7.67859 58.4629L7.47551 62.1007L4.4293 63.5515C4.4293 63.5515 4.29614 61.6514 4.4293 61.0069C4.56246 60.363 7.67859 58.4629 7.67859 58.4629Z" fill="#111111"/>
<path d="M17.6225 58.1468C21.5102 60.3917 24.661 65.8487 24.661 70.3384C24.661 74.828 21.5102 76.6466 17.6225 74.4024C13.7342 72.1576 10.584 66.7005 10.584 62.2109C10.584 57.7206 13.7348 55.9014 17.6225 58.1468ZM17.6225 70.9646C19.8746 72.2652 21.6847 71.2048 21.6847 68.6195C21.6847 66.0183 19.8746 62.884 17.6225 61.5834C15.3837 60.2907 13.5603 61.328 13.5603 63.9285C13.5603 66.5139 15.3837 69.672 17.6225 70.9646Z" fill="#111111"/>
<path d="M17.6228 61.5832C19.8749 62.8837 21.685 66.0187 21.685 68.6192C21.685 71.2046 19.8749 72.265 17.6228 70.9644C15.384 69.6717 13.5605 66.5137 13.5605 63.9283C13.5605 61.3272 15.384 60.2905 17.6228 61.5832ZM15.263 62.8989C15.1153 62.7056 14.9146 62.6515 14.8204 62.7828C14.7267 62.9141 14.7802 63.1622 14.9414 63.3635C15.0891 63.5568 15.2898 63.6109 15.384 63.4796C15.4777 63.3635 15.4241 63.1002 15.263 62.8989ZM17.6228 62.5274C17.4483 62.4271 17.3011 62.5122 17.3011 62.7287C17.3011 62.93 17.4489 63.1853 17.6228 63.2863C17.7973 63.3866 17.9444 63.3021 17.9444 63.1008C17.945 62.8837 17.7973 62.6278 17.6228 62.5274ZM19.245 63.9751C19.0839 63.7739 18.8832 63.7198 18.8023 63.859C18.7087 63.9752 18.7622 64.2384 18.9233 64.4397C19.0711 64.6178 19.2717 64.672 19.366 64.5558C19.4462 64.416 19.3927 64.1527 19.245 63.9751ZM20.5322 68.325C20.7201 68.4332 20.8672 68.3481 20.8672 68.1468C20.8672 67.9304 20.7194 67.6902 20.5322 67.582C20.3577 67.4816 20.2105 67.551 20.2105 67.768C20.2105 67.9687 20.3577 68.2247 20.5322 68.325ZM19.9825 69.6334C20.1436 69.8347 20.3309 69.8809 20.4252 69.7496C20.5188 69.6334 20.4653 69.3702 20.3048 69.1689C20.157 68.9908 19.9564 68.9366 19.8621 69.0528C19.7813 69.192 19.8214 69.4474 19.9825 69.6334ZM19.8621 66.0649C19.9558 66.3051 20.157 66.4833 20.3048 66.4595C20.4659 66.4437 20.5194 66.2583 20.4252 66.0181C20.3315 65.778 20.1436 65.6077 19.9825 65.6235C19.8214 65.6393 19.7813 65.8479 19.8621 66.0649ZM18.8029 70.0512C18.8832 70.2834 19.0845 70.4458 19.2456 70.4458C19.3933 70.4227 19.4468 70.2214 19.3666 70.0043C19.273 69.7642 19.0717 69.586 18.9239 69.6097C18.7628 69.6255 18.7087 69.811 18.8029 70.0512ZM17.6228 70.005C17.7973 70.1053 17.9444 70.0207 17.9444 69.8195C17.9444 69.6182 17.7967 69.3629 17.6228 69.2619C17.4483 69.1616 17.3011 69.2461 17.3011 69.4474C17.3011 69.6486 17.4489 69.904 17.6228 70.005ZM17.6228 67.9924C18.4406 68.4648 19.1112 68.0775 19.1112 67.1332C19.1112 66.1732 18.4406 65.0277 17.6228 64.5558C16.805 64.0834 16.1343 64.4549 16.1343 65.415C16.1349 66.3586 16.805 67.5199 17.6228 67.9924ZM16.0006 68.5724C16.1617 68.7585 16.3623 68.8278 16.4432 68.6886C16.5368 68.5566 16.4833 68.3092 16.3362 68.1158C16.1751 67.9145 15.9744 67.8604 15.8935 67.9997C15.7993 68.1158 15.8534 68.3791 16.0006 68.5724ZM15.8935 62.5506C15.9738 62.767 16.1751 62.9452 16.3362 62.9452C16.4839 62.922 16.5374 62.7208 16.4432 62.4964C16.3629 62.2642 16.1617 62.086 16.0006 62.1018C15.8534 62.1091 15.7993 62.3104 15.8935 62.5506ZM14.821 66.5137C14.9146 66.7538 15.1159 66.932 15.2636 66.9083C15.4248 66.9083 15.4783 66.707 15.384 66.4669C15.2904 66.2425 15.0891 66.0643 14.9414 66.0722C14.7809 66.088 14.7267 66.2893 14.821 66.5137ZM14.7134 64.9656C14.8879 65.0659 15.035 64.9808 15.035 64.7802C15.035 64.5631 14.8873 64.3236 14.7134 64.2226C14.5389 64.1223 14.3917 64.1916 14.3917 64.4087C14.3917 64.6093 14.5395 64.8647 14.7134 64.9656Z" fill="#E4E4E4"/>
<path d="M16.1348 65.4144C16.1348 66.3587 16.8054 67.52 17.6232 67.9918C18.441 68.4643 19.1117 68.077 19.1117 67.1327C19.1117 66.1726 18.441 65.0271 17.6232 64.5553C16.8048 64.0835 16.1348 64.455 16.1348 65.4144Z" fill="#111111"/>
<path d="M17.3008 62.7289C17.3008 62.9301 17.4485 63.1855 17.6224 63.2864C17.7969 63.3867 17.9441 63.3022 17.9441 63.101C17.9441 62.8845 17.7963 62.6285 17.6224 62.5282C17.4485 62.4267 17.3008 62.5118 17.3008 62.7289Z" fill="#111111"/>
<path d="M18.9228 64.4392C19.0705 64.6173 19.2712 64.6714 19.3654 64.5553C19.4457 64.4161 19.3922 64.1528 19.2444 63.9747C19.0833 63.7734 18.8826 63.7193 18.8018 63.8585C18.7081 63.9753 18.7623 64.2379 18.9228 64.4392Z" fill="#111111"/>
<path d="M19.8618 66.065C19.9555 66.3052 20.1567 66.4833 20.3045 66.4596C20.4656 66.4438 20.5191 66.2584 20.4249 66.0182C20.3312 65.778 20.1433 65.6078 19.9822 65.6236C19.8211 65.6394 19.781 65.8479 19.8618 66.065Z" fill="#111111"/>
<path d="M20.21 67.7681C20.21 67.9693 20.3577 68.2247 20.5316 68.3256C20.7195 68.4338 20.8666 68.3487 20.8666 68.1475C20.8666 67.931 20.7189 67.6908 20.5316 67.5826C20.3571 67.4811 20.21 67.551 20.21 67.7681Z" fill="#111111"/>
<path d="M19.9822 69.6335C20.1433 69.8348 20.3306 69.881 20.4249 69.7496C20.5185 69.6335 20.465 69.3702 20.3045 69.169C20.1567 68.9908 19.9561 68.9367 19.8618 69.0528C19.781 69.1921 19.8211 69.4474 19.9822 69.6335Z" fill="#111111"/>
<path d="M18.8032 70.0512C18.8834 70.2835 19.0847 70.4458 19.2458 70.4458C19.3936 70.4227 19.4471 70.2215 19.3668 70.0044C19.2732 69.7642 19.0719 69.5861 18.9242 69.6098C18.763 69.6256 18.7089 69.811 18.8032 70.0512Z" fill="#111111"/>
<path d="M17.3008 69.4475C17.3008 69.6488 17.4485 69.9041 17.6224 70.0051C17.7969 70.1054 17.9441 70.0209 17.9441 69.8196C17.9441 69.6184 17.7963 69.363 17.6224 69.2621C17.4485 69.1611 17.3008 69.2463 17.3008 69.4475Z" fill="#111111"/>
<path d="M16.0005 68.5726C16.1617 68.7587 16.3623 68.828 16.4432 68.6888C16.5368 68.5568 16.4833 68.3094 16.3362 68.116C16.175 67.9147 15.9744 67.8606 15.8935 67.9999C15.7993 68.116 15.8534 68.3793 16.0005 68.5726Z" fill="#111111"/>
<path d="M14.8208 66.5137C14.9144 66.7539 15.1157 66.932 15.2634 66.9083C15.4245 66.9083 15.478 66.7071 15.3838 66.4669C15.2902 66.2425 15.0889 66.0644 14.9411 66.0723C14.7806 66.0881 14.7265 66.2893 14.8208 66.5137Z" fill="#111111"/>
<path d="M14.3916 64.4081C14.3916 64.6093 14.5394 64.8647 14.7132 64.9656C14.8878 65.0659 15.0349 64.9808 15.0349 64.7802C15.0349 64.5631 14.8871 64.3235 14.7132 64.2226C14.5394 64.1217 14.3916 64.1916 14.3916 64.4081Z" fill="#111111"/>
<path d="M14.9411 63.3636C15.0889 63.5569 15.2895 63.611 15.3838 63.4797C15.4774 63.3636 15.4239 63.1003 15.2634 62.899C15.1157 62.7057 14.915 62.6516 14.8208 62.7829C14.7265 62.9142 14.7806 63.1623 14.9411 63.3636Z" fill="#111111"/>
<path d="M15.8935 62.5505C15.9738 62.767 16.175 62.9451 16.3362 62.9451C16.4839 62.922 16.5374 62.7208 16.4432 62.4964C16.3629 62.2642 16.1617 62.086 16.0005 62.1018C15.8534 62.1091 15.7993 62.3104 15.8935 62.5505Z" fill="#111111"/>
<path d="M17.1674 77.9314L23.0002 74.6219L21.5556 62.9454L12.4808 57.7559L7.29492 60.6525L17.1674 77.9314Z" fill="#111111"/>
<path d="M12.3598 61.092C16.2475 63.3369 19.3983 68.7939 19.3983 73.2836C19.3983 77.7732 16.2475 79.5918 12.3598 77.347C8.47147 75.1022 5.32129 69.6451 5.32129 65.1555C5.32129 60.6664 8.47208 58.8472 12.3598 61.092ZM12.3598 73.9104C14.6119 75.211 16.422 74.1506 16.422 71.5653C16.422 68.9641 14.6119 65.8298 12.3598 64.5292C10.121 63.2365 8.29758 64.2738 8.29758 66.8744C8.29758 69.4591 10.121 72.6178 12.3598 73.9104Z" fill="#111111"/>
<path d="M12.3601 64.5286C14.6122 65.8292 16.4223 68.9636 16.4223 71.5647C16.4223 74.15 14.6122 75.2104 12.3601 73.9099C10.1213 72.6172 8.29785 69.4591 8.29785 66.8738C8.29785 64.2733 10.1213 63.236 12.3601 64.5286ZM10.0003 65.8444C9.85258 65.651 9.65192 65.5969 9.55768 65.7283C9.46404 65.8596 9.51755 66.1077 9.67868 66.3089C9.82643 66.5023 10.0271 66.5564 10.1213 66.4251C10.215 66.3089 10.1615 66.0457 10.0003 65.8444ZM12.3601 65.4729C12.1856 65.3726 12.0384 65.4577 12.0384 65.6741C12.0384 65.8754 12.1862 66.1308 12.3601 66.2317C12.5346 66.332 12.6817 66.2469 12.6817 66.0456C12.6817 65.8292 12.5346 65.5738 12.3601 65.4729ZM13.9823 66.9206C13.8218 66.7193 13.6205 66.6652 13.5396 66.8045C13.446 66.9206 13.4995 67.1839 13.6606 67.3851C13.8084 67.5633 14.009 67.6174 14.1033 67.5013C14.1835 67.362 14.13 67.0987 13.9823 66.9206ZM15.2695 71.271C15.4574 71.3793 15.6045 71.2941 15.6045 71.0929C15.6045 70.8758 15.4568 70.6362 15.2695 70.5274C15.095 70.4271 14.9478 70.4964 14.9478 70.7135C14.9478 70.9147 15.095 71.1701 15.2695 71.271ZM14.7198 72.5789C14.881 72.7802 15.0682 72.8264 15.1625 72.695C15.2561 72.5789 15.2026 72.3156 15.0421 72.1144C14.8943 71.9362 14.6937 71.8821 14.5994 71.9982C14.5186 72.1375 14.5587 72.3928 14.7198 72.5789ZM14.5994 69.0104C14.6931 69.2506 14.8943 69.4287 15.0421 69.405C15.2032 69.3892 15.2567 69.2037 15.1625 68.9636C15.0688 68.7234 14.881 68.5532 14.7198 68.569C14.5587 68.5848 14.5186 68.7939 14.5994 69.0104ZM13.5403 72.9966C13.6205 73.2289 13.8218 73.3912 13.9829 73.3912C14.1306 73.3681 14.1842 73.1669 14.1039 72.9498C14.0103 72.7096 13.809 72.5321 13.6612 72.5552C13.5001 72.571 13.446 72.757 13.5403 72.9966ZM12.3601 72.9504C12.5346 73.0507 12.6817 72.9656 12.6817 72.7643C12.6817 72.5631 12.534 72.3077 12.3601 72.2068C12.1856 72.1064 12.0384 72.191 12.0384 72.3922C12.0384 72.5941 12.1862 72.8501 12.3601 72.9504ZM12.3601 70.9378C13.1779 71.4103 13.8485 71.0229 13.8485 70.0787C13.8485 69.1186 13.1779 67.9731 12.3601 67.5013C11.5423 67.0288 10.8716 67.4003 10.8716 68.3604C10.8722 69.3047 11.5423 70.4654 12.3601 70.9378ZM10.7379 71.5185C10.899 71.7045 11.0996 71.7739 11.1805 71.6346C11.2741 71.5027 11.2206 71.2552 11.0735 71.0619C10.9124 70.8606 10.7117 70.8065 10.6308 70.9457C10.5366 71.0619 10.5907 71.3251 10.7379 71.5185ZM10.6308 65.496C10.7111 65.7125 10.9124 65.8906 11.0735 65.8906C11.2212 65.8675 11.2747 65.6663 11.1805 65.4419C11.1002 65.2096 10.899 65.0315 10.7379 65.0473C10.5907 65.0552 10.5366 65.2564 10.6308 65.496ZM9.55829 69.4591C9.65192 69.6993 9.85318 69.8774 10.0009 69.8537C10.1621 69.8537 10.2156 69.6525 10.1213 69.4123C10.0277 69.1879 9.82643 69.0098 9.67868 69.0177C9.51816 69.0335 9.46404 69.2348 9.55829 69.4591ZM9.45067 67.9111C9.62517 68.0114 9.77232 67.9263 9.77232 67.725C9.77232 67.508 9.62457 67.2684 9.45067 67.1675C9.27617 67.0671 9.12903 67.1364 9.12903 67.3535C9.12903 67.5554 9.27678 67.8108 9.45067 67.9111Z" fill="#E4E4E4"/>
<path d="M10.8721 68.3604C10.8721 69.3046 11.5427 70.466 12.3605 70.9378C13.1783 71.4102 13.849 71.0229 13.849 70.0786C13.849 69.1186 13.1783 67.973 12.3605 67.5012C11.5421 67.0288 10.8721 67.4003 10.8721 68.3604Z" fill="#111111"/>
<path d="M12.0381 65.674C12.0381 65.8753 12.1858 66.1306 12.3597 66.2316C12.5342 66.3319 12.6814 66.2468 12.6814 66.0455C12.6814 65.829 12.5336 65.5731 12.3597 65.4728C12.1858 65.3724 12.0381 65.4575 12.0381 65.674Z" fill="#111111"/>
<path d="M13.6601 67.385C13.8078 67.5631 14.0085 67.6173 14.1027 67.5011C14.183 67.3619 14.1295 67.0986 13.9817 66.9204C13.8212 66.7192 13.6199 66.6651 13.5391 66.8043C13.4454 66.9205 13.4996 67.1837 13.6601 67.385Z" fill="#111111"/>
<path d="M14.5991 69.0103C14.6928 69.2505 14.894 69.4286 15.0418 69.4049C15.2029 69.3891 15.2564 69.2037 15.1622 68.9635C15.0685 68.7233 14.8806 68.5531 14.7195 68.5689C14.5584 68.5847 14.5183 68.7938 14.5991 69.0103Z" fill="#111111"/>
<path d="M14.9473 70.7133C14.9473 70.9146 15.095 71.17 15.2689 71.2709C15.4568 71.3791 15.6039 71.294 15.6039 71.0927C15.6039 70.8757 15.4562 70.6361 15.2689 70.5273C15.0944 70.4269 14.9473 70.4962 14.9473 70.7133Z" fill="#111111"/>
<path d="M14.7195 72.5788C14.8806 72.7801 15.0679 72.8263 15.1622 72.6949C15.2558 72.5788 15.2023 72.3155 15.0418 72.1143C14.894 71.9361 14.6934 71.882 14.5991 71.9982C14.5183 72.1374 14.5584 72.3928 14.7195 72.5788Z" fill="#111111"/>
<path d="M13.5395 72.9967C13.6197 73.2289 13.821 73.3913 13.9821 73.3913C14.1299 73.3682 14.1834 73.1669 14.1031 72.9498C14.0095 72.7097 13.8082 72.5321 13.6605 72.5552C13.4994 72.5711 13.4452 72.7571 13.5395 72.9967Z" fill="#111111"/>
<path d="M12.0381 72.3928C12.0381 72.5941 12.1858 72.8494 12.3597 72.9504C12.5342 73.0507 12.6814 72.9656 12.6814 72.7643C12.6814 72.5631 12.5336 72.3077 12.3597 72.2067C12.1858 72.1064 12.0381 72.1915 12.0381 72.3928Z" fill="#111111"/>
<path d="M10.7379 71.5184C10.899 71.7045 11.0996 71.7738 11.1805 71.6346C11.2741 71.5026 11.2206 71.2552 11.0735 71.0618C10.9124 70.8605 10.7117 70.8064 10.6308 70.9457C10.5366 71.0618 10.5907 71.3251 10.7379 71.5184Z" fill="#111111"/>
<path d="M9.55806 69.459C9.6517 69.6992 9.85296 69.8773 10.0007 69.8536C10.1618 69.8536 10.2153 69.6524 10.1211 69.4122C10.0275 69.1878 9.82621 69.0097 9.67846 69.0176C9.51794 69.0334 9.46382 69.2347 9.55806 69.459Z" fill="#111111"/>
<path d="M9.12891 67.3539C9.12891 67.5552 9.27666 67.8106 9.45055 67.9115C9.62506 68.0118 9.7722 67.9267 9.7722 67.7254C9.7722 67.5084 9.62445 67.2688 9.45055 67.1679C9.27666 67.0676 9.12891 67.1369 9.12891 67.3539Z" fill="#111111"/>
<path d="M9.67846 66.3086C9.82621 66.502 10.0269 66.5561 10.1211 66.4248C10.2147 66.3086 10.1612 66.0454 10.0007 65.8441C9.85296 65.6507 9.65231 65.5966 9.55806 65.728C9.46382 65.8599 9.51794 66.1074 9.67846 66.3086Z" fill="#111111"/>
<path d="M10.6308 65.4958C10.7111 65.7123 10.9124 65.8905 11.0735 65.8905C11.2212 65.8674 11.2747 65.6661 11.1805 65.4417C11.1002 65.2095 10.899 65.0313 10.7379 65.0471C10.5907 65.055 10.5366 65.2563 10.6308 65.4958Z" fill="#111111"/>
<path d="M21.7134 74.6218L25.5209 72.5199C25.5209 72.5199 25.7823 68.8371 23.2584 64.1771C19.4017 57.0566 15.0051 55.4915 13.0399 55.1316C10.5829 54.6816 9.12787 55.9487 9.12787 55.9487L5.53809 57.8981C5.53809 57.8981 9.16557 57.0693 12.1552 59.4759C15.1449 61.8825 18.8113 65.1378 19.654 68.1932C20.4973 71.2491 21.7134 74.6218 21.7134 74.6218Z" fill="#4E4E4E"/>
<path d="M3.00488 63.8203L4.58453 64.7323C4.58453 64.2702 4.61615 63.8385 4.67391 63.4281C5.23755 59.4486 8.4759 57.9985 12.3618 60.2421C16.2477 62.4857 19.4812 67.6721 20.0442 72.3023C20.102 72.7796 20.1336 73.2477 20.1336 73.7098L21.7132 74.6219C21.7132 73.4362 21.5497 72.205 21.239 70.9616C20.0071 65.9454 16.4945 60.8045 12.3612 58.418C7.60095 55.6697 3.65729 57.5212 3.07785 62.507C3.03164 62.9235 3.00488 63.3582 3.00488 63.8203Z" fill="#666666"/>
<path d="M22.0384 74.4669L21.7161 74.625L21.4443 73.9878L22.0384 74.4669Z" fill="#979797"/>
<path d="M8.3926 62.6303L4.58453 64.7322L3.00488 63.8202L6.81295 61.7183L8.3926 62.6303Z" fill="#111111"/>
<path d="M7.67859 58.4629L7.47551 62.1007L4.4293 63.5515C4.4293 63.5515 4.29614 61.6514 4.4293 61.0069C4.56246 60.363 7.67859 58.4629 7.67859 58.4629Z" fill="#111111"/>
<path d="M12.3598 61.092C16.2475 63.3369 19.3983 68.7939 19.3983 73.2836C19.3983 77.7732 16.2475 79.5918 12.3598 77.347C8.47147 75.1022 5.32129 69.6451 5.32129 65.1555C5.32129 60.6664 8.47208 58.8472 12.3598 61.092ZM12.3598 73.9104C14.6119 75.211 16.422 74.1506 16.422 71.5653C16.422 68.9641 14.6119 65.8298 12.3598 64.5292C10.121 63.2365 8.29758 64.2738 8.29758 66.8744C8.29758 69.4591 10.121 72.6178 12.3598 73.9104Z" fill="#111111"/>
<path d="M12.3601 64.5286C14.6122 65.8292 16.4223 68.9636 16.4223 71.5647C16.4223 74.15 14.6122 75.2104 12.3601 73.9099C10.1213 72.6172 8.29785 69.4591 8.29785 66.8738C8.29785 64.2733 10.1213 63.236 12.3601 64.5286ZM10.0003 65.8444C9.85258 65.651 9.65192 65.5969 9.55768 65.7283C9.46404 65.8596 9.51755 66.1077 9.67868 66.3089C9.82643 66.5023 10.0271 66.5564 10.1213 66.4251C10.215 66.3089 10.1615 66.0457 10.0003 65.8444ZM12.3601 65.4729C12.1856 65.3726 12.0384 65.4577 12.0384 65.6741C12.0384 65.8754 12.1862 66.1308 12.3601 66.2317C12.5346 66.332 12.6817 66.2469 12.6817 66.0456C12.6817 65.8292 12.5346 65.5738 12.3601 65.4729ZM13.9823 66.9206C13.8218 66.7193 13.6205 66.6652 13.5396 66.8045C13.446 66.9206 13.4995 67.1839 13.6606 67.3851C13.8084 67.5633 14.009 67.6174 14.1033 67.5013C14.1835 67.362 14.13 67.0987 13.9823 66.9206ZM15.2695 71.271C15.4574 71.3793 15.6045 71.2941 15.6045 71.0929C15.6045 70.8758 15.4568 70.6362 15.2695 70.5274C15.095 70.4271 14.9478 70.4964 14.9478 70.7135C14.9478 70.9147 15.095 71.1701 15.2695 71.271ZM14.7198 72.5789C14.881 72.7802 15.0682 72.8264 15.1625 72.695C15.2561 72.5789 15.2026 72.3156 15.0421 72.1144C14.8943 71.9362 14.6937 71.8821 14.5994 71.9982C14.5186 72.1375 14.5587 72.3928 14.7198 72.5789ZM14.5994 69.0104C14.6931 69.2506 14.8943 69.4287 15.0421 69.405C15.2032 69.3892 15.2567 69.2037 15.1625 68.9636C15.0688 68.7234 14.881 68.5532 14.7198 68.569C14.5587 68.5848 14.5186 68.7939 14.5994 69.0104ZM13.5403 72.9966C13.6205 73.2289 13.8218 73.3912 13.9829 73.3912C14.1306 73.3681 14.1842 73.1669 14.1039 72.9498C14.0103 72.7096 13.809 72.5321 13.6612 72.5552C13.5001 72.571 13.446 72.757 13.5403 72.9966ZM12.3601 72.9504C12.5346 73.0507 12.6817 72.9656 12.6817 72.7643C12.6817 72.5631 12.534 72.3077 12.3601 72.2068C12.1856 72.1064 12.0384 72.191 12.0384 72.3922C12.0384 72.5941 12.1862 72.8501 12.3601 72.9504ZM12.3601 70.9378C13.1779 71.4103 13.8485 71.0229 13.8485 70.0787C13.8485 69.1186 13.1779 67.9731 12.3601 67.5013C11.5423 67.0288 10.8716 67.4003 10.8716 68.3604C10.8722 69.3047 11.5423 70.4654 12.3601 70.9378ZM10.7379 71.5185C10.899 71.7045 11.0996 71.7739 11.1805 71.6346C11.2741 71.5027 11.2206 71.2552 11.0735 71.0619C10.9124 70.8606 10.7117 70.8065 10.6308 70.9457C10.5366 71.0619 10.5907 71.3251 10.7379 71.5185ZM10.6308 65.496C10.7111 65.7125 10.9124 65.8906 11.0735 65.8906C11.2212 65.8675 11.2747 65.6663 11.1805 65.4419C11.1002 65.2096 10.899 65.0315 10.7379 65.0473C10.5907 65.0552 10.5366 65.2564 10.6308 65.496ZM9.55829 69.4591C9.65192 69.6993 9.85318 69.8774 10.0009 69.8537C10.1621 69.8537 10.2156 69.6525 10.1213 69.4123C10.0277 69.1879 9.82643 69.0098 9.67868 69.0177C9.51816 69.0335 9.46404 69.2348 9.55829 69.4591ZM9.45067 67.9111C9.62517 68.0114 9.77232 67.9263 9.77232 67.725C9.77232 67.508 9.62457 67.2684 9.45067 67.1675C9.27617 67.0671 9.12903 67.1364 9.12903 67.3535C9.12903 67.5554 9.27678 67.8108 9.45067 67.9111Z" fill="#E4E4E4"/>
<path d="M10.8721 68.3606C10.8721 69.3049 11.5427 70.4662 12.3605 70.938C13.1783 71.4105 13.849 71.0231 13.849 70.0789C13.849 69.1188 13.1783 67.9733 12.3605 67.5015C11.5421 67.029 10.8721 67.4005 10.8721 68.3606Z" fill="#111111"/>
<path d="M12.0381 65.6743C12.0381 65.8755 12.1858 66.1309 12.3597 66.2318C12.5342 66.3321 12.6814 66.247 12.6814 66.0458C12.6814 65.8293 12.5336 65.5733 12.3597 65.473C12.1858 65.3727 12.0381 65.4578 12.0381 65.6743Z" fill="#111111"/>
<path d="M13.6601 67.3852C13.8078 67.5634 14.0085 67.6175 14.1027 67.5014C14.183 67.3621 14.1295 67.0988 13.9817 66.9207C13.8212 66.7194 13.6199 66.6653 13.5391 66.8046C13.4454 66.9207 13.4996 67.184 13.6601 67.3852Z" fill="#111111"/>
<path d="M14.5991 69.0103C14.6928 69.2505 14.894 69.4286 15.0418 69.4049C15.2029 69.3891 15.2564 69.2037 15.1622 68.9635C15.0685 68.7233 14.8806 68.5531 14.7195 68.5689C14.5584 68.5847 14.5183 68.7938 14.5991 69.0103Z" fill="#111111"/>
<path d="M14.9473 70.7136C14.9473 70.9148 15.095 71.1702 15.2689 71.2711C15.4568 71.3794 15.6039 71.2942 15.6039 71.093C15.6039 70.8759 15.4562 70.6363 15.2689 70.5275C15.0944 70.4272 14.9473 70.4965 14.9473 70.7136Z" fill="#111111"/>
<path d="M14.7195 72.5791C14.8806 72.7803 15.0679 72.8265 15.1622 72.6952C15.2558 72.5791 15.2023 72.3158 15.0418 72.1145C14.894 71.9364 14.6934 71.8823 14.5991 71.9984C14.5183 72.1376 14.5584 72.393 14.7195 72.5791Z" fill="#111111"/>
<path d="M13.5395 72.9967C13.6197 73.2289 13.821 73.3913 13.9821 73.3913C14.1299 73.3682 14.1834 73.1669 14.1031 72.9498C14.0095 72.7097 13.8082 72.5321 13.6605 72.5552C13.4994 72.5711 13.4452 72.7571 13.5395 72.9967Z" fill="#111111"/>
<path d="M12.0381 72.3928C12.0381 72.5941 12.1858 72.8494 12.3597 72.9504C12.5342 73.0507 12.6814 72.9656 12.6814 72.7643C12.6814 72.5631 12.5336 72.3077 12.3597 72.2067C12.1858 72.1064 12.0381 72.1915 12.0381 72.3928Z" fill="#111111"/>
<path d="M10.7379 71.5184C10.899 71.7045 11.0996 71.7738 11.1805 71.6346C11.2741 71.5026 11.2206 71.2552 11.0735 71.0618C10.9124 70.8605 10.7117 70.8064 10.6308 70.9457C10.5366 71.0618 10.5907 71.3251 10.7379 71.5184Z" fill="#111111"/>
<path d="M9.55806 69.4593C9.6517 69.6994 9.85296 69.8776 10.0007 69.8539C10.1618 69.8539 10.2153 69.6526 10.1211 69.4125C10.0275 69.1881 9.82621 69.0099 9.67846 69.0178C9.51794 69.0336 9.46382 69.2349 9.55806 69.4593Z" fill="#111111"/>
<path d="M9.12891 67.3542C9.12891 67.5554 9.27666 67.8108 9.45055 67.9117C9.62506 68.0121 9.7722 67.9269 9.7722 67.7257C9.7722 67.5086 9.62445 67.2691 9.45055 67.1681C9.27666 67.0678 9.12891 67.1371 9.12891 67.3542Z" fill="#111111"/>
<path d="M9.67846 66.3091C9.82621 66.5025 10.0269 66.5566 10.1211 66.4253C10.2147 66.3091 10.1612 66.0458 10.0007 65.8446C9.85296 65.6512 9.65231 65.5971 9.55806 65.7285C9.46382 65.8604 9.51794 66.1079 9.67846 66.3091Z" fill="#111111"/>
<path d="M10.6308 65.4961C10.7111 65.7125 10.9124 65.8907 11.0735 65.8907C11.2212 65.8676 11.2747 65.6663 11.1805 65.442C11.1002 65.2097 10.899 65.0316 10.7379 65.0474C10.5907 65.0553 10.5366 65.2565 10.6308 65.4961Z" fill="#111111"/>
<path d="M3.3291 63.6616L4.58772 64.3912C4.59988 64.0568 4.63028 63.7345 4.67284 63.4305C4.95253 61.4484 5.89497 60.0925 7.25695 59.5088C8.66149 58.7366 10.5768 58.8703 12.6805 60.0864C16.5719 62.33 19.8005 67.5165 20.366 72.1435C20.4268 72.6239 20.4572 73.0921 20.4572 73.5542L21.7097 74.2777L22.0381 74.4662C22.0381 73.2805 21.8739 72.0463 21.5638 70.8059C20.3295 65.7897 16.8151 60.6458 12.6805 58.2623C10.139 56.7909 7.82849 56.6389 6.13818 57.5752C4.66676 58.3839 3.6696 60.0256 3.40206 62.3482C3.35342 62.7684 3.3291 63.2001 3.3291 63.6616Z" fill="#979797"/>
<path d="M3.00684 63.8197L4.58162 64.7318C4.58162 64.6163 4.58162 64.5007 4.5877 64.3913C4.59986 64.0569 4.63026 63.7346 4.67283 63.4306C4.95252 61.4484 5.89496 60.0925 7.25694 59.5088C8.62499 58.9251 10.4126 59.1197 12.3644 60.2445C16.2496 62.4882 19.4783 67.6746 20.0437 72.3017C20.1045 72.782 20.1349 73.2502 20.1349 73.7123L21.7158 74.6244C21.7158 74.5088 21.7158 74.3933 21.7097 74.2778C21.6854 73.1955 21.5212 72.0828 21.2415 70.964C20.0072 65.9478 16.4929 60.8039 12.3644 58.4205C9.97481 57.0402 7.792 56.8213 6.13817 57.5753C4.49042 58.311 3.36557 60.0196 3.0798 62.5064C3.03116 62.9265 3.00684 63.3576 3.00684 63.8197Z" fill="#666666"/>
<path d="M41.9966 79.5134L54.8928 86.9587C56.0936 87.6518 57.0671 86.9161 57.0671 85.3146V82.905C57.0671 81.304 56.0936 79.4435 54.8928 78.7503L41.9966 71.3051C40.7957 70.6119 39.8223 71.3476 39.8223 72.9491V75.3588C39.8223 76.9597 40.7957 78.8203 41.9966 79.5134Z" fill="#111111"/>
<path d="M56.2163 87.1209L51.2286 89.9981L35.5908 74.0611L40.4915 71.2429L56.2163 87.1209Z" fill="#111111"/>
<path d="M36.9429 82.4205L49.8391 89.8658C51.0399 90.5589 52.0134 89.8232 52.0134 88.2217V85.8121C52.0134 84.2105 51.0399 82.3506 49.8391 81.6574L36.9429 74.2115C35.742 73.5184 34.7686 74.2541 34.7686 75.8556V78.2653C34.7679 79.8674 35.742 81.7273 36.9429 82.4205Z" fill="#111111"/>
<path d="M47.8223 88.7018L48.305 88.9808V80.7725L47.8223 80.4934V88.7018Z" fill="#111111"/>
<path d="M43.0176 85.9281L43.5003 86.2066V77.9982L43.0176 77.7197V85.9281Z" fill="#111111"/>
<path d="M38.2129 83.1537L38.6957 83.4327V75.2244L38.2129 74.9453V83.1537Z" fill="#111111"/>
<path d="M58.9668 84.1393L91.3648 65.5021V33.6567L58.9668 52.2939V84.1393Z" fill="#B0B0B0"/>
<path d="M89.785 64.59V36.3928L60.5469 53.2059V81.4031L89.785 64.59Z" fill="#CACACA"/>
<path d="M0.646484 50.4655L58.9635 84.1349V52.2896L0.646484 18.6201V50.4655Z" fill="#7F7F7F"/>
<path d="M57.3842 81.3988V53.2016L2.22656 21.3562V49.5534L57.3842 81.3988Z" fill="#6B6B6B"/>
<path d="M0.65332 18.6257L58.9697 52.2951L91.3641 33.6694L33.0471 0L0.65332 18.6257Z" fill="#CACACA"/>
<path d="M58.9696 50.4709L88.2047 33.6693L33.047 1.82397L3.8125 18.6256L58.9696 50.4709Z" fill="#A0A0A0"/>
<path d="M66.4424 96.0741L62.6343 98.1761L61.0547 97.2641L64.8628 95.1621L66.4424 96.0741Z" fill="#111111"/>
<path d="M64.8623 95.1621L66.442 96.0741C66.442 95.612 66.4736 95.1803 66.5313 94.7699C67.095 90.7904 70.3333 89.3403 74.2192 91.5839C78.1051 93.8275 81.3386 99.0139 81.9016 103.644C81.9594 104.121 81.991 104.59 81.991 105.052L83.5707 105.964C83.5707 104.778 83.4077 103.547 83.097 102.303C81.8645 97.2872 78.3526 92.1463 74.2192 89.7598C69.459 87.0115 65.5153 88.863 64.9359 93.8488C64.8885 94.2653 64.8623 94.7 64.8623 95.1621Z" fill="#111111"/>
<path d="M65.7284 91.9067L65.5253 95.5446L62.4791 96.9953C62.4791 96.9953 62.3459 95.0952 62.4791 94.4507C62.6123 93.8068 65.7284 91.9067 65.7284 91.9067Z" fill="#111111"/>
<path d="M75.6723 91.5901C79.5606 93.8349 82.7108 99.2919 82.7108 103.782C82.7108 108.271 79.56 110.09 75.6723 107.846C71.784 105.601 68.6338 100.144 68.6338 95.6541C68.6338 91.1644 71.784 89.3452 75.6723 91.5901ZM75.6723 104.408C77.9244 105.709 79.7345 104.649 79.7345 102.063C79.7345 99.4622 77.9244 96.3278 75.6723 95.0272C73.4335 93.7346 71.6101 94.7718 71.6101 97.3724C71.6101 99.9577 73.4335 103.116 75.6723 104.408Z" fill="#111111"/>
<path d="M75.6726 95.0273C77.9247 96.3278 79.7348 99.4622 79.7348 102.063C79.7348 104.649 77.9247 105.709 75.6726 104.409C73.4338 103.116 71.6104 99.9577 71.6104 97.3724C71.6104 94.7713 73.4338 93.7346 75.6726 95.0273ZM73.3128 96.343C73.1651 96.1497 72.9644 96.0956 72.8702 96.2269C72.7759 96.3582 72.83 96.6063 72.9912 96.8076C73.1389 97.0009 73.3396 97.055 73.4338 96.9237C73.5275 96.8076 73.474 96.5443 73.3128 96.343ZM75.6726 95.9715C75.4981 95.8712 75.3509 95.9563 75.3509 96.1728C75.3509 96.374 75.4987 96.6294 75.6726 96.7303C75.8471 96.8307 75.9942 96.7455 75.9942 96.5443C75.9942 96.3272 75.8471 96.0719 75.6726 95.9715ZM77.2948 97.4186C77.1337 97.2174 76.933 97.1633 76.8521 97.3025C76.7585 97.4186 76.812 97.6819 76.9731 97.8832C77.1209 98.0613 77.3215 98.1154 77.4158 97.9993C77.496 97.8601 77.4419 97.5968 77.2948 97.4186ZM78.582 101.769C78.7699 101.877 78.917 101.792 78.917 101.591C78.917 101.374 78.7699 101.134 78.582 101.025C78.4075 100.925 78.2603 100.994 78.2603 101.211C78.2603 101.413 78.4075 101.669 78.582 101.769ZM78.0323 103.077C78.1934 103.278 78.3807 103.324 78.475 103.193C78.5686 103.077 78.5151 102.814 78.3546 102.612C78.2068 102.434 78.0062 102.38 77.9119 102.496C77.8311 102.636 77.8712 102.891 78.0323 103.077ZM77.9113 99.509C78.005 99.7492 78.2062 99.9273 78.354 99.9036C78.5145 99.8884 78.5686 99.7024 78.4744 99.4622C78.3807 99.222 78.1928 99.0518 78.0317 99.0676C77.8712 99.0828 77.8311 99.292 77.9113 99.509ZM76.8521 103.495C76.9324 103.728 77.1337 103.89 77.2948 103.89C77.4419 103.867 77.496 103.665 77.4158 103.448C77.3222 103.208 77.1209 103.031 76.9731 103.054C76.812 103.07 76.7585 103.255 76.8521 103.495ZM75.6726 103.448C75.8471 103.549 75.9942 103.464 75.9942 103.262C75.9942 103.061 75.8465 102.806 75.6726 102.705C75.4981 102.604 75.3509 102.689 75.3509 102.89C75.3509 103.092 75.4981 103.348 75.6726 103.448ZM75.6726 101.436C76.4904 101.908 77.161 101.521 77.161 100.577C77.161 99.6167 76.4904 98.4711 75.6726 97.9993C74.8548 97.5269 74.1841 97.8984 74.1841 98.8584C74.1841 99.8027 74.8548 100.964 75.6726 101.436ZM74.0504 102.017C74.2115 102.203 74.4121 102.272 74.493 102.133C74.5866 102.001 74.5331 101.753 74.386 101.56C74.2249 101.359 74.0242 101.305 73.9434 101.444C73.8491 101.56 73.9026 101.823 74.0504 102.017ZM73.9427 95.9946C74.023 96.2111 74.2243 96.3892 74.3854 96.3892C74.5331 96.3661 74.5866 96.1649 74.4924 95.9405C74.4121 95.7083 74.2109 95.5301 74.0498 95.5459C73.9026 95.5532 73.8491 95.7545 73.9427 95.9946ZM72.8702 99.9578C72.9638 100.198 73.1651 100.376 73.3128 100.352C73.474 100.352 73.5275 100.151 73.4332 99.9109C73.3396 99.6866 73.1383 99.5084 72.9906 99.5163C72.8301 99.5321 72.7765 99.7334 72.8702 99.9578ZM72.7632 98.4097C72.9377 98.51 73.0848 98.4249 73.0848 98.2237C73.0848 98.0066 72.9371 97.767 72.7632 97.6661C72.5887 97.5658 72.4415 97.6351 72.4415 97.8522C72.4415 98.0534 72.5887 98.3088 72.7632 98.4097Z" fill="#E4E4E4"/>
<path d="M74.1836 98.8583C74.1836 99.8025 74.8542 100.964 75.672 101.436C76.4898 101.908 77.1605 101.521 77.1605 100.577C77.1605 99.6165 76.4898 98.471 75.672 97.9991C74.8542 97.5273 74.1836 97.8988 74.1836 98.8583Z" fill="#111111"/>
<path d="M75.3506 96.1727C75.3506 96.3739 75.4983 96.6293 75.6722 96.7302C75.8467 96.8305 75.9939 96.7454 75.9939 96.5442C75.9939 96.3277 75.8461 96.0717 75.6722 95.9714C75.4977 95.8705 75.3506 95.9556 75.3506 96.1727Z" fill="#111111"/>
<path d="M76.9727 97.883C77.1205 98.0612 77.3211 98.1153 77.4154 97.9992C77.4956 97.8599 77.4421 97.5967 77.2944 97.4185C77.1332 97.2172 76.9326 97.1631 76.8517 97.3024C76.7581 97.4185 76.8116 97.6818 76.9727 97.883Z" fill="#111111"/>
<path d="M77.9112 99.5089C78.0049 99.749 78.2061 99.9272 78.3539 99.9035C78.5144 99.8883 78.5685 99.7022 78.4743 99.462C78.3806 99.2219 78.1927 99.0516 78.0316 99.0674C77.8711 99.0826 77.831 99.2918 77.9112 99.5089Z" fill="#111111"/>
<path d="M78.2598 101.211C78.2598 101.413 78.4075 101.668 78.5814 101.769C78.7693 101.877 78.9164 101.792 78.9164 101.591C78.9164 101.374 78.7693 101.134 78.5814 101.025C78.4069 100.925 78.2598 100.995 78.2598 101.211Z" fill="#111111"/>
<path d="M78.032 103.077C78.1931 103.278 78.3804 103.324 78.4747 103.193C78.5683 103.077 78.5148 102.814 78.3543 102.612C78.2065 102.434 78.0059 102.38 77.9116 102.496C77.8308 102.636 77.8709 102.891 78.032 103.077Z" fill="#111111"/>
<path d="M76.8517 103.495C76.932 103.727 77.1332 103.89 77.2944 103.89C77.4415 103.867 77.4956 103.665 77.4154 103.448C77.3217 103.208 77.1205 103.031 76.9727 103.054C76.8116 103.07 76.7581 103.255 76.8517 103.495Z" fill="#111111"/>
<path d="M75.3506 102.891C75.3506 103.093 75.4983 103.348 75.6722 103.449C75.8467 103.549 75.9939 103.464 75.9939 103.263C75.9939 103.062 75.8461 102.806 75.6722 102.705C75.4977 102.605 75.3506 102.69 75.3506 102.891Z" fill="#111111"/>
<path d="M74.0505 102.016C74.2116 102.203 74.4123 102.272 74.4931 102.133C74.5868 102.001 74.5333 101.753 74.3861 101.56C74.225 101.359 74.0243 101.304 73.9435 101.444C73.8492 101.56 73.9027 101.823 74.0505 102.016Z" fill="#111111"/>
<path d="M72.8703 99.9578C72.9639 100.198 73.1652 100.376 73.3129 100.352C73.4741 100.352 73.5276 100.151 73.4333 99.911C73.3397 99.6866 73.1384 99.5085 72.9907 99.5164C72.8302 99.5322 72.7767 99.7334 72.8703 99.9578Z" fill="#111111"/>
<path d="M72.4414 97.8521C72.4414 98.0534 72.5885 98.3087 72.763 98.4097C72.9376 98.51 73.0847 98.4249 73.0847 98.2236C73.0847 98.0065 72.9369 97.767 72.763 97.6661C72.5885 97.5657 72.4414 97.6357 72.4414 97.8521Z" fill="#111111"/>
<path d="M72.9911 96.8074C73.1388 97.0008 73.3395 97.0549 73.4337 96.9235C73.5274 96.8074 73.4739 96.5441 73.3133 96.3429C73.1656 96.1495 72.9649 96.0954 72.8707 96.2267C72.7765 96.3581 72.83 96.6062 72.9911 96.8074Z" fill="#111111"/>
<path d="M73.9421 95.9946C74.0223 96.2111 74.2236 96.3892 74.3847 96.3892C74.5325 96.3661 74.586 96.1649 74.4917 95.9405C74.4115 95.7083 74.2102 95.5301 74.0491 95.5459C73.902 95.5532 73.8485 95.7545 73.9421 95.9946Z" fill="#111111"/>
<path d="M75.2163 111.374L81.0497 108.066L79.605 96.3891L70.5302 91.199L65.3438 94.0962L75.2163 111.374Z" fill="#111111"/>
<path d="M70.4096 94.536C74.2979 96.7808 77.4481 102.238 77.4481 106.727C77.4481 111.217 74.2973 113.036 70.4096 110.792C66.5219 108.547 63.3711 103.09 63.3711 98.6C63.3711 94.1097 66.5213 92.2911 70.4096 94.536ZM70.4096 107.354C72.6617 108.654 74.4718 107.594 74.4718 105.009C74.4718 102.407 72.6617 99.2731 70.4096 97.9725C68.1709 96.6799 66.3474 97.7171 66.3474 100.318C66.3474 102.903 68.1709 106.061 70.4096 107.354Z" fill="#111111"/>
<path d="M70.4099 97.9722C72.662 99.2728 74.4721 102.408 74.4721 105.008C74.4721 107.594 72.662 108.654 70.4099 107.353C68.1711 106.061 66.3477 102.903 66.3477 100.317C66.3477 97.7169 68.1711 96.6796 70.4099 97.9722ZM68.0501 99.288C67.9024 99.0946 67.7017 99.0405 67.6075 99.1719C67.5132 99.3032 67.5674 99.5513 67.7285 99.7525C67.8756 99.9459 68.0769 100 68.1711 99.8687C68.2648 99.7525 68.2113 99.4893 68.0501 99.288ZM70.4099 98.9165C70.2354 98.8162 70.0882 98.9013 70.0882 99.1178C70.0882 99.319 70.236 99.5744 70.4099 99.6753C70.5844 99.7756 70.7315 99.6905 70.7315 99.4893C70.7315 99.2728 70.5844 99.0168 70.4099 98.9165ZM72.0321 100.364C71.871 100.163 71.6703 100.109 71.5894 100.248C71.4958 100.364 71.5493 100.627 71.7104 100.829C71.8582 101.007 72.0588 101.061 72.1531 100.945C72.2334 100.806 72.1792 100.542 72.0321 100.364ZM73.3193 104.714C73.5072 104.822 73.6543 104.737 73.6543 104.536C73.6543 104.319 73.5072 104.079 73.3193 103.971C73.1448 103.87 72.9976 103.94 72.9976 104.157C72.9976 104.358 73.1448 104.614 73.3193 104.714ZM72.7696 106.023C72.9301 106.224 73.118 106.27 73.2123 106.139C73.3059 106.022 73.2524 105.759 73.0919 105.558C72.9441 105.38 72.7435 105.326 72.6492 105.442C72.5684 105.581 72.6085 105.836 72.7696 106.023ZM72.6486 102.454C72.7423 102.694 72.9435 102.872 73.0913 102.849C73.2524 102.833 73.3059 102.647 73.2117 102.407C73.118 102.167 72.9301 101.997 72.769 102.013C72.6085 102.028 72.5684 102.238 72.6486 102.454ZM71.5894 106.44C71.6697 106.672 71.871 106.835 72.0321 106.835C72.1792 106.812 72.2334 106.61 72.1531 106.393C72.0595 106.153 71.8582 105.976 71.7104 105.999C71.5493 106.015 71.4958 106.201 71.5894 106.44ZM70.4099 106.394C70.5844 106.494 70.7315 106.409 70.7315 106.208C70.7315 106.007 70.5838 105.751 70.4099 105.65C70.2354 105.55 70.0882 105.635 70.0882 105.836C70.0882 106.038 70.2354 106.293 70.4099 106.394ZM70.4099 104.381C71.2277 104.853 71.8983 104.467 71.8983 103.522C71.8983 102.562 71.2277 101.417 70.4099 100.945C69.5921 100.472 68.9214 100.844 68.9214 101.804C68.9214 102.748 69.5921 103.909 70.4099 104.381ZM68.7877 104.962C68.9488 105.148 69.1494 105.217 69.2303 105.078C69.3239 104.946 69.2704 104.699 69.1233 104.505C68.9622 104.304 68.7615 104.25 68.6807 104.389C68.5864 104.505 68.6399 104.768 68.7877 104.962ZM68.6807 98.9396C68.7609 99.1561 68.9622 99.3342 69.1233 99.3342C69.271 99.3111 69.3245 99.1099 69.2303 98.8855C69.15 98.6532 68.9488 98.4751 68.7877 98.4909C68.6399 98.4988 68.5864 98.7 68.6807 98.9396ZM67.6075 102.903C67.7011 103.143 67.9024 103.321 68.0501 103.297C68.2113 103.297 68.2648 103.096 68.1705 102.856C68.0769 102.632 67.8756 102.453 67.7279 102.461C67.5674 102.477 67.5139 102.678 67.6075 102.903ZM67.5005 101.355C67.675 101.456 67.8221 101.37 67.8221 101.169C67.8221 100.952 67.6744 100.712 67.5005 100.611C67.326 100.511 67.1788 100.58 67.1788 100.797C67.1788 100.999 67.326 101.254 67.5005 101.355Z" fill="#E4E4E4"/>
<path d="M68.9209 101.804C68.9209 102.748 69.5915 103.91 70.4093 104.382C71.2271 104.853 71.8978 104.467 71.8978 103.522C71.8978 102.562 71.2271 101.417 70.4093 100.945C69.5915 100.473 68.9209 100.844 68.9209 101.804Z" fill="#111111"/>
<path d="M70.0879 99.1181C70.0879 99.3194 70.2356 99.5747 70.4095 99.6757C70.584 99.776 70.7312 99.6909 70.7312 99.4896C70.7312 99.2731 70.5834 99.0172 70.4095 98.9168C70.235 98.8165 70.0879 98.9016 70.0879 99.1181Z" fill="#111111"/>
<path d="M71.71 100.829C71.8578 101.007 72.0584 101.061 72.1527 100.945C72.2329 100.806 72.1794 100.543 72.0317 100.365C71.8705 100.163 71.6699 100.109 71.589 100.248C71.4954 100.365 71.5489 100.628 71.71 100.829Z" fill="#111111"/>
<path d="M72.6485 102.454C72.7422 102.694 72.9434 102.872 73.0912 102.849C73.2523 102.833 73.3058 102.648 73.2116 102.407C73.1179 102.167 72.93 101.997 72.7689 102.013C72.6084 102.029 72.5683 102.238 72.6485 102.454Z" fill="#111111"/>
<path d="M72.9971 104.157C72.9971 104.358 73.1448 104.614 73.3187 104.715C73.5066 104.823 73.6537 104.738 73.6537 104.537C73.6537 104.32 73.5066 104.08 73.3187 103.972C73.1442 103.871 72.9971 103.94 72.9971 104.157Z" fill="#111111"/>
<path d="M72.7693 106.023C72.9298 106.224 73.1177 106.27 73.212 106.139C73.3056 106.023 73.2521 105.759 73.0916 105.558C72.9438 105.38 72.7432 105.326 72.6489 105.442C72.5681 105.581 72.6082 105.837 72.7693 106.023Z" fill="#111111"/>
<path d="M71.589 106.44C71.6693 106.673 71.8705 106.835 72.0317 106.835C72.1788 106.812 72.2329 106.611 72.1527 106.393C72.059 106.153 71.8578 105.976 71.71 105.999C71.5489 106.015 71.4954 106.201 71.589 106.44Z" fill="#111111"/>
<path d="M70.0879 105.837C70.0879 106.038 70.2356 106.293 70.4095 106.394C70.584 106.495 70.7312 106.409 70.7312 106.208C70.7312 106.007 70.5834 105.752 70.4095 105.651C70.235 105.55 70.0879 105.635 70.0879 105.837Z" fill="#111111"/>
<path d="M68.7878 104.962C68.9489 105.148 69.1496 105.218 69.2304 105.078C69.3241 104.946 69.2706 104.699 69.1234 104.506C68.9623 104.304 68.7616 104.25 68.6808 104.39C68.5865 104.506 68.64 104.768 68.7878 104.962Z" fill="#111111"/>
<path d="M67.6076 102.903C67.7012 103.143 67.9025 103.321 68.0502 103.297C68.2114 103.297 68.2649 103.096 68.1706 102.856C68.077 102.632 67.8757 102.454 67.728 102.461C67.5675 102.477 67.514 102.679 67.6076 102.903Z" fill="#111111"/>
<path d="M67.1787 100.798C67.1787 100.999 67.3258 101.255 67.5004 101.356C67.6749 101.457 67.822 101.371 67.822 101.17C67.822 100.952 67.6742 100.713 67.5004 100.612C67.3258 100.511 67.1787 100.581 67.1787 100.798Z" fill="#111111"/>
<path d="M67.7284 99.7527C67.8755 99.9461 68.0768 100 68.171 99.8689C68.2647 99.7527 68.2112 99.4894 68.0506 99.2882C67.9029 99.0948 67.7022 99.0407 67.608 99.1721C67.5138 99.3034 67.5673 99.5515 67.7284 99.7527Z" fill="#111111"/>
<path d="M68.6808 98.9399C68.761 99.1564 68.9623 99.3346 69.1234 99.3346C69.2712 99.3115 69.3247 99.1102 69.2304 98.8858C69.1502 98.6536 68.9489 98.4754 68.7878 98.4912C68.64 98.4991 68.5865 98.7004 68.6808 98.9399Z" fill="#111111"/>
<path d="M79.7636 108.066L83.5716 105.964C83.5716 105.964 83.8331 102.281 81.3092 97.621C77.4525 90.5004 73.0558 88.9354 71.0907 88.5754C68.6337 88.1255 67.1786 89.3926 67.1786 89.3926L63.5889 91.3419C63.5889 91.3419 67.2163 90.5132 70.206 92.9197C73.1957 95.3263 76.8621 98.5817 77.7048 101.637C78.5475 104.693 79.7636 108.066 79.7636 108.066Z" fill="#4E4E4E"/>
<path d="M61.0547 97.2642L62.6343 98.1762C62.6343 97.7141 62.666 97.2824 62.7237 96.872C63.2874 92.8924 66.5257 91.4423 70.4116 93.6859C74.2975 95.9295 77.531 101.116 78.094 105.746C78.1518 106.223 78.1834 106.692 78.1834 107.154L79.763 108.066C79.763 106.88 79.6001 105.649 79.2894 104.405C78.0569 99.3892 74.545 94.2483 70.4116 91.8618C65.6514 89.1136 61.7077 90.965 61.1283 95.9508C61.0808 96.3673 61.0547 96.8021 61.0547 97.2642Z" fill="#666666"/>
<path d="M88.742 96.757V109.744L78.5217 103.844C77.9581 99.2134 74.7197 94.0239 70.8338 91.7803C66.9479 89.5367 63.7145 90.9899 63.1514 94.9694L61.9561 94.2793V64.3705C61.9561 63.343 62.6772 62.9204 63.5673 63.4342L83.2187 74.7799C84.4402 75.4852 85.5092 77.0691 85.804 78.6074L86.046 79.8721L88.1577 90.8197C88.5469 92.8748 88.742 94.8661 88.742 96.757Z" fill="#1600DB"/>
<path d="M66.8487 78.5192L64.6622 77.257C64.3661 77.0861 64.126 76.6277 64.126 76.2331V67.9341C64.126 67.5395 64.3661 67.3583 64.6622 67.5292L66.8487 68.7914C67.1448 68.9623 67.385 69.4207 67.385 69.8154V78.1143C67.385 78.5089 67.1448 78.6901 66.8487 78.5192Z" stroke="#111111" stroke-width="0.25" stroke-miterlimit="10"/>
<path d="M64.3906 76.4076V68.0631C64.3906 67.8497 64.5214 67.7505 64.6819 67.843L66.8312 69.0839C66.9912 69.1764 67.1225 69.4263 67.1225 69.6397V77.9842C67.1225 78.1976 66.9918 78.2968 66.8312 78.2043L64.6819 76.9634C64.522 76.8709 64.3906 76.621 64.3906 76.4076Z" fill="#C2DAF0"/>
<path d="M83.7782 90.3448L81.4257 88.9865C80.8019 88.6265 80.1823 88.1535 79.5907 87.585L76.0137 84.1515C75.4215 83.5836 74.8025 83.1099 74.1787 82.75L70.8224 80.8122C70.5056 80.6292 70.249 80.1853 70.249 79.8193V71.4145C70.249 71.0491 70.5056 70.9008 70.8224 71.0838L82.1134 77.6024C82.3901 77.7623 82.6272 78.1272 82.6771 78.4701L84.3425 89.8882C84.4063 90.3327 84.1363 90.5516 83.7782 90.3448Z" stroke="#111111" stroke-width="0.25" stroke-miterlimit="10"/>
<path d="M81.4252 88.6824C80.8275 88.3376 80.2383 87.8871 79.6728 87.3441L76.0958 83.9112C75.4769 83.3171 74.8317 82.824 74.1775 82.4465L70.8212 80.5087C70.6503 80.4102 70.5117 80.1694 70.5117 79.9724V71.5671C70.5117 71.3701 70.6503 71.2898 70.8212 71.3883L82.1122 77.9075C82.2618 77.9939 82.3901 78.1909 82.4169 78.3763L84.0816 89.7951C84.0987 89.9094 84.0743 90.0024 84.0154 90.0504C83.9564 90.0985 83.8694 90.0948 83.777 90.0419L81.4252 88.6824Z" fill="#C2DAF0"/>
<path d="M86.7485 96.9053L87.9305 97.5876C88.0825 97.6751 88.2053 97.5821 88.2053 97.3796V97.2769C88.2053 97.0744 88.0825 96.8391 87.9305 96.7515L86.7485 96.0693C86.5965 95.9818 86.4736 96.0748 86.4736 96.2773V96.38C86.4736 96.5819 86.5971 96.8172 86.7485 96.9053Z" fill="#DE912F"/>
<path d="M69.3926 86.8923V70.0943C69.3926 69.7028 69.6674 69.5441 70.0067 69.7399L82.7467 77.0952C83.0385 77.2636 83.2902 77.646 83.3486 78.0096L85.6342 92.2526V103.058C85.6342 103.449 85.3593 103.608 85.0201 103.412L80.6721 100.902C80.4082 100.749 80.1729 100.423 80.0914 100.086C79.8537 99.1033 79.0353 96.7727 76.2383 93.0978C74.2841 90.5301 71.2945 88.6787 70.0122 87.9581C69.6698 87.766 69.3926 87.2875 69.3926 86.8923Z" stroke="#1600DB" stroke-width="0.25" stroke-miterlimit="10"/>
<path d="M80.0888 107.91L79.7665 108.068L79.4941 107.431L80.0888 107.91Z" fill="#979797"/>
<path d="M66.4424 96.0741L62.6343 98.1761L61.0547 97.2641L64.8628 95.1621L66.4424 96.0741Z" fill="#111111"/>
<path d="M65.7284 91.9067L65.5253 95.5446L62.4791 96.9953C62.4791 96.9953 62.3459 95.0952 62.4791 94.4507C62.6123 93.8068 65.7284 91.9067 65.7284 91.9067Z" fill="#111111"/>
<path d="M70.4096 94.5357C74.2979 96.7806 77.4481 102.238 77.4481 106.727C77.4481 111.217 74.2973 113.036 70.4096 110.791C66.5219 108.547 63.3711 103.089 63.3711 98.5998C63.3711 94.1095 66.5213 92.2909 70.4096 94.5357ZM70.4096 107.354C72.6617 108.654 74.4718 107.594 74.4718 105.008C74.4718 102.407 72.6617 99.2728 70.4096 97.9723C68.1709 96.6796 66.3474 97.7169 66.3474 100.317C66.3474 102.903 68.1709 106.061 70.4096 107.354Z" fill="#111111"/>
<path d="M70.4099 97.9722C72.662 99.2728 74.4721 102.408 74.4721 105.008C74.4721 107.594 72.662 108.654 70.4099 107.353C68.1711 106.061 66.3477 102.903 66.3477 100.317C66.3477 97.7169 68.1711 96.6796 70.4099 97.9722ZM68.0501 99.288C67.9024 99.0946 67.7017 99.0405 67.6075 99.1719C67.5132 99.3032 67.5674 99.5513 67.7285 99.7525C67.8756 99.9459 68.0769 100 68.1711 99.8687C68.2648 99.7525 68.2113 99.4893 68.0501 99.288ZM70.4099 98.9165C70.2354 98.8162 70.0882 98.9013 70.0882 99.1178C70.0882 99.319 70.236 99.5744 70.4099 99.6753C70.5844 99.7756 70.7315 99.6905 70.7315 99.4893C70.7315 99.2728 70.5844 99.0168 70.4099 98.9165ZM72.0321 100.364C71.871 100.163 71.6703 100.109 71.5894 100.248C71.4958 100.364 71.5493 100.627 71.7104 100.829C71.8582 101.007 72.0588 101.061 72.1531 100.945C72.2334 100.806 72.1792 100.542 72.0321 100.364ZM73.3193 104.714C73.5072 104.822 73.6543 104.737 73.6543 104.536C73.6543 104.319 73.5072 104.079 73.3193 103.971C73.1448 103.87 72.9976 103.94 72.9976 104.157C72.9976 104.358 73.1448 104.614 73.3193 104.714ZM72.7696 106.023C72.9301 106.224 73.118 106.27 73.2123 106.139C73.3059 106.022 73.2524 105.759 73.0919 105.558C72.9441 105.38 72.7435 105.326 72.6492 105.442C72.5684 105.581 72.6085 105.836 72.7696 106.023ZM72.6486 102.454C72.7423 102.694 72.9435 102.872 73.0913 102.849C73.2524 102.833 73.3059 102.647 73.2117 102.407C73.118 102.167 72.9301 101.997 72.769 102.013C72.6085 102.028 72.5684 102.238 72.6486 102.454ZM71.5894 106.44C71.6697 106.672 71.871 106.835 72.0321 106.835C72.1792 106.812 72.2334 106.61 72.1531 106.393C72.0595 106.153 71.8582 105.976 71.7104 105.999C71.5493 106.015 71.4958 106.201 71.5894 106.44ZM70.4099 106.394C70.5844 106.494 70.7315 106.409 70.7315 106.208C70.7315 106.007 70.5838 105.751 70.4099 105.65C70.2354 105.55 70.0882 105.635 70.0882 105.836C70.0882 106.038 70.2354 106.293 70.4099 106.394ZM70.4099 104.381C71.2277 104.853 71.8983 104.467 71.8983 103.522C71.8983 102.562 71.2277 101.417 70.4099 100.945C69.5921 100.472 68.9214 100.844 68.9214 101.804C68.9214 102.748 69.5921 103.909 70.4099 104.381ZM68.7877 104.962C68.9488 105.148 69.1494 105.217 69.2303 105.078C69.3239 104.946 69.2704 104.699 69.1233 104.505C68.9622 104.304 68.7615 104.25 68.6807 104.389C68.5864 104.505 68.6399 104.768 68.7877 104.962ZM68.6807 98.9396C68.7609 99.1561 68.9622 99.3342 69.1233 99.3342C69.271 99.3111 69.3245 99.1099 69.2303 98.8855C69.15 98.6532 68.9488 98.4751 68.7877 98.4909C68.6399 98.4988 68.5864 98.7 68.6807 98.9396ZM67.6075 102.903C67.7011 103.143 67.9024 103.321 68.0501 103.297C68.2113 103.297 68.2648 103.096 68.1705 102.856C68.0769 102.632 67.8756 102.453 67.7279 102.461C67.5674 102.477 67.5139 102.678 67.6075 102.903ZM67.5005 101.355C67.675 101.456 67.8221 101.37 67.8221 101.169C67.8221 100.952 67.6744 100.712 67.5005 100.611C67.326 100.511 67.1788 100.58 67.1788 100.797C67.1788 100.999 67.326 101.254 67.5005 101.355Z" fill="#E4E4E4"/>
<path d="M68.9209 101.804C68.9209 102.748 69.5915 103.91 70.4093 104.381C71.2271 104.853 71.8978 104.467 71.8978 103.522C71.8978 102.562 71.2271 101.417 70.4093 100.945C69.5915 100.472 68.9209 100.844 68.9209 101.804Z" fill="#111111"/>
<path d="M70.0879 99.1179C70.0879 99.3191 70.2356 99.5745 70.4095 99.6754C70.584 99.7757 70.7312 99.6906 70.7312 99.4894C70.7312 99.2729 70.5834 99.0169 70.4095 98.9166C70.235 98.8163 70.0879 98.9014 70.0879 99.1179Z" fill="#111111"/>
<path d="M71.71 100.829C71.8578 101.007 72.0584 101.061 72.1527 100.945C72.2329 100.806 72.1794 100.542 72.0317 100.364C71.8705 100.163 71.6699 100.109 71.589 100.248C71.4954 100.364 71.5489 100.628 71.71 100.829Z" fill="#111111"/>
<path d="M72.6485 102.454C72.7422 102.694 72.9434 102.872 73.0912 102.849C73.2523 102.833 73.3058 102.647 73.2116 102.407C73.1179 102.167 72.93 101.997 72.7689 102.012C72.6084 102.028 72.5683 102.237 72.6485 102.454Z" fill="#111111"/>
<path d="M72.9971 104.157C72.9971 104.358 73.1448 104.614 73.3187 104.715C73.5066 104.823 73.6537 104.738 73.6537 104.536C73.6537 104.32 73.5066 104.08 73.3187 103.972C73.1442 103.871 72.9971 103.94 72.9971 104.157Z" fill="#111111"/>
<path d="M72.7693 106.022C72.9298 106.224 73.1177 106.27 73.212 106.139C73.3056 106.022 73.2521 105.759 73.0916 105.558C72.9438 105.38 72.7432 105.326 72.6489 105.442C72.5681 105.581 72.6082 105.836 72.7693 106.022Z" fill="#111111"/>
<path d="M71.589 106.44C71.6693 106.673 71.8705 106.835 72.0317 106.835C72.1788 106.812 72.2329 106.611 72.1527 106.393C72.059 106.153 71.8578 105.976 71.71 105.999C71.5489 106.015 71.4954 106.201 71.589 106.44Z" fill="#111111"/>
<path d="M70.0879 105.837C70.0879 106.038 70.2356 106.293 70.4095 106.394C70.584 106.495 70.7312 106.409 70.7312 106.208C70.7312 106.007 70.5834 105.752 70.4095 105.651C70.235 105.55 70.0879 105.635 70.0879 105.837Z" fill="#111111"/>
<path d="M68.7878 104.962C68.9489 105.148 69.1496 105.217 69.2304 105.078C69.3241 104.946 69.2706 104.699 69.1234 104.505C68.9623 104.304 68.7616 104.25 68.6808 104.389C68.5865 104.505 68.64 104.768 68.7878 104.962Z" fill="#111111"/>
<path d="M67.6076 102.903C67.7012 103.143 67.9025 103.321 68.0502 103.297C68.2114 103.297 68.2649 103.096 68.1706 102.856C68.077 102.631 67.8757 102.453 67.728 102.461C67.5675 102.477 67.514 102.678 67.6076 102.903Z" fill="#111111"/>
<path d="M67.1787 100.798C67.1787 100.999 67.3258 101.254 67.5004 101.355C67.6749 101.456 67.822 101.371 67.822 101.169C67.822 100.952 67.6742 100.713 67.5004 100.612C67.3258 100.511 67.1787 100.581 67.1787 100.798Z" fill="#111111"/>
<path d="M67.7284 99.7525C67.8755 99.9458 68.0768 99.9999 68.171 99.8686C68.2647 99.7525 68.2112 99.4892 68.0506 99.2879C67.9029 99.0946 67.7022 99.0405 67.608 99.1718C67.5138 99.3031 67.5673 99.5512 67.7284 99.7525Z" fill="#111111"/>
<path d="M68.6808 98.9397C68.761 99.1562 68.9623 99.3343 69.1234 99.3343C69.2712 99.3112 69.3247 99.1099 69.2304 98.8856C69.1502 98.6533 68.9489 98.4752 68.7878 98.491C68.64 98.4989 68.5865 98.7001 68.6808 98.9397Z" fill="#111111"/>
<path d="M61.3789 97.1052L62.6375 97.8348C62.6497 97.5004 62.6801 97.1781 62.7226 96.8741C63.0023 94.892 63.9448 93.5361 65.3068 92.9524C66.7113 92.1802 68.6266 92.3139 70.7303 93.53C74.6217 95.7736 77.8503 100.96 78.4158 105.587C78.4766 106.067 78.507 106.536 78.507 106.998L79.7595 107.721L80.0879 107.91C80.0879 106.724 79.9237 105.49 79.6136 104.249C78.3793 99.2333 74.8649 94.0894 70.7303 91.7059C68.1888 90.2345 65.8783 90.0825 64.188 91.0188C62.7166 91.8275 61.7194 93.4692 61.4519 95.7918C61.4032 96.2114 61.3789 96.6431 61.3789 97.1052Z" fill="#979797"/>
<path d="M61.0566 97.2633L62.6314 98.1754C62.6314 98.0599 62.6314 97.9443 62.6375 97.8349C62.6497 97.5005 62.6801 97.1782 62.7226 96.8742C63.0023 94.892 63.9448 93.5361 65.3067 92.9524C66.6748 92.3687 68.4624 92.5633 70.4142 93.6881C74.2994 95.9318 77.5281 101.118 78.0935 105.745C78.1543 106.226 78.1847 106.694 78.1847 107.156L79.7656 108.068C79.7656 107.952 79.7656 107.837 79.7595 107.721C79.7352 106.639 79.571 105.526 79.2913 104.408C78.0571 99.3914 74.5427 94.2475 70.4142 91.8641C68.0246 90.4839 65.8418 90.265 64.188 91.0189C62.5402 91.7546 61.4154 93.4632 61.1296 95.95C61.081 96.3695 61.0566 96.8012 61.0566 97.2633Z" fill="#666666"/>
<path d="M120.009 78.768V91.7554L109.788 85.8546C109.225 81.2244 105.986 76.0349 102.1 73.7913C98.2145 71.5477 94.9811 73.0009 94.418 76.9804L93.2227 76.2903V46.3815C93.2227 45.3539 93.9438 44.9314 94.8339 45.4452L114.485 56.7909C115.707 57.4962 116.776 59.0801 117.071 60.6184L117.313 61.8831L119.424 72.8306C119.815 74.8858 120.009 76.8771 120.009 78.768Z" fill="#1600DB"/>
<path d="M98.1176 60.5302L95.9312 59.268C95.6351 59.0971 95.3955 58.6387 95.3955 58.244V49.9451C95.3955 49.5505 95.6357 49.3693 95.9312 49.5402L98.1176 50.8024C98.4138 50.9733 98.6539 51.4317 98.6539 51.8263V60.1253C98.6533 60.5199 98.4138 60.7011 98.1176 60.5302Z" stroke="#111111" stroke-width="0.25" stroke-miterlimit="10"/>
<path d="M95.6582 58.4186V50.0741C95.6582 49.8606 95.7889 49.7615 95.9494 49.854L98.0988 51.0949C98.2587 51.1873 98.3894 51.4372 98.3894 51.6507V59.9952C98.3894 60.2086 98.2587 60.3077 98.0988 60.2153L95.9494 58.9743C95.7889 58.8819 95.6582 58.632 95.6582 58.4186Z" fill="#C2DAF0"/>
<path d="M115.045 72.3558L112.693 70.9975C112.069 70.6375 111.45 70.1645 110.858 69.596L107.281 66.1625C106.688 65.5946 106.069 65.1209 105.446 64.761L102.089 62.8232C101.773 62.6402 101.517 62.1963 101.517 61.8303V53.4255C101.517 53.0601 101.773 52.9117 102.089 53.0948L113.38 59.6134C113.657 59.7733 113.894 60.1381 113.944 60.4811L115.609 71.8992C115.674 72.3443 115.403 72.5625 115.045 72.3558Z" stroke="#111111" stroke-width="0.25" stroke-miterlimit="10"/>
<path d="M112.693 70.6934C112.095 70.3486 111.506 69.8981 110.94 69.3551L107.363 65.9222C106.745 65.3281 106.099 64.835 105.445 64.4574L102.089 62.5197C101.918 62.4212 101.779 62.1804 101.779 61.9834V53.578C101.779 53.381 101.918 53.3008 102.089 53.3993L113.38 59.9185C113.529 60.0049 113.658 60.2019 113.684 60.3867L115.349 71.8054C115.366 71.9198 115.342 72.0128 115.283 72.0602C115.224 72.1082 115.137 72.1046 115.045 72.0517L112.693 70.6934Z" fill="#C2DAF0"/>
<path d="M119.425 72.8306L118.213 72.1307C117.943 71.9745 117.709 71.623 117.651 71.285L116.041 61.9572C115.962 61.4964 116.235 61.2605 116.604 61.4733L117.313 61.8831" stroke="#111111" stroke-width="0.25" stroke-miterlimit="10"/>
<path d="M119.359 72.4882L118.213 71.8267C118.067 71.7428 117.939 71.55 117.908 71.3682L116.299 62.0399C116.278 61.9214 116.3 61.8235 116.361 61.7718C116.42 61.7207 116.509 61.7225 116.604 61.7779L117.371 62.2205L119.359 72.4882Z" fill="#C2DAF0"/>
<path d="M118.016 78.9163L119.198 79.5985C119.35 79.6861 119.473 79.5931 119.473 79.3906V79.2878C119.473 79.0854 119.35 78.8501 119.198 78.7625L118.016 78.0803C117.864 77.9927 117.741 78.0858 117.741 78.2882V78.391C117.741 78.5935 117.864 78.8282 118.016 78.9163Z" fill="#DE912F"/>
<path d="M100.66 68.9033V52.1053C100.66 51.7138 100.935 51.5551 101.274 51.7509L114.014 59.1061C114.306 59.2746 114.557 59.657 114.616 60.0206L116.902 74.2636V85.0689C116.902 85.4604 116.627 85.6191 116.288 85.4233L111.94 82.9128C111.676 82.7602 111.44 82.4337 111.359 82.0968C111.121 81.1143 110.303 78.7837 107.506 75.1088C105.552 72.5411 102.562 70.6902 101.28 69.9691C100.937 69.777 100.66 69.2985 100.66 68.9033Z" stroke="#1600DB" stroke-width="0.25" stroke-miterlimit="10"/>
<path d="M85.4747 109.93L88.5981 111.734C89.5157 112.263 90.2593 111.701 90.2593 110.478V107.536C90.2593 106.313 89.5157 104.891 88.5981 104.362L85.4747 102.558C84.891 102.221 84.418 102.579 84.418 103.357V107.912C84.4186 108.69 84.8916 109.594 85.4747 109.93Z" fill="#111111"/>
<path d="M88.7515 104.061L119.951 86.0485C119.951 86.0485 120.283 77.533 119.676 74.7781L88.4463 92.592C89.0075 96.4214 88.7515 104.061 88.7515 104.061Z" fill="#1600DB"/>
<path d="M89.8856 112.516L87.9551 111.283L88.1503 109.423L90.4559 110.765L89.8856 112.516Z" fill="#111111"/>
<path d="M88.5252 111.26L120.242 92.9484C120.699 92.6845 121.069 91.9773 121.069 91.3681V86.5051C121.069 85.8965 120.699 85.6162 120.242 85.8801L88.5252 104.192C88.0685 104.456 87.6982 105.163 87.6982 105.772V110.635C87.6982 111.244 88.0685 111.524 88.5252 111.26Z" fill="#111111"/>
<path d="M90.4558 112.493L122.173 94.1813C122.63 93.9174 123 93.2103 123 92.601V87.738C123 87.1294 122.63 86.8491 122.173 87.113L90.4558 105.425C89.9992 105.689 89.6289 106.396 89.6289 107.005V111.868C89.6289 112.477 89.9992 112.756 90.4558 112.493Z" fill="#111111"/>
<path d="M99.1738 105.097C99.2529 105.467 99.5326 105.607 99.867 105.413L113.973 97.2712C114.362 97.0402 114.685 96.4321 114.685 95.9032V94.1642C114.685 93.6778 114.411 93.4285 114.058 93.5805C114.077 93.6474 114.083 93.7203 114.083 93.8055V95.5505C114.083 96.0795 113.76 96.6875 113.365 96.9186L99.265 105.06C99.2346 105.078 99.2042 105.09 99.1738 105.097Z" fill="#4E4E4E"/>
<path d="M99.1494 103.133V104.872C99.1494 104.957 99.1555 105.03 99.1737 105.097C99.2041 105.09 99.2345 105.078 99.2649 105.06L113.365 96.9186C113.76 96.6876 114.083 96.0795 114.083 95.5506V93.8055C114.083 93.7204 114.076 93.6474 114.058 93.5806C114.028 93.5927 114.003 93.6049 113.973 93.6231L99.8669 101.765C99.4717 101.996 99.1494 102.604 99.1494 103.133Z" fill="#111111"/>
<path d="M97.8047 97.3651L111.007 89.7429C111.39 89.5216 111.701 88.9275 111.701 88.4168V86.6706C111.701 86.1592 111.39 85.9245 111.007 86.1458L97.8047 93.768C97.4211 93.9894 97.1104 94.5834 97.1104 95.0947V96.841C97.111 97.3517 97.4217 97.5864 97.8047 97.3651Z" fill="#111111" stroke="#111111" stroke-width="0.5" stroke-miterlimit="10"/>
<path d="M111.702 87.0303L97.1113 95.4539" stroke="#111111" stroke-width="0.5" stroke-miterlimit="10"/>
<path d="M111.702 88.1448L97.1113 96.569" stroke="#111111" stroke-width="0.5" stroke-miterlimit="10"/>
<path d="M122.609 87.0303L120.63 85.7808L88.5254 104.192L90.4565 105.425L122.609 87.0303Z" fill="#666666"/>
<path d="M87.9561 103.274L94.7757 99.3375V95.3318L87.9561 99.2688V103.274Z" fill="#DAE3F5"/>
<path d="M88.6396 103.705L95.4593 99.7679V95.7622L88.6396 99.6992V103.705Z" fill="#C2DAF0"/>
<path d="M95.4597 95.7623L94.7757 95.3318L87.9561 99.2688L88.6401 99.6992L95.4597 95.7623Z" fill="#DAE3F5"/>
<path d="M88.6401 103.705V99.6993L87.9561 99.2688V103.274L88.6401 103.705Z" fill="#B6CAEC"/>
<path d="M112.771 88.5285L119.59 84.5909V80.5852L112.771 84.5228V88.5285Z" fill="#DAE3F5"/>
<path d="M113.454 88.959L120.273 85.022V81.0164L113.454 84.9533V88.959Z" fill="#C2DAF0"/>
<path d="M120.274 81.0163L119.59 80.5852L112.771 84.5228L113.455 84.9533L120.274 81.0163Z" fill="#DAE3F5"/>
<path d="M113.455 88.9591V84.9534L112.771 84.5229V88.5286L113.455 88.9591Z" fill="#B6CAEC"/>
<path d="M93.7193 45.2262L62.3105 63.2195L84.3503 75.7327L115.619 57.743C115.619 57.743 115.402 57.3199 113.782 56.3841C112.161 55.4484 95.8152 46.0112 95.3951 45.7686C94.9743 45.526 94.1206 44.997 93.7193 45.2262Z" fill="#4D3AF9"/>
<path d="M115.619 57.7437L84.3506 75.7333L88.4463 92.5933L119.734 74.7459C119.502 72.9133 117.259 61.5475 117.071 60.619C116.711 58.8345 115.619 57.7437 115.619 57.7437Z" fill="#1600DB"/>
<path d="M89.2169 90.3671L117.262 74.1754C117.77 73.8823 118.181 73.0961 118.181 72.42L116.088 62.5396C116.088 61.8629 115.676 61.5522 115.169 61.8452L87.0135 78.2796C86.5058 78.5726 86.0947 79.3588 86.0947 80.0349L88.2982 89.6727C88.2982 90.3489 88.7092 90.6596 89.2169 90.3671Z" stroke="#111111" stroke-width="0.25" stroke-miterlimit="10"/>
<path d="M117.918 72.594L115.825 62.6686C115.825 62.1743 115.522 61.945 115.151 62.1591L87.0321 78.5721C86.6618 78.7862 86.3584 79.3656 86.3584 79.8593L88.5619 89.5421C88.5619 90.0365 88.8653 90.2657 89.2356 90.0517L117.244 73.8812C117.615 73.6672 117.918 73.0884 117.918 72.594Z" fill="#C2DAF0"/>
<path d="M85.6362 90.4857L85.1553 90.7514V88.9905L85.6362 88.7224V90.4857Z" fill="#111111"/>
<path d="M85.0917 88.6489L85.6365 88.7225L85.1556 88.9906L84.8516 88.8873L85.0917 88.6489Z" fill="#979797"/>
<path d="M82.2477 85.0316L84.0408 83.9961C84.2068 83.9007 84.3576 83.8903 84.4798 83.9438L84.4822 83.9402L85.024 84.2424L84.8318 84.5738L84.7674 84.5415C84.7674 84.5427 84.768 84.544 84.768 84.5452V90.7695C84.768 91.3052 84.4421 91.9272 84.0408 92.1595L82.5116 93.0423L82.615 93.0983L82.3073 93.533L81.7984 93.2466L81.8002 93.2424C81.6312 93.1621 81.5205 92.9542 81.5205 92.6447V86.4203C81.5205 85.8853 81.8458 85.2632 82.2477 85.0316Z" fill="#666666"/>
<path d="M82.7672 93.487L84.5603 92.4515C84.9622 92.2199 85.2875 91.5972 85.2875 91.0616V84.8378C85.2875 84.3021 84.9616 84.0559 84.5603 84.2882L82.7672 85.3236C82.3653 85.5553 82.04 86.1779 82.04 86.7136V92.9379C82.04 93.4724 82.3659 93.7186 82.7672 93.487Z" fill="#111111"/>
</svg>
