<svg width="127" height="108" viewBox="0 0 127 108" fill="none" xmlns="http://www.w3.org/2000/svg">
<path d="M99.5518 47.8538L104.934 54.2666L107.487 52.435L106.108 50.5564L99.5518 47.8538Z" fill="#BFBEB8"/>
<path d="M54.2554 18.5862L53.3252 20.9844L107.488 52.4348L109.485 49.9442L54.2554 18.5862Z" fill="#B1B1B1"/>
<path d="M108.861 48.896L108.419 50.0368L107.492 52.4274L104.621 54.0847L103.995 75.3729L103.762 78.4316L105.383 80.2192L108.908 78.1831V72.5353L112.065 70.7129C114.627 69.2343 116.99 66.3013 118.258 63.0169L122.808 51.2699L123.249 50.1322L108.861 48.896Z" fill="#B5B5B5"/>
<path d="M108.419 50.0368L54.2549 18.5864L54.6972 17.4441L108.861 48.8961L108.419 50.0368Z" fill="#B1B1B1"/>
<path d="M71.8923 8.93296C71.6924 8.81631 71.4621 8.74359 71.203 8.72087L60.1787 7.77856L114.341 39.229L126.055 40.3834L71.8923 8.93296Z" fill="#1600DB"/>
<path d="M55.7518 11.7024L53.3415 17.9198C53.243 18.1803 53.2748 18.4152 53.4112 18.4939L107.574 49.9444L109.914 43.1528L55.7518 11.7024Z" fill="#0F0094"/>
<path d="M60.1781 7.78005C59.6676 7.7346 59.1101 7.89518 58.5601 8.21181C57.4391 8.8587 56.3483 10.16 55.7529 11.7023L109.916 43.1527L114.342 39.2305L60.1781 7.78005Z" fill="#1600DB"/>
<path d="M125.365 40.1716L114.341 39.2293C113.83 39.1838 113.273 39.3444 112.723 39.661C111.602 40.3079 110.511 41.6093 109.916 43.1515L107.505 49.3689C107.387 49.6809 107.457 49.9582 107.671 49.9718L123.558 51.3353C123.628 51.3428 123.705 51.3201 123.779 51.2777C123.932 51.1898 124.081 51.0111 124.164 50.799L126.568 44.5846C127.462 42.2774 126.924 40.3079 125.365 40.1716Z" fill="#3924FC"/>
<path d="M83.3374 58.8585L19.1548 21.6497L19.1533 69.8979C19.1594 71.934 19.876 73.3657 21.0349 74.0398L77.8714 107.129L83.3374 58.8585Z" fill="#A7A6A1"/>
<path d="M53.4037 0.308567C52.5705 -0.174704 51.4176 -0.10653 50.1436 0.628223L87.5629 24.3009L106.598 33.3967C107.871 32.6619 109.025 32.5938 109.859 33.077L53.4037 0.308567Z" fill="#646464"/>
<path d="M69.4743 60.1037L13.0195 27.3337L13.0423 29.6183C13.0438 30.2288 13.2604 30.6606 13.6104 30.8636L70.0651 63.6336L69.4743 60.1037Z" fill="#646464"/>
<path d="M69.4743 60.1038L13.0196 27.3338C13.0105 24.4266 15.0557 20.8862 17.5856 19.4258L65.2309 44.571L74.0404 52.1958C71.5104 53.6562 69.4668 57.1966 69.4743 60.1038Z" fill="#646464"/>
<path d="M50.1438 0.628418L17.5859 19.426L74.0407 52.1959L106.599 33.3984L50.1438 0.628418Z" fill="#4D4242"/>
<path d="M111.195 36.0173C111.189 34.0206 110.218 32.8435 108.791 32.7738C108.139 32.742 107.392 32.9404 106.599 33.3995L74.0407 52.1955C71.5107 53.6559 69.4671 57.1964 69.4746 60.1036L69.4974 62.3881C69.5004 63.6152 70.37 64.1197 71.4456 63.4986L107.45 42.7119L109.282 41.6545C110.35 41.0379 111.221 39.529 111.218 38.3019L111.195 36.0173Z" fill="#646464"/>
<path d="M106.707 33.2042C97.5248 38.0187 74.7778 50.661 72.3963 53.0198C70.7526 54.6878 69.6315 56.992 69.4648 59.5478C69.4724 59.9113 69.4754 60.1053 69.4754 60.1053C69.4754 60.1053 69.4951 59.9129 69.53 59.5538C69.9405 57.1541 71.157 55.0892 72.8659 53.5152C74.2354 52.3139 105.107 34.4737 106.818 33.4118C107.667 32.9073 108.392 32.7558 108.79 32.774C108.361 32.7012 107.524 32.7997 106.707 33.2042Z" fill="#646464"/>
<path d="M103.892 38.508L77.8199 53.5606C76.6882 54.2136 75.9928 55.4225 75.9959 56.7284L75.9883 102.986C76.0004 107.085 78.8955 108.735 82.4632 106.676L99.0716 97.0883C102.632 95.034 105.516 90.0453 105.504 85.9473L105.5 39.4352C105.498 38.6095 104.606 38.096 103.892 38.508Z" fill="#B5B5B5"/>
<path opacity="0.2" d="M103.381 54.5773L78.0966 69.1754C77.6088 69.4572 77.2119 69.2905 77.2119 68.8012V56.9497C77.2119 56.4619 77.6073 55.8362 78.0966 55.5544L103.381 40.9563C103.869 40.6745 104.266 40.8412 104.266 41.3305V53.182C104.266 53.6713 103.871 54.2955 103.381 54.5773Z" fill="#B1B1B1"/>
<path d="M102.901 52.3943C102.901 52.8821 102.506 53.5078 102.016 53.7896L77.2119 68.1104V68.8012C77.2119 69.2891 77.6073 69.4572 78.0966 69.1754L103.381 54.5773C103.869 54.2956 104.266 53.6714 104.266 53.1821L102.901 52.3943Z" fill="#ECECE2"/>
<path d="M103.382 40.9578L102.901 41.2351V52.3942L104.266 53.182V41.3305C104.266 40.8427 103.871 40.6761 103.382 40.9578Z" fill="#B1B1B1"/>
<path d="M87.084 53.1091C87.084 54.115 87.4324 54.8256 87.999 55.1649L89.9276 56.2784L94.4876 48.4779L92.559 47.3644C92.509 47.3341 92.4499 47.325 92.3969 47.3008L88.1611 49.7459C87.5036 50.8003 87.084 52.0153 87.084 53.1091Z" fill="#B1B1B1"/>
<path d="M89.0127 54.2225C89.0127 56.2601 90.4428 57.0858 92.2077 56.0677C93.9726 55.0497 95.4028 52.5712 95.4028 50.5336C95.4028 48.496 93.9726 47.6703 92.2077 48.6884C90.4428 49.708 89.0127 52.1849 89.0127 54.2225Z" fill="#B5B5B5"/>
<path d="M90.2412 53.5135C90.2412 54.7664 91.1214 55.2754 92.2076 54.6482C93.2938 54.021 94.174 52.4969 94.174 51.2441C94.174 49.9912 93.2938 49.4822 92.2076 50.1094C91.1214 50.7366 90.2412 52.2591 90.2412 53.5135Z" fill="#B1B1B1"/>
<path d="M76.0111 70.6084L49.5479 55.3301L73.5129 75.7941L76.0111 70.6084Z" fill="#BFBEB8"/>
<path d="M72.4645 99.2246L39.5703 80.2332V74.1658L72.4645 93.1572V99.2246Z" fill="#B1B1B1"/>
<path d="M76.5143 96.8853L72.4648 99.2244V93.157L76.5143 90.8179V96.8853Z" fill="#B5B5B5"/>
<path d="M58.3892 88.4653L4.22656 57.0149L8.82596 63.4777C9.13956 63.917 9.51678 64.2624 9.944 64.5109L64.1067 95.9613L58.3892 88.4653Z" fill="#B1B1B1"/>
<path d="M72.2814 70.0146L73.6631 71.9629L73.654 92.8889L69.2046 95.4583C66.6428 96.9369 64.2764 96.7354 62.9887 94.9266L57.9424 87.8366L72.2814 70.0146Z" fill="#B5B5B5"/>
<path d="M58.3889 88.4651L4.22621 57.0132L3.7793 56.386L57.9419 87.8364L58.3889 88.4651Z" fill="#656565"/>
<path d="M16.5205 33.5892C15.9024 33.2301 15.0646 33.3241 14.2102 33.8179C13.6603 34.1361 13.1028 34.6193 12.5938 35.2541L66.7564 66.7046C67.2654 66.0698 67.8214 65.5865 68.3729 65.2699C69.2273 64.776 70.0666 64.6821 70.6832 65.0411L16.5205 33.5892Z" fill="#2F19F4"/>
<path d="M57.0397 89.5515L54.6021 86.1338L0.439453 54.6833L2.87702 58.1011C2.89671 58.1299 2.92095 58.1526 2.9467 58.1677L57.1094 89.6182C57.0836 89.603 57.0594 89.5803 57.0397 89.5515Z" fill="#0F0094"/>
<path d="M12.5932 35.2524L1.61133 48.8991L55.774 80.3496L66.7574 66.7029L12.5932 35.2524Z" fill="#1600DB"/>
<path d="M51.6426 63.4655L53.0182 61.7566L62.2351 67.215L60.8611 68.9223L51.6426 63.4655Z" fill="#161049"/>
<path d="M1.61159 48.8994C0.0648223 50.828 -0.459349 53.411 0.439019 54.682L54.6017 86.1325L55.7742 80.3499L1.61159 48.8994Z" fill="#1C0CAA"/>
<path d="M68.373 65.2666C69.4941 64.6197 70.5879 64.6591 71.1909 65.509L73.6284 68.9267C73.7481 69.1025 73.6799 69.4585 73.4678 69.7175L57.6472 89.3877C57.5775 89.4756 57.5002 89.5422 57.4245 89.5862C57.2699 89.6756 57.12 89.6695 57.0397 89.5513L54.6021 86.1336C53.7037 84.861 54.2279 82.2796 55.7747 80.351L66.7581 66.7043C67.2671 66.068 67.8231 65.5848 68.373 65.2666Z" fill="#3924FC"/>
<path d="M76.8498 70.1235L73.6624 71.9642L68.916 78.9739L73.2427 93.119L76.8301 91.0481L76.8498 70.1235Z" fill="#B5B5B5"/>
<path d="M90.3103 27.5715C87.3606 27.5715 81.0084 31.3256 79.1314 32.4754C70.5234 37.752 70.5234 39.8654 70.5234 40.7683V41.747C70.5234 43.9285 74.8759 43.7482 74.8759 41.747V41.1061C76.2485 39.1034 85.2427 33.5814 89.065 32.2255C89.065 33.3238 93.1584 33.4586 93.1584 31.1923V30.2136C93.1584 28.9001 92.1797 27.5715 90.3103 27.5715Z" fill="url(#paint0_linear_4007_101)"/>
<path d="M90.5015 28.4337C81.0285 31.4364 71.5343 39.7489 72.669 38.8415C72.3736 39.0778 72.0024 38.6597 72.2675 38.3931C78.9758 31.647 86.5005 28.5049 90.3591 27.849C90.7303 27.7838 90.8591 28.3201 90.5015 28.4337Z" fill="#646464"/>
<path d="M92.5421 30.3908C93.095 30.1454 92.6209 28.9244 92.1482 28.9471C91.4165 28.9789 91.7255 30.7529 92.5421 30.3908Z" fill="#646464"/>
<path d="M80.6609 21.9998C77.7112 21.9998 71.359 25.7538 69.482 26.9037C60.874 32.1802 60.874 34.2936 60.874 35.1965V36.1752C60.874 38.3567 65.2265 38.1764 65.2265 36.1752V35.5344C66.599 33.5316 75.5933 28.0096 79.4155 26.6537C79.4155 27.752 83.509 27.8869 83.509 25.6205V24.6418C83.509 23.3299 82.5303 21.9998 80.6609 21.9998Z" fill="url(#paint1_linear_4007_101)"/>
<path d="M80.8521 22.8617C71.3791 25.8644 61.8849 34.1769 63.0196 33.2695C62.7242 33.5058 62.353 33.0877 62.6181 32.821C69.3263 26.0749 76.8511 22.9329 80.7097 22.277C81.0809 22.2118 81.2096 22.7481 80.8521 22.8617Z" fill="#646464"/>
<path d="M82.892 24.8188C83.445 24.5734 82.9708 23.3523 82.4981 23.3751C81.7679 23.4084 82.0755 25.1809 82.892 24.8188Z" fill="#646464"/>
<path d="M71.0104 16.4292C68.0608 16.4292 61.7086 20.1833 59.8316 21.3331C51.2236 26.6097 51.2236 28.7231 51.2236 29.626V30.6046C51.2236 32.7862 55.5761 32.6059 55.5761 30.6046V29.9638C56.9486 27.961 65.9429 22.4375 69.7652 21.0831C69.7652 22.1815 73.8586 22.3163 73.8586 20.0499V19.0713C73.8586 17.7578 72.8799 16.4292 71.0104 16.4292Z" fill="url(#paint2_linear_4007_101)"/>
<path d="M71.2017 17.2897C61.7287 20.2923 52.2345 28.6049 53.3692 27.6974C53.0738 27.9338 52.7026 27.5156 52.9677 27.249C59.6759 20.5029 67.2007 17.3609 71.0593 16.7049C71.4305 16.6413 71.5593 17.1776 71.2017 17.2897Z" fill="#646464"/>
<path d="M73.2423 19.2468C73.7952 19.0014 73.3211 17.7803 72.8484 17.803C72.1167 17.8364 72.4257 19.6089 73.2423 19.2468Z" fill="#646464"/>
<path d="M61.3601 10.8572C58.4104 10.8572 52.0582 14.6112 50.1812 15.7611C41.5732 21.0377 41.5732 23.151 41.5732 24.0539V25.0326C41.5732 27.2141 45.9257 27.0339 45.9257 25.0326V24.3933C47.2983 22.3905 56.2925 16.867 60.1148 15.5126C60.1148 16.611 64.2082 16.7458 64.2082 14.4794V13.5008C64.2082 12.1858 63.2295 10.8572 61.3601 10.8572Z" fill="url(#paint3_linear_4007_101)"/>
<path d="M61.5513 11.7177C52.0783 14.7203 42.5841 23.0329 43.7188 22.1254C43.4234 22.3618 43.0522 21.9436 43.3173 21.677C50.0256 14.9309 57.5503 11.7904 61.4089 11.1329C61.7801 11.0693 61.9089 11.6056 61.5513 11.7177Z" fill="#646464"/>
<path d="M63.5912 13.6748C64.1442 13.4294 63.67 12.2083 63.1973 12.231C62.4671 12.2644 62.7747 14.0384 63.5912 13.6748Z" fill="#646464"/>
<path d="M51.7097 5.28516C48.7601 5.28516 42.4079 9.03921 40.5308 10.1891C31.9229 15.4656 31.9229 17.579 31.9229 18.4819V19.4606C31.9229 21.6421 36.2753 21.4618 36.2753 19.4606V18.8198C37.6479 16.817 46.6422 11.2935 50.4644 9.9391C50.4644 11.0374 54.5578 11.1723 54.5578 8.9059V7.92724C54.5578 6.61529 53.5791 5.28516 51.7097 5.28516Z" fill="url(#paint4_linear_4007_101)"/>
<path d="M51.9009 6.14737C42.4279 9.15001 32.9337 17.4626 34.0684 16.5551C33.773 16.7914 33.4018 16.3733 33.6669 16.1067C40.3752 9.36059 47.8999 6.22009 51.7585 5.5626C52.1297 5.49745 52.2585 6.03375 51.9009 6.14737Z" fill="#646464"/>
<path d="M53.9408 8.10447C54.4938 7.85904 54.0196 6.63799 53.5469 6.66071C52.8167 6.69404 53.1243 8.46654 53.9408 8.10447Z" fill="#646464"/>
<path d="M72.3876 83.6704L66.0566 87.326V86.4488L72.3876 82.7932V83.6704ZM72.3876 84.8793L66.0566 88.5349V89.4136L72.3876 85.758V84.8793ZM72.3876 86.9654L66.0566 90.621V91.4981L72.3876 87.8426V86.9654ZM72.3876 89.053L66.0566 92.7086V93.5873L72.3876 89.9317V89.053Z" fill="#B1B1B1"/>
<path d="M114.393 59.4187L108.062 63.0742V62.1971L114.393 58.5415V59.4187ZM114.393 60.6276L108.062 64.2832V65.1619L114.393 61.5063V60.6276ZM114.393 62.7137L108.062 66.3693V67.2464L114.393 63.5908V62.7137ZM114.393 64.7998L108.062 68.4554V69.334L114.393 65.6785V64.7998Z" fill="#B1B1B1"/>
<path d="M101.723 70.1165C101.721 69.5029 101.058 69.1212 100.526 69.4287L81.13 80.6273C80.2876 81.1136 79.771 82.0119 79.7726 82.9845L79.7695 106.06C79.7695 106.901 80.6088 107.49 81.3936 107.19C81.742 107.057 82.098 106.887 82.4631 106.677L99.0716 97.0888C99.4473 96.8706 99.8154 96.6191 100.173 96.3389C101.147 95.5738 101.724 94.4043 101.724 93.165L101.723 70.1165Z" fill="#646464"/>
<path d="M107.969 70.1238L106.054 67.2288L98.1123 88.6048L100.027 91.4999L107.969 70.1238Z" fill="#646464"/>
<path d="M101.578 62.0218C103.012 61.1947 104.308 61.125 105.24 61.6825L107.408 62.9338L100.085 75.464L97.9168 74.2127C97.0078 73.6688 96.4473 72.5265 96.4473 70.9101C96.4473 67.6363 98.7439 63.658 101.578 62.0218Z" fill="#646464"/>
<path d="M98.6152 72.1612C98.6152 75.4335 100.912 76.759 103.746 75.1244C106.581 73.4883 108.878 69.5085 108.878 66.2362C108.878 62.9639 106.581 61.6368 103.746 63.2729C100.912 64.9091 98.6152 68.8889 98.6152 72.1612Z" fill="#646464"/>
<path d="M100.058 71.3281C100.058 73.6808 101.709 74.6353 103.748 73.4581C105.786 72.281 107.437 69.4208 107.437 67.0681C107.437 64.7153 105.786 63.7609 103.748 64.938C101.709 66.1151 100.058 68.9754 100.058 71.3281Z" fill="#BFBEB8"/>
<path d="M102.466 69.9376C102.466 70.7542 103.038 71.0844 103.746 70.6769C104.453 70.2694 105.026 69.2756 105.026 68.459C105.026 67.6424 104.453 67.3122 103.746 67.7197C103.038 68.1287 102.466 69.121 102.466 69.9376Z" fill="#B5B5B5"/>
<path d="M93.886 82.8719C95.3192 82.0432 96.616 81.9751 97.5477 82.5326L99.7156 83.7839L92.3923 96.3141L90.2244 95.0628C89.3154 94.5189 88.7549 93.3766 88.7549 91.7602C88.7549 88.4879 91.0516 84.5081 93.886 82.8719Z" fill="#646464"/>
<path d="M90.9229 93.0118C90.9229 96.2841 93.2195 97.6097 96.054 95.9735C98.8885 94.3374 101.185 90.3591 101.185 87.0853C101.185 83.813 98.8885 82.4874 96.054 84.1236C93.2195 85.7612 90.9229 89.7395 90.9229 93.0118Z" fill="#646464"/>
<path d="M92.3926 92.1632C92.3926 94.4978 94.0318 95.4446 96.0542 94.2766C98.0767 93.1086 99.7159 90.2695 99.7159 87.935C99.7159 85.6004 98.0767 84.6536 96.0542 85.8216C94.0318 86.9897 92.3926 89.8287 92.3926 92.1632Z" fill="#BFBEB8"/>
<path d="M94.7734 90.7879C94.7734 91.6045 95.3461 91.9348 96.0536 91.5272C96.7611 91.1182 97.3337 90.1259 97.3337 89.3093C97.3337 88.4928 96.7611 88.1625 96.0536 88.57C95.3461 88.9791 94.7734 89.9729 94.7734 90.7879Z" fill="#B5B5B5"/>
<path d="M78.5745 75.0699C80.0092 74.2428 81.3045 74.1731 82.2362 74.7306L84.4041 75.9819L77.0808 88.5121L74.9129 87.2608C74.0039 86.7169 73.4434 85.5746 73.4434 83.9582C73.4434 80.6859 75.7415 76.7061 78.5745 75.0699Z" fill="#646464"/>
<path d="M84.3678 84.3472C86.3716 80.8765 86.372 77.1253 84.3685 75.9686C82.3651 74.8119 79.1166 76.6877 77.1127 80.1584C75.1088 83.6291 75.1085 87.3803 77.1119 88.5371C79.1154 89.6938 82.3639 87.8179 84.3678 84.3472Z" fill="#646464"/>
<path d="M77.0811 84.3613C77.0811 86.6958 78.7202 87.6427 80.7427 86.4746C82.7652 85.3066 84.4044 82.4676 84.4044 80.133C84.4044 77.7985 82.7652 76.8517 80.7427 78.0182C78.7218 79.1877 77.0811 82.0267 77.0811 84.3613Z" fill="#BFBEB8"/>
<path d="M79.4619 82.9874C79.4619 83.804 80.0346 84.1342 80.7421 83.7267C81.4495 83.3192 82.0222 82.3254 82.0222 81.5088C82.0222 80.6922 81.4495 80.362 80.7421 80.7695C80.0361 81.177 79.4619 82.1708 79.4619 82.9874Z" fill="#B5B5B5"/>
<path d="M85.0625 87.2517C86.1154 86.6442 87.0668 86.5927 87.75 87.0017L89.7619 88.1622L84.3868 97.3594L82.3765 96.199C81.7099 95.799 81.2979 94.9613 81.2979 93.7751C81.2963 91.3739 82.9825 88.453 85.0625 87.2517Z" fill="#646464"/>
<path d="M83.3086 94.937C83.3086 97.3397 84.9947 98.3123 87.0748 97.1109C89.1548 95.9096 90.8409 92.9887 90.8409 90.5875C90.8409 88.1848 89.1548 87.2122 87.0748 88.4121C84.9947 89.6119 83.3086 92.5358 83.3086 94.937Z" fill="#646464"/>
<path d="M85.7939 93.5021C85.7939 94.3186 86.3666 94.6489 87.0741 94.2413C87.7816 93.8338 88.3542 92.84 88.3542 92.0235C88.3542 91.2069 87.7816 90.8766 87.0741 91.2842C86.3666 91.6917 85.7939 92.6855 85.7939 93.5021Z" fill="#B5B5B5"/>
<path d="M93.4708 63.4624C94.5237 62.8549 95.4751 62.8034 96.1583 63.2124L98.1687 64.3728L92.7936 73.5701L90.7818 72.4097C90.1152 72.0097 89.7031 71.172 89.7031 69.9858C89.7046 67.5845 91.3908 64.6637 93.4708 63.4624Z" fill="#646464"/>
<path d="M91.7168 71.1478C91.7168 73.5505 93.4029 74.5231 95.483 73.3232C97.563 72.1219 99.2492 69.2011 99.2492 66.7999C99.2492 64.3987 97.563 63.4245 95.483 64.6259C93.4029 65.8242 91.7168 68.745 91.7168 71.1478Z" fill="#646464"/>
<path d="M94.2021 69.7115C94.2021 70.5281 94.7748 70.8583 95.4823 70.4508C96.1898 70.0433 96.7624 69.0495 96.7624 68.2329C96.7624 67.4164 96.1898 67.0861 95.4823 67.4936C94.7748 67.9027 94.2021 68.895 94.2021 69.7115Z" fill="#B5B5B5"/>
<path d="M93.0088 63.7654L77.2139 76.0744L78.9242 77.762L94.754 65.0576L93.0088 63.7654Z" fill="#646464"/>
<path d="M76.4627 87.9987L74.2979 86.7383L81.6196 95.3463L83.789 96.793L76.4627 87.9987Z" fill="#646464"/>
<path d="M18.6828 44.3951L17.0481 43.0725L12.6699 48.4688L14.3046 49.7913C14.3985 49.8671 14.4985 49.9368 14.6075 49.9989C15.9695 50.7851 17.9223 50.1186 18.9646 48.5127C19.9235 47.0356 19.7751 45.2783 18.6828 44.3951Z" fill="#0F0094"/>
<path d="M16.7447 42.8634C15.3828 42.0772 13.4361 42.7346 12.3938 44.3405C11.3515 45.9464 11.6121 47.89 12.974 48.6763C14.336 49.4626 16.2887 48.796 17.331 47.1901C18.3718 45.5843 18.1052 43.6497 16.7447 42.8634Z" fill="#422DFF"/>
<path d="M28.7726 50.222L27.138 48.8994L22.7598 54.2957L24.3944 55.6182C24.4883 55.694 24.5898 55.7637 24.6974 55.8258C26.0593 56.612 28.0121 55.9455 29.0544 54.3396C30.0134 52.861 29.8649 51.1052 28.7726 50.222Z" fill="#0F0094"/>
<path d="M26.8336 48.6903C25.4717 47.9041 23.5249 48.5616 22.4827 50.1674C21.4404 51.7733 21.7009 53.7169 23.0629 54.5032C24.4248 55.2895 26.3776 54.6229 27.4199 53.017C28.4622 51.4112 28.1956 49.4766 26.8336 48.6903Z" fill="#422DFF"/>
<defs>
<linearGradient id="paint0_linear_4007_101" x1="79.7036" y1="32.117" x2="83.0659" y2="37.9406" gradientUnits="userSpaceOnUse">
<stop stop-color="#3F3535"/>
<stop offset="1" stop-color="#332C2C"/>
</linearGradient>
<linearGradient id="paint1_linear_4007_101" x1="70.0542" y1="26.5457" x2="73.4165" y2="32.3693" gradientUnits="userSpaceOnUse">
<stop stop-color="#3F3535"/>
<stop offset="1" stop-color="#332C2C"/>
</linearGradient>
<linearGradient id="paint2_linear_4007_101" x1="60.4038" y1="20.9741" x2="63.7661" y2="26.7977" gradientUnits="userSpaceOnUse">
<stop stop-color="#3F3535"/>
<stop offset="1" stop-color="#332C2C"/>
</linearGradient>
<linearGradient id="paint3_linear_4007_101" x1="50.7534" y1="15.4025" x2="54.1157" y2="21.2261" gradientUnits="userSpaceOnUse">
<stop stop-color="#3F3535"/>
<stop offset="1" stop-color="#332C2C"/>
</linearGradient>
<linearGradient id="paint4_linear_4007_101" x1="41.103" y1="9.83093" x2="44.4653" y2="15.6546" gradientUnits="userSpaceOnUse">
<stop stop-color="#3F3535"/>
<stop offset="1" stop-color="#332C2C"/>
</linearGradient>
</defs>
</svg>
