<svg width="91" height="96" viewBox="0 0 91 96" fill="none" xmlns="http://www.w3.org/2000/svg">
<path d="M80.3227 0.117023C80.0221 -0.0638055 79.603 -0.0410522 79.1395 0.227197C78.2234 0.75651 77.481 2.04267 77.481 3.1001C77.481 3.62223 77.6618 3.99226 77.9564 4.1671L79.1899 4.87964L81.5574 0.829559L80.3227 0.117023Z" fill="#4D4242"/>
<path d="M78.7158 3.81136C78.7158 4.86879 79.4583 5.2975 80.3744 4.76939C81.2905 4.24008 82.033 2.95392 82.033 1.89649C82.033 0.83906 81.2905 0.410341 80.3744 0.938457C79.4583 1.46777 78.7158 2.75393 78.7158 3.81136Z" fill="#646464"/>
<path d="M87.7463 5.28803L81.5993 1.73852C80.464 1.08346 78.8629 3.61626 80.1024 4.33119L85.2422 7.2987L78.7911 11.0231C78.0749 11.4362 77.8294 12.3523 78.2426 13.0673C78.5192 13.5475 79.0234 13.8157 79.5395 13.8157C79.7934 13.8157 80.0509 13.7511 80.2868 13.6157L87.7451 9.30937C88.4624 8.89622 88.9079 8.125 88.9079 7.2975C88.9067 6.4712 88.4612 5.70118 87.7463 5.28803Z" fill="#4D4242"/>
<path d="M89.9606 28.3213L89.5367 28.2722C89.6133 28.3165 89.6624 28.4111 89.6624 28.5453C89.6636 28.8243 89.4648 29.162 89.2277 29.2985L88.6517 29.6314C88.5296 29.7021 88.4194 29.7093 88.3403 29.6626L88.5104 29.9811C88.5894 30.0266 88.8613 30.0338 88.9834 29.9631L89.7906 29.6518C90.0277 29.5153 90.1091 28.8913 90.1079 28.6123C90.1079 28.4782 90.0372 28.3656 89.9606 28.3213Z" fill="#4D4242"/>
<path d="M83.7176 30.5357L83.4194 30.3621L83.4314 34.5594L83.7296 34.7319L83.7176 30.5357Z" fill="#646464"/>
<path d="M90.1532 26.4749L83.4194 30.3621L83.7176 30.5357L90.4502 26.6485L90.1532 26.4749Z" fill="#4D4242"/>
<path d="M90.4501 26.6484L83.7163 30.5357L83.7283 34.7318L90.4608 30.8446L90.4501 26.6484ZM89.5256 29.4698L88.9496 29.8028C88.7077 29.9429 88.5125 29.8315 88.5113 29.5537C88.5101 29.2818 88.7041 28.9465 88.946 28.8064L89.522 28.4735C89.7591 28.337 89.9591 28.4448 89.9591 28.7166C89.9603 28.9956 89.7615 29.3333 89.5256 29.4698Z" fill="#646464"/>
<path d="M84.3976 8.8374L80.7188 11.6313L80.7259 57.2121L83.6024 55.5403C84.1353 55.2301 84.4024 54.8242 84.4036 54.4182L84.3976 8.8374Z" fill="#0E0745"/>
<path d="M83.5835 7.69963C82.5033 7.07571 80.7561 7.07571 79.6819 7.69963L76.8042 9.3714L80.7178 11.6312L83.5943 9.95939C84.6696 9.33547 84.6637 8.32355 83.5835 7.69963Z" fill="#4D4242"/>
<path d="M17.9665 93.9742L13.4434 91.3636V43.2871L17.9665 45.8989V93.9742Z" fill="#B1B1B1"/>
<path d="M80.9869 57.5892L17.9663 93.974V45.8988L80.9869 9.5127V57.5892Z" fill="#CFCFC7"/>
<path d="M19.4429 46.7514L79.5091 12.0718V56.7353L19.4429 91.416V46.7514Z" fill="#0E0745"/>
<path d="M17.9665 45.8988L13.4434 43.287L76.4651 6.9021L80.987 9.51274L17.9665 45.8988Z" fill="#ECECE2"/>
<path d="M79.5096 44.7875V45.5755L19.4434 80.2551V79.4659L79.5096 44.7875ZM19.4434 77.066V77.854L79.5096 43.1744V42.3864L19.4434 77.066ZM19.4434 72.2651V73.053L79.5096 38.3735V37.5855L19.4434 72.2651ZM19.4434 69.864V70.652L79.5096 35.9724V35.1844L19.4434 69.864ZM19.4434 74.6649V75.4529L79.5096 40.7733V39.9854L19.4434 74.6649ZM19.4434 86.6679V87.4559L79.5096 52.7763V51.9883L19.4434 86.6679ZM19.4434 81.867V82.6549L79.5096 47.9754V47.1874L19.4434 81.867ZM79.5096 55.1762V54.3894L19.4434 89.069V89.8569L79.5096 55.1762ZM19.4434 84.268V85.056L79.5096 50.3764V49.5884L19.4434 84.268ZM19.4434 55.4612V56.2492L79.5096 21.5696V20.7816L19.4434 55.4612ZM19.4434 50.6602V51.4482L79.5096 16.7686V15.9807L19.4434 50.6602ZM19.4434 53.0601V53.8481L79.5096 19.1685V18.3805L19.4434 53.0601ZM19.4434 48.2592V49.0472L79.5096 14.3676V13.5796L19.4434 48.2592ZM19.4434 57.861V58.649L79.5096 23.9695V23.1815L19.4434 57.861ZM19.4434 62.662V63.45L79.5096 28.7704V27.9836L19.4434 62.662ZM19.4434 60.2621V61.0501L79.5096 26.3705V25.5825L19.4434 60.2621ZM19.4434 65.0631V65.851L79.5096 31.1715V30.3835L19.4434 65.0631ZM19.4434 67.4641V68.2521L79.5096 33.5725V32.7845L19.4434 67.4641Z" fill="#4733FE"/>
<path d="M17.6144 48.0928L10.0244 48.6257L10.0316 94.2065C10.0304 94.6184 10.3022 95.0304 10.8459 95.3441C11.9261 95.9681 13.6733 95.9681 14.7475 95.3441L17.6216 93.6736L17.6144 48.0928Z" fill="url(#paint0_linear_4007_823)"/>
<path d="M13.6998 45.833L10.8257 47.5036C9.7515 48.1275 9.75749 49.1394 10.8389 49.7633C11.9191 50.3873 13.6663 50.3873 14.7405 49.7633L17.6146 48.0928L13.6998 45.833Z" fill="#4D4242"/>
<path d="M6.09314 76.666H5.71231C5.79015 76.7115 5.83687 76.8061 5.83807 76.9403C5.83927 77.2193 5.64526 77.5534 5.40335 77.6935L4.82733 78.0264C4.70878 78.0947 4.60101 78.1019 4.52197 78.0564L4.77705 78.3665C4.85608 78.412 5.22731 78.6001 5.34587 78.5318L5.90871 78.0552C6.15062 77.9151 6.359 77.3079 6.359 77.0301C6.3578 76.8959 6.17098 76.7103 6.09314 76.666Z" fill="#4D4242"/>
<path d="M10.621 72.3933L3.88721 76.2805L4.1854 76.453L10.918 72.5658L10.621 72.3933Z" fill="#4D4242"/>
<path d="M4.1854 76.453L3.88721 76.2805L3.89201 80.4815L4.189 80.6539L4.1854 76.453Z" fill="#646464"/>
<path d="M10.9179 72.5659L4.18408 76.4531L4.18889 80.6541L10.9215 76.7669L10.9179 72.5659ZM5.69897 77.8662L5.12297 78.1992C4.88586 78.3357 4.69184 78.2255 4.69065 77.9465C4.68945 77.6746 4.88346 77.3393 5.12057 77.2028L5.69658 76.8699C5.93848 76.7298 6.13369 76.8411 6.13489 77.113C6.13489 77.392 5.94207 77.7273 5.69897 77.8662Z" fill="#646464"/>
<path d="M87.0874 5.21849C87.1281 5.24124 87.17 5.26639 87.2131 5.29393C88.055 5.83283 88.3017 7.14653 87.5053 7.71896C87.5053 7.71896 85.8024 8.72489 85.6359 8.60274C85.4695 8.48059 87.0239 7.51537 87.0239 7.51537C87.6957 7.14533 87.4933 6.0879 86.7976 5.71667C78.8926 1.24864 80.2267 1.172 87.0874 5.21849Z" fill="#605353"/>
<path d="M22.672 41.0179L18.7895 43.2597L17.6147 42.5807L21.496 40.3401L22.672 41.0179Z" fill="#A7A6A1"/>
<path d="M76.7767 9.7813L72.8942 12.0231L71.7183 11.3441L75.6007 9.10229L76.7767 9.7813Z" fill="#A7A6A1"/>
<path d="M16.4243 52.7514C16.6219 52.6376 16.8003 52.628 16.9297 52.7046L18.7559 53.7597L17.7464 55.4865L15.9201 54.4315C15.7944 54.3561 15.7178 54.1992 15.7178 53.9764C15.7178 53.5262 16.0339 52.9777 16.4243 52.7514Z" fill="#4D4242"/>
<path d="M17.5439 55.0313C17.5439 55.4828 17.8601 55.6648 18.2517 55.4397C18.6421 55.2145 18.9594 54.6661 18.9594 54.2146C18.9594 53.7631 18.6433 53.5811 18.2517 53.8062C17.8601 54.0314 17.5439 54.5798 17.5439 55.0313Z" fill="#646464"/>
<path d="M17.7427 54.9163C17.7427 55.2409 17.9702 55.3726 18.2516 55.2097C18.5331 55.0481 18.7606 54.6529 18.7606 54.3283C18.7606 54.0038 18.5331 53.8721 18.2516 54.0349C17.9702 54.1978 17.7427 54.593 17.7427 54.9163Z" fill="#646464"/>
<path d="M82.2388 14.7533C82.4364 14.6395 82.6148 14.63 82.7442 14.7066L84.5704 15.7616L83.5609 17.4885L81.7346 16.4335C81.6089 16.358 81.5322 16.2011 81.5322 15.9784C81.531 15.5281 81.8484 14.9796 82.2388 14.7533Z" fill="#4D4242"/>
<path d="M83.3584 17.0335C83.3584 17.485 83.6746 17.667 84.0661 17.4419C84.4565 17.2167 84.7739 16.6682 84.7739 16.2168C84.7739 15.7653 84.4577 15.5833 84.0661 15.8084C83.6746 16.0336 83.3584 16.5832 83.3584 17.0335Z" fill="#646464"/>
<path d="M83.5571 16.9183C83.5571 17.2428 83.7847 17.3745 84.0661 17.2117C84.3475 17.0488 84.575 16.6548 84.575 16.3303C84.575 16.0058 84.3475 15.874 84.0661 16.0369C83.7847 16.1998 83.5571 16.5949 83.5571 16.9183Z" fill="#646464"/>
<path d="M12.8362 43.3709H8.12152C7.209 43.3709 6.46891 42.6309 6.46891 41.7183V36.7593C6.46891 35.4025 1.5542 35.4025 1.5542 36.7593V42.5482C1.5542 45.7169 4.12292 48.2856 7.29162 48.2856H10.3801C10.3801 50.3119 15.2936 50.3119 15.2936 48.1791V45.8283C15.2936 44.4715 14.1942 43.3709 12.8362 43.3709Z" fill="#646464"/>
<path d="M6.84993 40.1867C7.64271 39.7293 8.03429 39.1269 8.02471 38.5269V36.6001L0 36.6432V38.5701C0.00958033 39.1557 0.401161 39.74 1.17477 40.1867C2.74235 41.0921 5.28235 41.0921 6.84993 40.1867Z" fill="url(#paint1_linear_4007_823)"/>
<path d="M1.17576 38.26C-0.390619 37.3559 -0.390619 35.8889 1.17576 34.9835C2.74215 34.0794 5.28334 34.0794 6.84972 34.9835C8.4161 35.8877 8.4161 37.3547 6.84972 38.26C5.28214 39.1641 2.74215 39.1641 1.17576 38.26Z" fill="#4D4242"/>
<path d="M1.97212 37.8C0.845232 37.1498 0.845232 36.0948 1.97212 35.4445C3.099 34.7942 4.92527 34.7942 6.05215 35.4445C7.17904 36.0948 7.17904 37.1498 6.05215 37.8C4.92647 38.4503 3.099 38.4503 1.97212 37.8Z" fill="url(#paint2_linear_4007_823)"/>
<defs>
<linearGradient id="paint0_linear_4007_823" x1="10.12" y1="71.9527" x2="15.1087" y2="71.9527" gradientUnits="userSpaceOnUse">
<stop stop-color="#332C2C"/>
<stop offset="0.5738" stop-color="#372F2F"/>
<stop offset="1" stop-color="#3F3535"/>
</linearGradient>
<linearGradient id="paint1_linear_4007_823" x1="0.000479015" y1="38.733" x2="8.02507" y2="38.733" gradientUnits="userSpaceOnUse">
<stop stop-color="#332C2C"/>
<stop offset="0.5738" stop-color="#372F2F"/>
<stop offset="1" stop-color="#3F3535"/>
</linearGradient>
<linearGradient id="paint2_linear_4007_823" x1="1.12737" y1="36.6218" x2="6.89762" y2="36.6218" gradientUnits="userSpaceOnUse">
<stop stop-color="#332C2C"/>
<stop offset="0.5738" stop-color="#372F2F"/>
<stop offset="1" stop-color="#3F3535"/>
</linearGradient>
</defs>
</svg>
