<svg width="98" height="109" viewBox="0 0 98 109" fill="none" xmlns="http://www.w3.org/2000/svg">
<path d="M28.1893 1.85926C29.668 1.00028 31.2832 0.375704 33.0156 0L25.9415 4.93233L15.0477 11.4815L9.83275 12.4769L28.1893 1.85926Z" fill="#1600DB"/>
<path d="M21.1086 8.48565L20.8661 12.2026L33.9194 4.66758L30.4466 1.85303L21.1086 8.48565Z" fill="#1600DB"/>
<path d="M30.9815 68.0246L31.0056 59.4734L36.2061 56.4517L36.182 65.003C36.182 65.178 36.1194 65.3 36.0214 65.3578L30.821 68.3795C30.9189 68.3217 30.9815 68.1996 30.9815 68.0246Z" fill="#1600DB"/>
<path d="M30.2991 17.6164C30.8209 16.6836 31.1308 15.5211 31.134 14.1403L36.3345 11.1187C36.3313 12.4994 36.0214 13.6619 35.4995 14.5947C33.1393 18.9121 31.8035 24.4963 31.7843 31.1947C31.765 37.8932 33.0671 45.0011 35.3936 52.0238C35.9074 53.5684 36.2108 55.0841 36.206 56.4504L31.0056 59.4721C31.0088 58.1058 30.7069 56.5885 30.1915 55.0455C27.865 48.0228 26.5629 40.9149 26.5822 34.2164C26.6031 27.518 27.9389 21.9338 30.2991 17.6164Z" fill="#1600DB"/>
<path d="M31.158 5.58908L36.3584 2.56738L36.3343 11.1203L31.1339 14.142L31.158 5.58908Z" fill="#1600DB"/>
<path d="M33.0157 0L35.8062 1.61199L30.6073 4.63369L27.8152 3.0217L33.0157 0Z" fill="#1600DB"/>
<path d="M35.8061 1.61182C36.1128 1.78843 36.3584 2.21551 36.3584 2.56713L31.158 5.58883C31.1596 5.23721 30.9123 4.81013 30.6057 4.63351L35.8061 1.61182Z" fill="#1600DB"/>
<path d="M30.1579 4.81993C37.3124 0.663095 47.2204 1.24753 58.156 7.56064C64.3198 11.1186 70.148 16.1168 75.334 22.0221C77.988 25.0454 80.4606 28.3159 82.7373 31.7406C82.2235 32.1083 81.7065 32.4727 81.1783 32.8211C78.8791 29.3499 76.3792 26.0376 73.6931 22.979C68.5071 17.0737 62.6789 12.0755 56.5151 8.51755C45.5795 2.20444 35.6715 1.62003 28.517 5.77686L30.1579 4.81993Z" fill="url(#paint0_linear_4007_277)"/>
<path d="M95.7181 76.4222C95.7454 66.9509 93.2311 56.6913 88.9153 46.9229C87.0528 42.7099 84.85 38.59 82.3774 34.6612C82.9056 34.3095 83.4258 33.9451 83.9428 33.5774C86.4491 37.5448 88.6761 41.7064 90.5578 45.9644C94.8752 55.7343 97.3879 65.9923 97.3606 75.4636C97.3253 87.8651 92.9469 96.5882 85.8872 100.69L84.2463 101.647C91.3044 97.5467 95.6828 88.8236 95.7181 76.4222Z" fill="#B1B1B1"/>
<path d="M75.3321 22.0237L73.6912 22.9806C79.8406 29.9825 85.086 38.2609 88.9153 46.9229L90.5562 45.966C86.7285 37.3039 81.4831 29.0256 75.3321 22.0237Z" fill="#DADAD1"/>
<path d="M56.5133 8.51898C34.7866 -4.02537 17.1125 6.04641 17.0403 30.9986C16.9696 55.9653 34.5298 86.3652 56.2564 98.9096C77.9718 111.448 95.6459 101.389 95.7166 76.4219C95.7888 51.4697 78.2287 21.0553 56.5133 8.51898Z" fill="#C7C7BF"/>
<path d="M27.6272 6.97596C34.7061 2.86247 44.5098 3.44047 55.3297 9.68776C61.4277 13.2088 67.1949 18.154 72.3263 23.9966C73.5899 25.4352 74.8053 26.9413 75.987 28.481C76.0577 28.5741 76.1299 28.664 76.2006 28.7572C77.3983 30.3306 78.548 31.9523 79.651 33.614C81.3352 36.1476 82.9135 38.7647 84.3473 41.4508C84.3601 41.4749 84.3714 41.5006 84.3842 41.5247C84.9157 42.5218 85.431 43.5269 85.9239 44.5384C86.4329 45.582 86.921 46.632 87.3882 47.6885C91.6591 57.354 94.1461 67.5045 94.1204 76.8778C94.0851 89.1476 89.7532 97.7792 82.7674 101.838L81.1425 102.785L26.0007 7.92486L27.6272 6.97596Z" fill="#787E7F"/>
<path d="M77.9813 38.2271C80.2612 41.9247 82.3099 45.7797 84.0519 49.7214C88.3693 59.4913 90.8821 69.7493 90.8548 79.2206C90.8194 91.622 86.441 100.345 79.3813 104.447L77.7404 105.404L76.4335 39.3397C76.9425 38.9576 77.4675 38.6011 77.9813 38.2271Z" fill="#B1B1B1"/>
<path d="M23.6534 8.57554C30.8079 4.41871 40.7159 5.00314 51.6515 11.3163C57.8153 14.8742 63.6435 19.8723 68.8295 25.7776C71.7083 29.0546 74.3784 32.6206 76.8076 36.3648C76.2954 36.7373 75.772 37.0938 75.2662 37.4727L22.0125 9.53086L23.6534 8.57554Z" fill="url(#paint1_linear_4007_277)"/>
<path d="M68.8279 25.7776C74.9772 32.7795 80.2226 41.0578 84.0503 49.7199L82.4094 50.6768L67.1853 26.7345L68.8279 25.7776Z" fill="#DADAD1"/>
<path d="M50.0087 12.2748C28.2821 -0.269547 10.6079 9.80222 10.5373 34.7561C10.4666 59.7211 28.0268 90.1227 49.7535 102.667C71.4689 115.205 89.143 105.146 89.2137 80.1793C89.2843 55.2255 71.7241 24.8111 50.0087 12.2748Z" fill="#C7C7BF"/>
<path d="M14.5823 44.6122C14.3639 44.6861 14.319 45.0216 14.4924 45.3733C14.5935 45.5772 14.7412 45.7409 14.8921 45.8276C14.9997 45.8903 15.1073 45.9111 15.1988 45.8806C15.4268 45.8116 15.4621 45.4712 15.2887 45.1196C15.1876 44.9157 15.0399 44.7519 14.889 44.6652C14.7814 44.6026 14.6722 44.5801 14.5823 44.6122Z" fill="#B1B1B1"/>
<path d="M17.8655 43.5492C17.6471 43.6231 17.6022 43.9587 17.7756 44.3103C17.8767 44.5142 18.0261 44.678 18.1754 44.7647C18.283 44.8273 18.3905 44.8482 18.482 44.8177C18.7004 44.7438 18.7453 44.4082 18.5719 44.0566C18.4724 43.8479 18.3263 43.6873 18.177 43.6022C18.0678 43.5396 17.9586 43.5187 17.8655 43.5492Z" fill="#B1B1B1"/>
<path d="M21.1428 42.4831C20.9244 42.557 20.8891 42.8974 21.0625 43.249C21.1589 43.4497 21.3082 43.615 21.4591 43.7017C21.5683 43.7644 21.6759 43.7869 21.7674 43.7564C21.9857 43.6825 22.0211 43.3421 21.8573 42.9953C21.7577 42.7866 21.6116 42.626 21.4607 42.5393C21.3499 42.4767 21.2391 42.4526 21.1428 42.4831Z" fill="#B1B1B1"/>
<path d="M24.4259 41.4205C24.2076 41.4847 24.1723 41.8347 24.336 42.1815C24.4372 42.3854 24.5881 42.5508 24.7406 42.6391C24.8498 42.7017 24.9589 42.7258 25.0505 42.6937C25.2688 42.6198 25.3042 42.2795 25.1308 41.9278C25.036 41.7223 24.8883 41.5602 24.739 41.4751C24.6298 41.4124 24.5191 41.39 24.4259 41.4205Z" fill="#B1B1B1"/>
<path d="M18.0434 15.367C17.7913 15.2209 17.5794 15.3188 17.5472 15.5966C17.5119 15.8968 17.711 16.2934 17.9808 16.4893C18.2971 16.6772 18.5154 16.584 18.5492 16.3159C18.5845 16.0157 18.3854 15.6094 18.106 15.4087C18.0851 15.3927 18.0627 15.3782 18.0434 15.367Z" fill="#B1B1B1"/>
<path d="M22.1169 19.4484C22.4236 19.6299 22.6435 19.5383 22.6756 19.2702C22.7109 18.97 22.5119 18.5638 22.2325 18.3631C21.9258 18.1816 21.7059 18.2748 21.6738 18.5509C21.64 18.8512 21.8391 19.2477 22.1169 19.4484Z" fill="#B1B1B1"/>
<path d="M26.3205 21.2901C26.062 21.1408 25.8372 21.2243 25.8035 21.5052C25.7762 21.8103 25.9672 22.2117 26.2466 22.4028C26.5645 22.5906 26.7813 22.5055 26.8054 22.2245C26.8407 21.9243 26.6496 21.5229 26.3718 21.3222C26.3542 21.311 26.3381 21.2997 26.3205 21.2901Z" fill="#B1B1B1"/>
<path d="M30.4498 24.2457C30.1929 24.098 29.9746 24.1847 29.9409 24.4657C29.9055 24.7659 30.1046 25.1721 30.3743 25.3584C30.6922 25.5462 30.909 25.4611 30.9427 25.1849C30.978 24.8847 30.7789 24.4785 30.4996 24.2778C30.4835 24.2666 30.4659 24.2553 30.4498 24.2457Z" fill="#B1B1B1"/>
<path d="M31.8937 83.0821C31.64 82.936 31.4216 83.0291 31.3895 83.2972C31.3542 83.5975 31.5533 84.0037 31.8327 84.2044C32.1393 84.3858 32.3593 84.2927 32.3914 84.0149C32.4268 83.7243 32.2276 83.3181 31.9579 83.1222C31.9354 83.1077 31.9146 83.0933 31.8937 83.0821Z" fill="#B1B1B1"/>
<path d="M32.3415 79.744C32.6498 79.9239 32.8665 79.8371 32.9002 79.5546C32.9356 79.2543 32.7365 78.8481 32.4667 78.6619C32.1488 78.474 31.9321 78.5591 31.8984 78.8353C31.863 79.1371 32.0637 79.5433 32.3415 79.744Z" fill="#B1B1B1"/>
<path d="M32.8518 75.2757C33.1665 75.462 33.3784 75.3656 33.4105 75.0975C33.4458 74.7973 33.2467 74.3911 32.977 74.1952C32.6607 74.0089 32.4423 74.1021 32.4086 74.3782C32.3733 74.6785 32.574 75.0734 32.8518 75.2757Z" fill="#B1B1B1"/>
<path d="M33.3625 70.8154C33.6772 71.0016 33.8891 70.9037 33.9212 70.6275C33.9566 70.3369 33.7575 69.9307 33.4877 69.7348C33.1714 69.547 32.9531 69.6401 32.9194 69.9082C32.8921 70.2149 33.0831 70.6147 33.3625 70.8154Z" fill="#B1B1B1"/>
<path d="M39.963 10.332C39.7446 10.4059 39.7093 10.7462 39.8827 11.1075C39.9774 11.305 40.1235 11.4639 40.2713 11.549C40.382 11.6132 40.4944 11.6357 40.5892 11.6052C40.8075 11.541 40.8428 11.191 40.6791 10.8442C40.5779 10.6403 40.4286 10.4765 40.2777 10.3882C40.1669 10.3272 40.0577 10.3031 39.963 10.332Z" fill="#B1B1B1"/>
<path d="M42.5221 15.5805C42.3037 15.6544 42.2683 15.9948 42.4417 16.3464C42.5381 16.5487 42.6874 16.7125 42.8383 16.7992C42.9475 16.8618 43.0551 16.8843 43.1466 16.8537C43.3649 16.7799 43.4099 16.4443 43.2365 16.0927C43.1353 15.8888 42.986 15.725 42.8351 15.6367C42.7259 15.5757 42.6168 15.5516 42.5221 15.5805Z" fill="#B1B1B1"/>
<path d="M45.0912 20.8339C44.8632 20.8933 44.8279 21.2433 45.0013 21.5949C45.0976 21.7956 45.2469 21.961 45.3979 22.0477C45.507 22.1103 45.6146 22.1328 45.7062 22.1023C45.9245 22.0285 45.9695 21.6929 45.7961 21.3413C45.6965 21.1325 45.5504 20.972 45.4027 20.8869C45.2935 20.8243 45.1827 20.8018 45.0912 20.8339Z" fill="#B1B1B1"/>
<path d="M47.6503 26.0729C47.4223 26.142 47.387 26.492 47.5604 26.8436C47.6615 27.0475 47.8076 27.2065 47.9569 27.2932C48.0645 27.3558 48.1737 27.3783 48.2652 27.351C48.4836 27.2771 48.5285 26.9319 48.3551 26.5803C48.254 26.3764 48.1079 26.2174 47.9586 26.1307C47.851 26.0697 47.7418 26.0456 47.6503 26.0729Z" fill="#B1B1B1"/>
<path d="M53.647 87.9084C53.4287 87.9823 53.3934 88.3227 53.5668 88.6743C53.6615 88.8798 53.8092 89.042 53.9585 89.1271C54.0693 89.1913 54.1801 89.2138 54.2732 89.1817C54.4916 89.1078 54.5269 88.7674 54.3632 88.4206C54.262 88.2167 54.1143 88.053 53.9618 87.9647C53.8526 87.902 53.7418 87.8795 53.647 87.9084Z" fill="#B1B1B1"/>
<path d="M56.208 93.157C55.9897 93.2309 55.9544 93.5713 56.1278 93.9229C56.2241 94.1252 56.3734 94.2889 56.5243 94.3756C56.6335 94.4383 56.7411 94.4607 56.8326 94.4302C57.051 94.3564 57.0959 94.0208 56.9225 93.6692C56.823 93.4605 56.6769 93.2999 56.5276 93.2132C56.4152 93.149 56.3044 93.1265 56.208 93.157Z" fill="#B1B1B1"/>
<path d="M58.7752 98.4107C58.5488 98.4701 58.5118 98.8201 58.6852 99.1717C58.7816 99.3724 58.9293 99.533 59.0802 99.6197C59.1894 99.6823 59.3002 99.7064 59.3917 99.6807C59.6101 99.6069 59.655 99.2713 59.4816 98.91C59.3821 98.7093 59.2376 98.5504 59.0899 98.4669C58.9807 98.4011 58.8699 98.3786 58.7752 98.4107Z" fill="#B1B1B1"/>
<path d="M61.3362 103.65C61.1082 103.719 61.0729 104.069 61.2463 104.42C61.3458 104.621 61.4903 104.78 61.638 104.863C61.7488 104.928 61.8596 104.949 61.9527 104.918C62.1711 104.854 62.216 104.509 62.0426 104.157C61.9415 103.953 61.7954 103.794 61.6461 103.707C61.5369 103.645 61.4277 103.622 61.3362 103.65Z" fill="#B1B1B1"/>
<path d="M71.3198 85.4102C71.0677 85.2641 70.8558 85.3621 70.8237 85.6398C70.7883 85.9401 70.9875 86.3366 71.2572 86.5325C71.5735 86.7188 71.7918 86.6272 71.8255 86.3591C71.8609 86.0589 71.6618 85.6527 71.3824 85.452C71.3615 85.4359 71.3407 85.4231 71.3198 85.4102Z" fill="#B1B1B1"/>
<path d="M75.4686 88.3804C75.2101 88.2311 74.9853 88.3146 74.9516 88.5955C74.9163 88.8958 75.1154 89.302 75.3947 89.4931C75.703 89.6761 75.9213 89.591 75.9535 89.3149C75.9888 89.0146 75.7897 88.6084 75.52 88.4125C75.5023 88.3997 75.4846 88.39 75.4686 88.3804Z" fill="#B1B1B1"/>
<path d="M79.5964 91.3348C79.3379 91.1854 79.1131 91.2689 79.0794 91.5499C79.0521 91.855 79.2431 92.2563 79.5225 92.4474C79.8404 92.6353 80.0572 92.5502 80.0812 92.2692C80.1166 91.969 79.9255 91.5676 79.6478 91.3669C79.6301 91.3556 79.6141 91.3444 79.5964 91.3348Z" fill="#B1B1B1"/>
<path d="M83.7262 94.2906C83.4693 94.1429 83.2509 94.2296 83.2172 94.5106C83.1818 94.8108 83.381 95.217 83.6507 95.4033C83.9686 95.5911 84.1854 95.506 84.2191 95.2299C84.2544 94.9296 84.0553 94.5234 83.7759 94.3227C83.7599 94.3115 83.7422 94.3002 83.7262 94.2906Z" fill="#B1B1B1"/>
<path d="M74.4329 65.3694C74.2145 65.4432 74.1696 65.7788 74.343 66.1304C74.4441 66.3343 74.5918 66.4981 74.7427 66.5848C74.8503 66.6474 74.9579 66.6683 75.0494 66.6378C75.2678 66.5639 75.3127 66.2283 75.1393 65.8767C75.0398 65.6696 74.8937 65.5074 74.7444 65.4223C74.6352 65.3581 74.526 65.3373 74.4329 65.3694Z" fill="#B1B1B1"/>
<path d="M78.0279 65.5217C78.1355 65.5827 78.2431 65.6052 78.3346 65.5747C78.5529 65.5008 78.5979 65.1653 78.4245 64.8137C78.3249 64.6065 78.1788 64.4444 78.0311 64.3593C77.9219 64.2967 77.8128 64.2742 77.7196 64.3063C77.4933 64.3753 77.4563 64.7157 77.6297 65.0673C77.7293 65.2713 77.8786 65.435 78.0279 65.5217Z" fill="#B1B1B1"/>
<path d="M80.9934 63.2388C80.7751 63.3127 80.7397 63.6531 80.9131 64.0047C81.0095 64.207 81.1588 64.3708 81.3097 64.4575C81.4189 64.5201 81.5264 64.5426 81.618 64.5121C81.8363 64.4382 81.8716 64.0978 81.7079 63.751C81.6083 63.5423 81.459 63.3801 81.3081 63.2934C81.1973 63.2308 81.0866 63.2083 80.9934 63.2388Z" fill="#B1B1B1"/>
<path d="M84.2785 62.1776C84.0601 62.2418 84.0248 62.5918 84.1885 62.9386C84.2897 63.1425 84.439 63.3063 84.5899 63.3946C84.6991 63.4572 84.8083 63.4813 84.903 63.4524C85.1214 63.3785 85.1567 63.0381 84.9833 62.6865C84.8886 62.481 84.7409 62.3188 84.5916 62.2338C84.4824 62.1679 84.3716 62.1454 84.2785 62.1776Z" fill="#B1B1B1"/>
<path d="M66.0905 43.3169C65.8368 43.1708 65.6185 43.2639 65.5864 43.5321C65.551 43.8323 65.7501 44.2385 66.0295 44.4392C66.3442 44.6254 66.5561 44.5275 66.5882 44.2498C66.6235 43.9495 66.4245 43.5529 66.1547 43.3571C66.1323 43.3426 66.1114 43.3282 66.0905 43.3169Z" fill="#B1B1B1"/>
<path d="M66.5387 39.9791C66.847 40.159 67.0638 40.0723 67.0975 39.7897C67.1328 39.4894 66.9337 39.0832 66.664 38.897C66.3461 38.7091 66.1293 38.7942 66.0956 39.0704C66.0603 39.3722 66.2594 39.7784 66.5387 39.9791Z" fill="#B1B1B1"/>
<path d="M67.6208 31.092C67.8745 31.2381 68.0912 31.145 68.1169 30.8624C68.1522 30.5718 67.9612 30.1704 67.6834 29.9697C67.3671 29.7818 67.1487 29.8749 67.115 30.1431C67.0877 30.4481 67.2788 30.8495 67.5582 31.0502C67.579 31.0663 67.6015 31.0807 67.6208 31.092Z" fill="#B1B1B1"/>
<path d="M67.1729 34.4303C66.8566 34.244 66.6383 34.3372 66.6046 34.6133C66.5773 34.9184 66.7683 35.3102 67.0477 35.5109C67.364 35.6987 67.5823 35.6056 67.6064 35.3326C67.6434 35.0324 67.4443 34.6262 67.1729 34.4303Z" fill="#B1B1B1"/>
<path opacity="0.4" d="M14.9015 54.8897L12.8657 32.8227L23.0755 9.69922L25.9784 14.6556C26.1726 14.9864 26.2754 15.3637 26.2754 15.7474V24.5781C26.2754 25.0935 26.1662 25.5896 25.9511 26.0584C24.8159 28.5198 21.2403 37.6089 24.1834 49.2124L24.1673 76.9663C21.9757 73.5288 19.988 69.9436 18.2604 66.27L14.9015 54.8897Z" fill="#B1B1B1"/>
<path opacity="0.4" d="M25.834 45.7381C25.8773 30.4884 36.6796 24.3326 49.9577 31.9992C61.6639 38.7587 71.3825 54.0148 73.4858 67.9865C75.5409 72.9253 76.7403 78.0551 76.7274 82.8156C76.6889 96.2061 67.2096 101.602 55.5612 94.8767C50.2917 91.8341 45.491 86.8263 41.803 81.0222C32.4746 71.8399 25.7986 57.7671 25.834 45.7381Z" fill="#B1B1B1"/>
<path d="M17.8238 75.6206L17.8479 67.0693L23.0483 64.0476L23.0242 72.5989C23.0242 72.7739 22.9616 72.8959 22.8637 72.9537L17.6632 75.9754C17.7612 75.9176 17.8238 75.7956 17.8238 75.6206Z" fill="#1600DB"/>
<path d="M14.0552 24.9553C14.577 24.0225 17.9759 21.7378 17.9759 21.7378L23.1748 18.7161C23.1716 20.0969 22.8617 21.2593 22.3399 22.1905C19.9797 26.5079 18.6439 32.0921 18.6246 38.7906C18.6054 45.489 19.9059 52.5969 22.2339 59.6197C22.7477 61.1642 23.0512 62.6799 23.0464 64.0462L17.8459 67.0679L14.6556 63.0733C12.3292 56.0505 11.056 49.5897 11.0752 42.8912C11.0961 36.1944 11.695 29.2727 14.0552 24.9553Z" fill="#1600DB"/>
<path d="M18.0002 13.1845L23.2007 10.1628L23.1766 18.7157L17.9761 21.7374L17.0417 17.6962L18.0002 13.1845Z" fill="#1600DB"/>
<path d="M19.858 7.59741L22.6484 9.20781L17.4496 12.2295L14.6575 10.6191L19.858 7.59741Z" fill="#1600DB"/>
<path d="M22.6483 9.20776C22.955 9.38438 23.2007 9.81146 23.2007 10.1631L18.0002 13.1848L17.4479 12.2295L22.6483 9.20776Z" fill="#1600DB"/>
<path d="M14.6572 10.6191L17.4477 12.2311C17.7544 12.4077 18 12.8348 18 13.1865L17.9759 21.7377C17.9711 23.1185 17.6612 24.281 17.141 25.2138C14.7808 29.5312 13.445 35.1154 13.4257 41.8138C13.4065 48.5123 14.7086 55.6202 17.035 62.643C17.5488 64.1875 17.8523 65.7032 17.8475 67.0695L17.8234 75.6208C17.8218 75.9724 17.5745 76.1137 17.2679 75.9371L14.4774 74.3251C5.7013 62.2512 -0.0370178 47.2824 -8.96454e-05 34.0605C0.0384445 20.8547 5.84099 12.5362 14.6572 10.6191Z" fill="#5340FF"/>
<path d="M71.951 72.514C71.967 66.7259 70.4321 60.4562 67.7926 54.485C66.7425 52.1088 65.511 49.7871 64.1399 47.5554C64.4498 47.3226 64.7709 47.1042 65.0855 46.8762C66.4792 49.1369 67.7315 51.4922 68.796 53.9006C71.434 59.8717 72.9705 66.1415 72.9545 71.9296C72.9336 79.5095 70.2571 84.84 65.9429 87.3463L64.9394 87.9324C69.2536 85.4244 71.9285 80.0923 71.951 72.514Z" fill="#8A9193"/>
<path d="M31.8822 28.7543C36.2542 26.2127 42.3105 26.5707 48.9929 30.4289C52.7595 32.6029 56.3223 35.6583 59.4901 39.2676C61.2498 41.2714 62.8811 43.4501 64.3662 45.7381C64.0531 45.9661 63.7336 46.1828 63.4237 46.4156C61.9225 44.0924 60.2688 41.8831 58.4866 39.852C55.3172 36.2427 51.7544 33.1889 47.9878 31.0134C41.3054 27.1552 35.2491 26.7971 30.8771 29.3387L31.8822 28.7543Z" fill="#A5AEAF"/>
<path d="M59.4916 39.2676L58.4881 39.8536C62.2468 44.1325 65.4531 49.1916 67.7924 54.4868L68.7959 53.9008C66.4566 48.6056 63.2503 43.5464 59.4916 39.2676Z" fill="#92999B"/>
<path d="M47.9911 31.0134C34.713 23.3467 23.9107 29.5025 23.8673 44.7523C23.824 60.01 34.5556 78.5897 47.8337 86.2564C61.1054 93.9182 71.9077 87.772 71.951 72.5126C71.9944 57.2645 61.2627 38.6768 47.9911 31.0134Z" fill="#9BA3A5"/>
<path d="M35.0564 47.7387C31.8389 50.7909 28.6936 53.9153 25.5884 57.0783L21.271 49.553L25.6847 38.4922C28.8188 30.6377 36.7921 28.2679 46.2345 33.4924C46.9056 33.8649 47.5639 34.2984 48.2222 34.7287C43.5227 38.8149 39.2261 43.7842 35.0564 47.7387Z" fill="#959C9E"/>
<path d="M35.1095 50.7345C38.9131 47.0899 42.7857 43.5143 46.6102 39.8937C47.8577 38.7136 49.094 37.4693 50.3688 36.2683C55.9482 40.5632 60.8516 46.8266 64.2153 53.7145C66.7906 58.9872 68.4733 64.6067 68.8875 69.9372C68.9405 70.6276 68.9742 71.3148 68.9839 71.9955C69.154 83.4385 63.0047 89.6793 54.2945 88.366L42.516 86.5902L26.7236 59.0642C29.4803 56.2481 32.2644 53.4608 35.1095 50.7345Z" fill="#8A9193"/>
<path d="M40.4381 31.1851C42.2813 31.6234 44.2225 32.3812 46.2327 33.4939C49.3074 35.1958 52.2407 37.5495 54.9204 40.3432L30.2363 59.6214L28.7463 51.3222L40.4381 31.1851Z" fill="#A5AEAF"/>
<path d="M37.1103 84.6458C27.9393 79.5706 20.3754 66.771 20.2148 56.0554C20.0543 45.3398 27.3596 40.7671 36.5306 45.8407C45.7017 50.9159 53.2656 63.7156 53.4261 74.4312C53.5867 85.1468 46.2813 89.721 37.1103 84.6458Z" fill="#9BA3A5"/>
<path d="M36.1274 74.7235C31.6704 72.2573 27.9936 66.0357 27.9149 60.8272C27.8378 55.6188 31.3878 53.3967 35.8449 55.8628C40.3019 58.329 43.9787 64.5506 44.0574 69.7607C44.1344 74.966 40.5845 77.1896 36.1274 74.7235Z" fill="#787E7F"/>
<path d="M49.5883 71.8011C49.9753 72.5798 49.8789 73.3504 49.394 73.519C49.1853 73.5865 48.9412 73.5351 48.6972 73.3954C48.3616 73.2011 48.0293 72.8383 47.8045 72.3855C47.4176 71.5924 47.5027 70.8281 47.9988 70.6676C48.2043 70.5969 48.4515 70.6467 48.6972 70.7896C49.0328 70.9806 49.3651 71.3435 49.5883 71.8011Z" fill="#787E7F"/>
<path d="M40.44 80.2078C40.7756 80.4005 41.1047 80.7585 41.3295 81.2097C41.7165 82.0028 41.6314 82.7671 41.1352 82.9276C40.9297 82.9983 40.6825 82.9485 40.4368 82.8056C40.1029 82.613 39.7689 82.2501 39.5457 81.7925C39.1588 81.0138 39.2439 80.2351 39.74 80.0745C39.9487 80.0119 40.196 80.0665 40.44 80.2078Z" fill="#787E7F"/>
<path d="M40.247 54.8592C40.0367 54.9283 39.7895 54.8769 39.5438 54.7356C39.2099 54.543 38.8807 54.1833 38.6575 53.7257C38.2706 52.9326 38.3557 52.1683 38.8518 52.0077C39.0622 51.9387 39.3094 51.9901 39.555 52.1314C39.889 52.324 40.2182 52.6837 40.4413 53.1413C40.8283 53.9344 40.7432 54.6987 40.247 54.8592Z" fill="#787E7F"/>
<path d="M26.1888 67.365C26.5243 67.5593 26.8567 67.9222 27.0815 68.3749C27.4684 69.1681 27.3833 69.9324 26.8872 70.0929C26.6817 70.1636 26.4344 70.1138 26.1888 69.9709C25.8532 69.7782 25.5209 69.4154 25.2977 68.9578C24.922 68.1855 25.007 67.4084 25.4919 67.2398C25.7006 67.1724 25.9447 67.2254 26.1888 67.365Z" fill="#787E7F"/>
<path d="M26.3478 52.743C26.1359 52.8121 25.887 52.7591 25.6397 52.6178C25.3074 52.4267 24.9799 52.0703 24.7583 51.6223C24.3713 50.8292 24.4564 50.0649 24.9397 49.8979C25.1516 49.8289 25.4021 49.8819 25.651 50.0264C25.9849 50.2191 26.3141 50.5755 26.5292 51.0186C26.9162 51.8118 26.8311 52.576 26.3478 52.743Z" fill="#787E7F"/>
<path d="M28.2484 2.76964L17.1876 9.15661L21.2819 8.72151L32.1323 2.45654L28.2484 2.76964Z" fill="#1600DB"/>
<path d="M13.5688 19.119C13.3568 19.188 13.108 19.1351 12.8608 18.9938C12.5284 18.8011 12.2008 18.4463 11.9793 17.9983C11.5923 17.2052 11.6774 16.4409 12.1607 16.2739C12.3727 16.2049 12.6231 16.2579 12.872 16.4024C13.2059 16.595 13.5351 16.9515 13.7502 17.3946C14.1388 18.1878 14.0537 18.952 13.5688 19.119Z" fill="#1600DB"/>
<path d="M13.5688 65.4705C13.3568 65.5396 13.108 65.4866 12.8608 65.3453C12.5284 65.1543 12.2008 64.7978 11.9793 64.3499C11.5923 63.5567 11.6774 62.7925 12.1607 62.6255C12.3727 62.5564 12.6231 62.6094 12.872 62.7539C13.2059 62.9466 13.5351 63.303 13.7502 63.7462C14.1388 64.5377 14.0537 65.302 13.5688 65.4705Z" fill="#1600DB"/>
<path d="M6.55899 47.31L7.87719 48.071C9.52451 49.0215 10.8604 48.458 10.8604 46.8106V36.254C10.8604 34.6067 9.52451 32.4986 7.87719 31.5481L6.55899 30.787C4.91167 29.8365 3.57583 30.4001 3.57583 32.0474V42.604C3.57583 44.2514 4.91167 46.3579 6.55899 47.31Z" fill="#1600DB"/>
<defs>
<linearGradient id="paint0_linear_4007_277" x1="43.2231" y1="-2.72274" x2="98.6731" y2="93.3194" gradientUnits="userSpaceOnUse">
<stop stop-color="#ECECE2"/>
<stop offset="1" stop-color="#DCDCD3"/>
</linearGradient>
<linearGradient id="paint1_linear_4007_277" x1="55.007" y1="13.2543" x2="40.5256" y2="38.3368" gradientUnits="userSpaceOnUse">
<stop stop-color="#ECECE2"/>
<stop offset="1" stop-color="#DCDCD3"/>
</linearGradient>
</defs>
</svg>
