<svg width="74" height="104" viewBox="0 0 74 104" fill="none" xmlns="http://www.w3.org/2000/svg">
<path d="M9.17622 67.1006L33.2734 53.0968L30.9122 48.4084L6.81503 62.4122L9.17622 67.1006Z" fill="#8B8989"/>
<path d="M10.7856 68.1671L34.8828 54.1633C34.6547 54.2961 34.3917 54.2817 34.127 54.1284C33.829 53.9565 33.5285 53.6084 33.2732 53.0977L9.17598 67.1014C9.43133 67.613 9.73179 67.9603 10.0297 68.1322C10.2944 68.2855 10.5575 68.2999 10.7856 68.1671Z" fill="#8B8989"/>
<path d="M6.8149 62.4122L30.9121 48.4084C30.5495 47.6849 30.3231 46.7401 30.3256 45.8804L6.22843 59.8842C6.22673 60.7439 6.45229 61.6887 6.8149 62.4122Z" fill="#A9A9A9"/>
<path d="M6.22837 59.8842L30.3264 45.8804L30.3945 21.9075L6.29646 35.9113L6.22837 59.8842Z" fill="#938F8F"/>
<path d="M31.0898 19.9878L6.99263 33.9916C6.5815 34.2308 6.29977 34.9236 6.29722 35.911L30.3944 21.9072C30.397 20.9199 30.6787 20.227 31.0898 19.9878Z" fill="#938F8F"/>
<path d="M48.3916 103.283L72.4889 89.2791C73.3315 88.7897 73.8541 87.7495 73.8584 86.2693L49.7612 100.273C49.7569 101.752 49.2343 102.793 48.3916 103.283Z" fill="#938F8F"/>
<path d="M25.0405 27.8051L49.1377 13.8013L24.2361 8.74438L0.138882 22.7482L25.0405 27.8051Z" fill="#A9A9A9"/>
<path d="M13.2511 20.0407L20.1364 16.0401L20.1475 12.0259L13.263 16.0273L13.2511 20.0407Z" fill="#938F8F"/>
<path d="M21.4951 9.05762L14.6098 13.0591C13.7706 13.5468 13.2658 14.5886 13.2616 16.0272L20.1468 12.0257C20.1511 10.5872 20.6567 9.54535 21.4951 9.05762Z" fill="#938F8F"/>
<path d="M15.3095 1.35192L8.42425 5.35338C9.00391 5.01631 9.74275 4.94394 10.5854 5.18568L17.4707 1.18424C16.628 0.942503 15.8892 1.0157 15.3095 1.35192Z" fill="#8B8989"/>
<path d="M25.8276 9.6059L32.7129 5.60529L17.4715 1.18506L10.5862 5.18564L25.8276 9.6059Z" fill="#8B8989"/>
<path d="M26.9429 10.0953L33.8281 6.09381C33.4553 5.87846 33.0808 5.71333 32.7122 5.60522L25.8269 9.60666C26.1955 9.71477 26.57 9.8799 26.9429 10.0953Z" fill="#8B8989"/>
<path d="M29.6293 12.6266L36.5146 8.62519C35.7247 7.52375 34.7825 6.64447 33.8283 6.09375L26.943 10.0952C27.8972 10.6459 28.8386 11.5252 29.6293 12.6266Z" fill="#8B8989"/>
<path d="M34.8149 19.8926L41.7002 15.8911L36.5148 8.62622L29.6295 12.6268L34.8149 19.8926Z" fill="#A9A9A9"/>
<path d="M26.9435 10.0952C26.5707 9.87988 26.1962 9.71475 25.8276 9.60664L10.5862 5.18642C8.52628 4.59569 7.08606 5.881 7.0784 8.31796L7.04861 18.7817L13.2504 20.0414L13.2615 16.028C13.2683 13.6753 14.6149 12.3824 16.5709 12.842L23.6988 14.5402C24.1295 14.6398 24.5712 14.8219 25.0096 15.0747C26.0115 15.6527 26.998 16.6026 27.8126 17.7892L31.9502 23.8505L34.8145 19.8925L29.629 12.6275C28.8391 11.5252 27.8977 10.646 26.9435 10.0952Z" fill="#606060"/>
<path d="M31.9507 23.8497L38.8359 19.8483L41.7002 15.8911L34.8149 19.8926L31.9507 23.8497Z" fill="#A9A9A9"/>
<path d="M49.7615 100.272L73.8587 86.2683L74 36.5664L49.9019 50.5702L49.7615 100.272Z" fill="#938F8F"/>
<path d="M54.4446 6.71103L30.3473 20.7148C30.9636 20.3565 31.8097 20.4305 32.7026 20.9455L56.7998 6.9417C55.9069 6.42673 55.0608 6.35353 54.4446 6.71103Z" fill="#8B8989"/>
<path d="M49.9018 50.5702L73.999 36.5664C74.0016 35.6582 73.6917 34.6189 73.1325 33.6494C72.5835 32.6986 72.2737 31.6585 72.2762 30.7502L48.179 44.754C48.1764 45.6623 48.4854 46.7016 49.0353 47.6532C49.5954 48.6227 49.9052 49.662 49.9018 50.5702Z" fill="#8B8989"/>
<path d="M48.1799 44.754L72.2771 30.7503L72.3086 19.7009L48.2114 33.7056L48.1799 44.754Z" fill="#A9A9A9"/>
<path d="M44.9165 27.9985L69.0137 13.9947L56.7999 6.94263L32.7019 20.9464L44.9165 27.9985Z" fill="#8B8989"/>
<path d="M25.0406 27.8052L0.139015 22.7483L0.000274658 71.5428C-0.00823593 74.5288 2.08485 78.154 4.68354 79.6547L45.0368 102.953C47.6355 104.453 49.7524 103.258 49.7609 100.272L49.9014 50.5703C49.9039 49.6621 49.5949 48.6228 49.0348 47.6533C48.4858 46.7017 48.176 45.6624 48.1786 44.7542L48.21 33.7057C48.216 31.6032 46.7451 29.0548 44.9151 27.9985L32.7005 20.9463C31.5258 20.2679 30.4321 20.3547 29.8362 21.183L25.0406 27.8052ZM6.22845 59.8841L6.29654 35.9111C6.3008 34.396 6.96217 33.5746 7.73846 34.0223C7.80655 34.0615 7.87634 34.1117 7.94614 34.1713L9.98219 35.8856C10.2937 36.1495 10.584 36.5802 10.801 37.1479C16.4861 51.7246 13.0388 63.2173 11.2462 67.5669C10.9755 68.2351 10.5048 68.407 10.029 68.1321C9.7311 67.9602 9.43061 67.612 9.17526 67.1013L6.81492 62.4121C6.45231 61.6886 6.22675 60.7438 6.22845 59.8841Z" fill="#606060"/>
<path d="M48.2114 33.7057L72.3086 19.7019C72.3145 17.5994 70.8437 15.051 69.0136 13.9946L44.9164 27.9984C46.7456 29.0548 48.2173 31.6032 48.2114 33.7057Z" fill="#8B8989"/>
<path d="M43.6449 12.6243V17.6029H43.6551C43.6551 18.8022 44.4408 20.0016 46.0333 20.9251C49.2074 22.7509 54.3554 22.7509 57.5295 20.9251C59.1221 20.0016 59.918 18.8022 59.918 17.6029V12.6243H43.6449Z" fill="#A9A9A9"/>
<path d="M41.5114 5.93213V12.2156H41.525C41.525 13.7299 42.5167 15.2433 44.5263 16.4086C48.532 18.7128 55.03 18.7128 59.0357 16.4086C61.0454 15.2433 62.0498 13.729 62.0498 12.2156V5.93213H41.5114Z" fill="#1600DB"/>
<path d="M44.5233 10.1183C48.5324 12.4327 55.032 12.4327 59.042 10.1183C63.0511 7.80393 63.0511 4.05103 59.042 1.73579C55.0329 -0.578597 48.5332 -0.578597 44.5233 1.73579C40.5141 4.05018 40.5141 7.80307 44.5233 10.1183Z" fill="#5441FC"/>
<path d="M46.7769 3.03824C49.5365 1.44396 54.0248 1.44396 56.7844 3.03824C59.5576 4.63252 59.5576 7.21844 56.7844 8.81272C54.0248 10.4206 49.5365 10.4206 46.7769 8.81272C44.0037 7.21844 44.0037 4.63252 46.7769 3.03824ZM48.2639 7.95472C50.2064 9.07999 53.3549 9.07999 55.2973 7.95472C57.2398 6.82945 57.2398 5.02065 55.2973 3.89538C53.3549 2.77011 50.2064 2.77011 48.2639 3.89538C46.3215 5.02151 46.3215 6.82945 48.2639 7.95472Z" fill="#1600DB"/>
</svg>
