<svg width="120" height="101" viewBox="0 0 120 101" fill="none" xmlns="http://www.w3.org/2000/svg">
<path d="M48.1505 32.4903L8.65191 9.68411C7.73064 9.14852 6.45568 9.22431 5.04766 10.0361C4.25439 10.4942 3.5049 11.1376 2.83626 11.8972C2.50446 12.2728 2.13898 12.7511 1.80887 13.2597C1.80887 13.2597 1.26319 14.1052 0.877504 14.9743C0.320024 16.2358 -0.00334241 17.5562 2.60581e-05 18.7756C0.00507875 20.3722 0.56761 21.4939 1.4771 22.0228L40.9757 44.829L48.1505 32.4903Z" fill="url(#paint0_linear_4007_208)"/>
<path d="M52.1254 3.11732L49.6345 1.67225C45.1308 -0.945049 38.8924 -0.577883 32.009 3.3969C28.1285 5.63693 24.4603 8.78308 21.1945 12.5002C19.5743 14.341 17.7856 16.6788 16.1721 19.1647C16.1721 19.1647 13.5027 23.2995 11.6197 27.5538C8.89292 33.7232 7.31142 40.1805 7.32826 46.1427C7.35015 53.9491 10.1072 59.4414 14.5502 62.0233L17.0412 63.4667L52.1254 3.11732Z" fill="url(#paint1_linear_4007_208)"/>
<path d="M34.5 4.84233C48.1776 -3.05503 59.3037 3.2861 59.3492 18.9949C59.3946 34.7122 48.3393 53.8501 34.6617 61.7458C20.9908 69.6381 9.86473 63.3054 9.82094 47.5898C9.77547 31.881 20.8308 12.7346 34.5 4.84233Z" fill="#646464"/>
<path opacity="0.2" d="M34.5 4.84233C20.8291 12.7346 9.77547 31.881 9.82094 47.5898C9.86473 63.3071 20.9925 69.6381 34.6617 61.7458C48.3393 53.8484 59.3929 34.7105 59.3491 18.9949C59.3037 3.2861 48.1776 -3.05503 34.5 4.84233ZM34.3248 61.1614C30.5269 63.3542 26.9007 64.4658 23.5525 64.4658C15.5271 64.4658 10.525 57.9984 10.4946 47.5865C10.4509 32.1134 21.3697 13.1995 34.8385 5.42337C38.6382 3.22882 42.2643 2.11723 45.6142 2.11723C53.6413 2.11723 58.6468 8.58469 58.6771 18.9932C58.7192 34.4696 47.7953 53.3853 34.3248 61.1614Z" fill="#ADA59E"/>
<path d="M53.316 9.95046L51.2292 8.73951C47.4565 6.54664 42.2303 6.85485 36.4635 10.1846C33.213 12.0608 30.1393 14.6966 27.4041 17.8108C26.0466 19.3535 24.5476 21.3123 23.1951 23.3957C23.1951 23.3957 20.9585 26.8585 19.3821 30.424C17.0982 35.5912 15.7728 41.0026 15.7862 45.9981C15.8048 52.5379 18.1138 57.1393 21.8377 59.3018L23.9244 60.5111L53.316 9.95046Z" fill="url(#paint2_linear_4007_208)"/>
<path d="M38.5505 11.3954C50.01 4.77976 59.3305 10.0918 59.3676 23.2524C59.4046 36.4198 50.143 52.4519 38.6852 59.0693C27.2324 65.6816 17.9102 60.3763 17.8731 47.2089C17.8378 34.0484 27.0977 18.0077 38.5505 11.3954Z" fill="#646464"/>
<path d="M98.9669 51.7844L101.844 50.3326L99.5716 49.0122L101.783 47.5772L99.681 46.3562L101.392 44.9919L99.4806 43.882L100.732 42.693L98.8726 41.6134L99.7501 40.6298L98.0103 39.6176L98.5358 38.9304L96.7757 37.9081L97.0182 37.5375L95.3138 36.5472C95.3189 36.5388 52.3171 11.5313 52.3171 11.5313L52.1116 11.9018L50.365 10.8879L50.013 11.6526L48.2934 10.6538L47.8353 11.8783L46.013 10.8189L45.5532 12.4324L43.6989 11.3544L43.2812 13.4816L41.2483 12.2993L40.9923 14.8492L38.8331 13.5945L38.8382 16.6952L36.3657 15.2585L36.7969 18.8358L34.0027 17.2122L35.1126 21.5121L31.6684 19.5112L33.836 24.5134L29.5075 21.9988L33.7754 28.4494L27.4527 24.7744L34.3648 31.6747L55.6199 44.0269L59.9955 47.6261L25.6321 27.6561L33.8107 32.9446L24.5929 29.5155L32.2713 33.9771L23.131 32.569L28.2039 35.5165L21.8881 35.7472L25.6153 37.9131L20.9567 38.8546L24.0337 40.6432L20.2779 41.9873L22.8447 43.4795L19.9293 44.9481L22.2333 46.2871L19.8687 47.8248L21.9285 49.0206L20.1213 50.459L22.0666 51.5891L20.6855 52.9028L22.4961 53.9554L21.5276 55.0384L23.3062 56.0725L22.6645 56.9129L24.3756 57.9066L24.0523 58.4001L25.7938 59.4123L25.7011 59.5791L68.7013 84.5865L68.8259 84.3592L70.5388 85.3545L70.8268 84.7314L72.5935 85.7588L72.9826 84.7145L74.7696 85.7537L75.1991 84.2514L77.1022 85.3562L77.4812 83.416L79.477 84.5764L79.7262 82.1208L81.9376 83.4059L81.9292 80.4821L84.3613 81.8951L83.9419 78.3751L86.7933 80.0324L85.7272 75.9279L89.1192 77.9001L86.9566 72.8794L91.3761 75.4479L87.2211 69.191L93.4578 72.8154L86.5188 65.841L77.7304 60.721L77.8264 60.1315L77.3178 59.8115L77.6193 59.5858L95.3913 69.9388L87.248 64.6806L78.042 59.313L78.6686 56.5761L88.5466 62.3294L97.7122 65.7585L89.8957 61.2162L99.1033 62.614L94.0961 59.7037L100.218 59.4898L96.417 57.2818L101.062 56.3336L98.0423 54.5786L101.603 53.312L98.9669 51.7844Z" fill="#1600DB"/>
<path d="M96.0244 36.8896L95.3187 36.5376L52.3168 11.5301L53.0226 11.8821L96.0244 36.8896ZM24.0504 58.4022L24.6702 58.9042L67.672 83.9116L67.0522 83.4097L24.0504 58.4022ZM50.3665 10.8867L93.3683 35.8942L94.1515 36.1013L51.1514 11.0938L50.3665 10.8867ZM65.6644 81.9209L22.6626 56.9134L23.1864 57.5517L66.1882 82.5592L65.6644 81.9209ZM48.2949 10.6526L91.295 35.66L92.1389 35.7022L49.1387 10.6947L48.2949 10.6526ZM64.5275 80.048L21.5274 55.0405L21.9384 55.8035L64.9385 80.8109L64.5275 80.048ZM46.0145 10.8176L89.0146 35.8251L89.919 35.7123L46.9172 10.7048L46.0145 10.8176ZM63.6854 77.9141L20.6853 52.9066L20.9834 53.7942L63.9835 78.8017L63.6854 77.9141ZM43.7003 11.3532L86.7005 36.3607L87.6318 36.103L44.6317 11.0955L43.7003 11.3532ZM63.1212 75.4686L20.1194 50.4611L20.3047 51.4447L63.3048 76.4521L63.1212 75.4686ZM41.2481 12.2998L84.2499 37.3072L85.215 36.8896L42.2148 11.8821L41.2481 12.2998ZM62.8703 72.8327L19.8701 47.8253L19.9341 48.8981L62.9342 73.9073L62.8703 72.8327ZM38.8329 13.5949L81.833 38.6024L82.7981 38.0449L39.798 13.0375L38.8329 13.5949ZM62.9326 69.9577L19.9324 44.9503L19.8752 46.0838L62.8753 71.0912L62.9326 69.9577ZM36.3655 15.259L79.3673 40.2664L80.3223 39.5742L37.3205 14.5667L36.3655 15.259ZM63.2795 66.9969L20.2794 41.9894L20.0992 43.1835L63.101 68.191L63.2795 66.9969ZM34.0042 17.2127L77.0043 42.2201L77.9425 41.4083L34.9423 16.4009L34.0042 17.2127ZM63.9583 63.8642L20.9582 38.8567L20.6567 40.0913L63.6568 65.0987L63.9583 63.8642ZM31.6699 19.51L74.67 44.5174L75.5643 43.5911L32.5642 18.5836L31.6699 19.51ZM64.8897 60.7568L21.8895 35.7476L21.4836 36.9923L64.4838 61.9998L64.8897 60.7568ZM29.509 21.9976L72.5091 47.005L73.3495 45.9895L30.3494 20.982L29.509 21.9976ZM66.1343 57.577L23.1342 32.5695L22.6239 33.804L65.6257 58.8115L66.1343 57.577ZM27.4542 24.7749L70.456 49.7823L71.2358 48.6724L28.2357 23.6633L27.4542 24.7749ZM67.5962 54.5234L24.5961 29.516L23.9813 30.7303L66.9815 55.7378L67.5962 54.5234ZM25.6353 27.6549L68.6354 52.6624L69.3377 51.4969L26.3376 26.4877L25.6353 27.6549Z" fill="#4A39E1"/>
<path d="M101.842 50.333L90.1265 56.248L101.837 48.6555L101.781 47.5775L89.8891 55.2947L101.578 45.9758L101.392 44.9922L89.8941 54.1511L101.03 43.5708L100.732 42.6933L89.4057 53.4538L100.171 41.3964L99.7519 40.6284L89.1766 52.4753L99.053 39.5623L98.5376 38.929L88.4777 52.0778L97.6382 38.0381L97.0184 37.5361L88.033 51.3047L96.0247 36.8894L95.319 36.5374L87.1623 51.2475L94.1518 36.1012L93.367 35.894L86.5256 50.7355L92.1392 35.702L91.2954 35.6599L85.5589 51.0033L89.9211 35.7138L89.0149 35.8266L84.7505 50.8012L87.6322 36.1046L86.7025 36.3622L83.75 51.3772L85.2153 36.8911L84.2502 37.3071L82.8288 51.4799L82.7984 38.0448L81.835 38.6023L81.8553 52.3305L80.3226 39.5757L79.3677 40.2663L80.8734 52.7481L77.9428 41.4082L77.0047 42.22L79.9976 53.8143L75.5647 43.5927L74.6703 44.519L79.0072 54.5267L73.3516 45.9893L72.5111 47.0066L78.2796 55.7259L71.2362 48.6723L70.4564 49.7822L77.3685 56.6825L69.338 51.4984L68.6357 52.6622L76.8144 57.9524L67.5966 54.5233L66.9818 55.7376L76.0346 59.1027L66.1347 57.5768L65.6243 58.8114L75.691 60.3609L64.89 60.7567L64.4841 61.9996L75.1015 61.6106L63.9586 63.8641L63.6588 65.0986L74.992 62.8047L63.2799 66.9967L63.1013 68.1892L74.64 64.0594L62.9329 69.9576L62.874 71.0911L74.7461 65.1171L62.8706 72.8326L62.9346 73.9071L74.6535 66.2911L63.1216 75.4684L63.3068 76.452L74.9785 67.1635L63.6858 77.9139L63.9839 78.8015L75.1554 68.1707L64.5279 80.0479L64.9388 80.8108L75.6708 68.8241L65.6647 81.9207L66.1885 82.5591L76.1002 69.5753L67.0526 83.4096L67.6723 83.9132L76.7975 69.9542L68.7014 84.5886L69.4071 84.9422L77.4426 70.4208L70.5389 85.3582L71.3238 85.5553L78.278 70.5084L72.5937 85.7608L73.4391 85.8046L79.0796 70.6667L74.7697 85.7557L75.6657 85.6479L80.0093 70.4595L77.1024 85.3599L78.0321 85.0921L80.9239 70.2911L79.4754 84.5784L80.4321 84.1675L81.8974 69.7892L81.9344 83.4079L82.8995 82.8521L82.8608 69.3126L84.3597 81.8988L85.3147 81.2167L83.8073 68.5462L86.7901 80.0344L87.7282 79.2243L84.7639 67.7951L89.1177 77.9021L90.0204 76.9708L85.6313 66.803L91.3729 75.4499L92.2234 74.4292L86.5155 65.843L93.4546 72.8175L94.2344 71.7177L87.2431 64.6826L95.3881 69.9408L96.0887 68.777L88.0145 63.566L97.0942 66.9765L97.7089 65.7605L88.5417 62.3314L98.5898 63.8523L99.1001 62.6177L89.1564 61.107L99.8092 60.7381L100.215 59.4935L89.4495 59.8691L100.766 57.565L101.059 56.3355L89.8806 58.6194L101.419 54.5082L101.598 53.314L89.9042 57.4758L101.785 51.4765L101.842 50.333Z" fill="#0F0661"/>
<path d="M99.0174 36.3355L96.9307 35.1245C93.158 32.9316 87.9318 33.2399 82.165 36.5696C78.9144 38.4458 75.8407 41.0816 73.1055 44.1958C71.748 45.7385 70.249 47.6973 68.8983 49.7807C68.8983 49.7807 66.6616 53.2435 65.0852 56.809C62.8014 61.9762 61.4759 67.3877 61.4894 72.3831C61.5079 78.923 63.8169 83.5243 67.5408 85.6868L69.6275 86.8961L99.0174 36.3355Z" fill="url(#paint3_linear_4007_208)"/>
<path d="M84.2517 37.7805C95.7095 31.1648 105.032 36.4769 105.069 49.6358C105.106 62.8031 95.8442 78.837 84.3864 85.4527C72.9336 92.065 63.6131 86.7596 63.5743 73.5923C63.5373 60.4334 72.7989 44.3928 84.2517 37.7805Z" fill="#646464"/>
<path d="M84.2991 54.015C87.9539 51.9047 90.9265 53.599 90.9383 57.7961C90.9501 61.9949 87.996 67.11 84.3412 69.2203C80.6881 71.329 77.7154 69.6363 77.7036 65.4375C77.6935 61.2387 80.646 56.1237 84.2991 54.015Z" fill="#646464"/>
<path d="M98.2869 62.9312L88.3398 57.1863C87.5853 56.7484 86.5411 56.8091 85.389 57.4743C84.7389 57.8499 84.1259 58.3754 83.5785 58.9986C83.3073 59.3068 83.0076 59.6975 82.7381 60.1135C82.7381 60.1135 82.2917 60.8057 81.9768 61.5181C81.5204 62.5506 81.2559 63.6319 81.2593 64.6306C81.2627 65.9376 81.7242 66.8572 82.4686 67.2883L92.4157 73.0333L98.2869 62.9312Z" fill="#302929"/>
<path d="M95.338 63.2193C97.6269 61.8971 99.4896 62.9582 99.498 65.5873C99.5048 68.2181 97.6555 71.4215 95.3649 72.7436C93.0761 74.064 91.2133 73.0047 91.2066 70.3739C91.1982 67.7465 93.0491 64.5414 95.338 63.2193Z" fill="#646464"/>
<path opacity="0.5" d="M70.4715 82.6065C70.4277 66.8977 81.4813 47.7514 95.1522 39.859C102.036 35.8843 108.269 35.5238 112.773 38.1411C112.776 38.1344 52.1336 3.11582 52.1336 3.11582C47.6299 0.498526 41.3915 0.867376 34.5081 4.84048C30.6276 7.08051 26.9594 10.2267 23.6953 13.9438C22.0751 15.7846 20.2864 18.1223 18.6729 20.61C18.6729 20.61 16.0034 24.7447 14.1221 28.9991C11.3954 35.1667 9.81386 41.6258 9.8307 47.588C9.85259 55.3944 12.6097 60.8867 17.0527 63.4686L77.6968 98.4872C73.2538 95.8968 70.4934 90.4129 70.4715 82.6065Z" fill="#D6C9BA"/>
<path opacity="0.6" d="M70.4719 82.6061C70.4635 79.3252 70.962 75.8944 71.8428 72.4485L11.1903 37.4299C10.3094 40.8759 9.81932 44.3066 9.82774 47.5875C9.84964 55.3939 12.6067 60.8862 17.0497 63.4681L77.6939 98.4867C73.2542 95.8964 70.4938 90.4125 70.4719 82.6061Z" fill="#ADA59E"/>
<path opacity="0.4" d="M95.0093 39.9497L34.3617 4.93457C31.224 6.76701 28.2396 9.20745 25.4858 12.0437L86.1266 47.0555C88.882 44.2176 91.8715 41.7822 95.0093 39.9497Z" fill="#D6C9BA"/>
<path opacity="0.5" d="M95.1526 39.8586C100.616 36.704 105.672 35.8215 109.777 36.8994C115.949 38.5213 119.975 44.5761 120 54.0095C120.045 69.7268 108.99 88.8647 95.3125 96.7604C81.6416 104.653 70.5156 98.32 70.4718 82.6044C70.428 66.8973 81.4816 47.7509 95.1526 39.8586Z" fill="#ADA59E"/>
<path d="M95.2081 58.8334C97.0271 57.7824 98.7113 57.4894 100.079 57.8481C102.135 58.3887 103.476 60.4047 103.484 63.5475C103.5 68.7821 99.8178 75.1569 95.262 77.7877C90.7095 80.4168 87.0025 78.3081 86.9874 73.0718C86.9722 67.8389 90.6539 61.4624 95.2081 58.8334Z" fill="#646464"/>
<path d="M108.182 70.9144L97.7984 64.9202C97.2982 64.6288 96.606 64.6709 95.8413 65.1122C95.4102 65.3614 95.0026 65.7101 94.6405 66.1227C94.4603 66.3265 94.2615 66.5859 94.083 66.8621C94.083 66.8621 93.7866 67.3219 93.5777 67.7935C93.2745 68.479 93.0994 69.1947 93.1011 69.8566C93.1028 70.724 93.4093 71.3337 93.9028 71.62L104.286 77.6142L108.182 70.9144Z" fill="url(#paint4_linear_4007_208)"/>
<path d="M106.224 71.1064C107.744 70.2306 108.978 70.9329 108.983 72.6777C108.988 74.4226 107.76 76.5464 106.243 77.4239C104.725 78.2997 103.491 77.5974 103.486 75.8525C103.479 74.1076 104.707 71.9822 106.224 71.1064Z" fill="#646464"/>
<path d="M106.228 72.1016C107.267 71.502 108.112 71.9837 108.116 73.1778C108.119 74.3719 107.279 75.8271 106.24 76.4267C105.2 77.0263 104.355 76.5446 104.352 75.3505C104.348 74.158 105.189 72.7012 106.228 72.1016Z" fill="#302929"/>
<path opacity="0.5" d="M109.051 36.7144C108.574 36.6133 107.868 36.4684 106.954 36.4112C105.137 36.2731 102.459 36.4668 99.4843 37.543C98.0072 38.0685 96.4257 38.7775 94.8695 39.6719C94.1014 40.1451 93.3116 40.6319 92.5048 41.1287C91.7301 41.6711 90.9654 42.2673 90.1722 42.8517C88.6462 44.093 87.127 45.4488 85.6904 46.9326C84.2605 48.4198 82.8744 49.9996 81.6045 51.667C80.3413 53.3394 79.1505 55.0691 78.1029 56.8443C77.5505 57.715 77.0486 58.6077 76.5855 59.5054C76.1038 60.3947 75.6288 61.2721 75.2347 62.1715C74.3623 63.9315 73.702 65.7151 73.0721 67.3994C72.513 69.1106 71.9909 70.7274 71.6473 72.2618C71.2111 73.7708 71.0696 75.2125 70.8287 76.4589C70.7075 77.7271 70.6031 78.8319 70.5155 79.7414C70.4868 81.5638 70.4717 82.6046 70.4717 82.6046C70.4717 82.6046 70.539 81.5654 70.6569 79.7482C70.7866 78.8505 70.945 77.7591 71.1269 76.5094C71.4317 75.2799 71.6422 73.8685 72.1054 72.3813C72.4877 70.874 73.0486 69.2857 73.6481 67.6116C74.3168 65.9627 75.0292 64.228 75.8932 62.4898C76.2907 61.6039 76.7673 60.7416 77.2507 59.8675C77.7156 58.9849 78.2175 58.1091 78.7733 57.2536C79.8225 55.5104 81.015 53.8144 82.2748 52.179C83.516 50.5267 84.8634 48.957 86.258 47.4783C87.661 46.0046 89.1414 44.6572 90.6302 43.4227C91.3999 42.8382 92.1578 42.2622 92.8989 41.6997C93.677 41.1894 94.4383 40.6908 95.1811 40.2041C96.7036 39.271 98.2042 38.5519 99.651 37.9893C102.536 36.8676 105.137 36.4904 106.949 36.5544C107.857 36.5645 108.564 36.6739 109.046 36.7514C109.524 36.8491 109.778 36.9013 109.778 36.9013C109.778 36.9013 109.524 36.8356 109.051 36.7144Z" fill="#FFF7E9"/>
<defs>
<linearGradient id="paint0_linear_4007_208" x1="26.6053" y1="20.0502" x2="19.4686" y2="32.4115" gradientUnits="userSpaceOnUse">
<stop stop-color="#544444"/>
<stop offset="0.0051" stop-color="#544444"/>
<stop offset="0.3142" stop-color="#413636"/>
<stop offset="0.6381" stop-color="#372F2F"/>
<stop offset="1" stop-color="#332C2C"/>
</linearGradient>
<linearGradient id="paint1_linear_4007_208" x1="42.0947" y1="-2.68098" x2="7.18778" y2="57.7794" gradientUnits="userSpaceOnUse">
<stop stop-color="#544444"/>
<stop offset="0.0051" stop-color="#544444"/>
<stop offset="0.3142" stop-color="#413636"/>
<stop offset="0.6381" stop-color="#372F2F"/>
<stop offset="1" stop-color="#332C2C"/>
</linearGradient>
<linearGradient id="paint2_linear_4007_208" x1="44.9133" y1="5.09365" x2="15.6693" y2="55.7459" gradientUnits="userSpaceOnUse">
<stop stop-color="#544444"/>
<stop offset="1" stop-color="#332C2C"/>
</linearGradient>
<linearGradient id="paint3_linear_4007_208" x1="90.6136" y1="31.4787" x2="61.3696" y2="82.1309" gradientUnits="userSpaceOnUse">
<stop stop-color="#544444"/>
<stop offset="1" stop-color="#332C2C"/>
</linearGradient>
<linearGradient id="paint4_linear_4007_208" x1="102.015" y1="67.354" x2="98.1398" y2="74.0659" gradientUnits="userSpaceOnUse">
<stop stop-color="#544444"/>
<stop offset="0.0051" stop-color="#544444"/>
<stop offset="0.3142" stop-color="#413636"/>
<stop offset="0.6381" stop-color="#372F2F"/>
<stop offset="1" stop-color="#332C2C"/>
</linearGradient>
</defs>
</svg>
