<svg width="1800" height="853" viewBox="0 0 1800 853" fill="none" xmlns="http://www.w3.org/2000/svg">
<path d="M0 848V380V200.084C0 195.628 5.38943 193.398 8.53817 196.551L655.48 844.467C658.626 847.618 656.394 853 651.942 853H5C2.23858 853 0 850.761 0 848Z" fill="#1600DB"/>
<path d="M1800 5V317.23V433.793C1800 438.266 1794.57 440.488 1791.44 437.3L1369.37 8.50745C1366.26 5.34637 1368.5 0 1372.94 0H1795C1797.76 0 1800 2.23856 1800 5Z" fill="#1600DB"/>
<path d="M0 5L0 103.135L0 132.929C0 137.383 5.38571 139.614 8.53554 136.464L136.464 8.53554C139.614 5.38571 137.383 0 132.929 0L5 0C2.23858 0 0 2.23859 0 5Z" fill="#1600DB"/>
<path d="M1800 848L1800 628.947L1800 550.071C1800 545.617 1794.61 543.386 1791.46 546.536L1493.54 844.464C1490.39 847.614 1492.62 853 1497.07 853L1795 853C1797.76 853 1800 850.761 1800 848Z" fill="#1600DB"/>
</svg>
