<svg width="40" height="33" viewBox="0 0 40 33" fill="none" xmlns="http://www.w3.org/2000/svg">
<path d="M10.2605 0H18.7694C19.0871 0 19.2887 0.323784 19.136 0.588748L10.3601 15.8113C10.2074 16.0762 10.409 16.4 10.7267 16.4H15.0284C15.1797 16.4 15.3191 16.3223 15.3931 16.1968L24.8183 0.20319C24.8923 0.0777049 25.0317 0 25.183 0H29.7408C29.8893 0 30.0266 0.0749367 30.1016 0.196859L39.9428 16.2005C40.0187 16.3238 40.0191 16.4764 39.9439 16.6001L30.1012 32.8013C30.0266 32.9243 29.8886 33 29.7393 33H21.0251C20.7066 33 20.5051 32.6748 20.6594 32.4098L29.6369 16.9902C29.7912 16.7252 29.5897 16.4 29.2712 16.4H25.1793C25.03 16.4 24.8921 16.4757 24.8174 16.5987L14.9738 32.8013C14.8991 32.9243 14.7612 33 14.6119 33H10.0544C9.90376 33 9.76477 32.9229 9.69058 32.7982L0.0541982 16.5991C-0.0191189 16.4758 -0.0179807 16.3248 0.0571868 16.2026L9.89968 0.196859C9.97465 0.0749363 10.112 0 10.2605 0Z" fill="#1600DB"/>
</svg>
