<svg width="20" height="20" viewBox="0 0 20 20" fill="none" xmlns="http://www.w3.org/2000/svg">
<g clip-path="url(#clip0_507_833)">
<path d="M19.7008 8.96671L18.86 6.44587C18.6394 5.78187 18.2152 5.20426 17.6477 4.7951C17.0801 4.38595 16.398 4.16607 15.6983 4.16671H14.0833C13.8899 3.22622 13.3782 2.38116 12.6344 1.77397C11.8906 1.16678 10.9602 0.834586 10 0.833374H4.16667C3.062 0.834697 2.00296 1.27411 1.22185 2.05522C0.440735 2.83634 0.00132321 3.89538 0 5.00004L0 16.25C0.00712928 16.8262 0.183939 17.3875 0.508324 17.8637C0.832709 18.34 1.29028 18.71 1.82382 18.9276C2.35737 19.1452 2.94322 19.2007 3.50814 19.0871C4.07305 18.9736 4.59196 18.6961 5 18.2892C5.40804 18.6961 5.92695 18.9736 6.49186 19.0871C7.05678 19.2007 7.64263 19.1452 8.17618 18.9276C8.70972 18.71 9.16729 18.34 9.49168 17.8637C9.81606 17.3875 9.99287 16.8262 10 16.25V15.8334H12.5V16.25C12.5 17.0236 12.8073 17.7655 13.3543 18.3124C13.9013 18.8594 14.6431 19.1667 15.4167 19.1667C16.1902 19.1667 16.9321 18.8594 17.4791 18.3124C18.026 17.7655 18.3333 17.0236 18.3333 16.25V15.3859C18.8399 15.0934 19.2606 14.6727 19.5532 14.1662C19.8457 13.6596 19.9998 13.085 20 12.5V10.8117C20.0001 10.1846 19.8991 9.56163 19.7008 8.96671ZM17.2792 6.97337L18.01 9.16671H14.1667V5.83337H15.6983C16.0481 5.83347 16.389 5.94361 16.6728 6.14821C16.9565 6.35282 17.1686 6.6415 17.2792 6.97337ZM1.66667 5.00004C1.66667 4.337 1.93006 3.70111 2.3989 3.23227C2.86774 2.76343 3.50363 2.50004 4.16667 2.50004H10C10.663 2.50004 11.2989 2.76343 11.7678 3.23227C12.2366 3.70111 12.5 4.337 12.5 5.00004V14.1667H1.66667V5.00004ZM2.91667 17.5C2.58515 17.5 2.2672 17.3683 2.03278 17.1339C1.79836 16.8995 1.66667 16.5816 1.66667 16.25V15.8334H4.16667V16.25C4.16667 16.5816 4.03497 16.8995 3.80055 17.1339C3.56613 17.3683 3.24819 17.5 2.91667 17.5ZM8.33333 16.25C8.33333 16.5816 8.20164 16.8995 7.96722 17.1339C7.7328 17.3683 7.41485 17.5 7.08333 17.5C6.75181 17.5 6.43387 17.3683 6.19945 17.1339C5.96503 16.8995 5.83333 16.5816 5.83333 16.25V15.8334H8.33333V16.25ZM16.6667 16.25C16.6667 16.5816 16.535 16.8995 16.3005 17.1339C16.0661 17.3683 15.7482 17.5 15.4167 17.5C15.0851 17.5 14.7672 17.3683 14.5328 17.1339C14.2984 16.8995 14.1667 16.5816 14.1667 16.25V15.8334H16.6667V16.25ZM16.6667 14.1667H14.1667V10.8334H18.3333V12.5C18.3333 12.9421 18.1577 13.366 17.8452 13.6786C17.5326 13.9911 17.1087 14.1667 16.6667 14.1667Z" fill="#1600DB"/>
</g>
<defs>
<clipPath id="clip0_507_833">
<rect width="20" height="20" fill="white"/>
</clipPath>
</defs>
</svg>
