<svg width="20" height="20" viewBox="0 0 20 20" fill="none" xmlns="http://www.w3.org/2000/svg">
<g clip-path="url(#clip0_107_75)">
<path d="M17.9715 16.0242C22.9715 9.60754 18.1381 -0.104127 9.99981 3.96513e-05C1.90481 -0.146627 -2.98603 9.65837 2.03397 16.0292C1.61182 16.2354 1.27138 16.5777 1.0675 17.001C0.863614 17.4242 0.808171 17.9038 0.910099 18.3625C1.01203 18.8211 1.26539 19.232 1.62936 19.5291C1.99334 19.8262 2.44673 19.9921 2.91647 20H17.0831C17.5539 19.9932 18.0087 19.8279 18.374 19.5308C18.7393 19.2338 18.9939 18.8223 19.0965 18.3627C19.1992 17.9032 19.144 17.4225 18.9399 16.9982C18.7358 16.5739 18.3946 16.2308 17.9715 16.0242ZM17.0831 18.3334H2.91647C2.80597 18.3275 2.70231 18.278 2.62831 18.1957C2.55432 18.1134 2.51603 18.0051 2.52189 17.8946C2.52775 17.7841 2.57726 17.6805 2.65955 17.6065C2.74183 17.5325 2.85013 17.4942 2.96064 17.5C3.22079 17.5065 3.47608 17.4289 3.68865 17.2788C3.90121 17.1287 4.05971 16.914 4.14064 16.6667C4.27564 16.135 3.95397 15.75 3.58064 15.3059C-0.916858 10.0142 3.05731 1.58337 9.99981 1.66671C16.964 1.58837 20.934 10.0375 16.3848 15.3425C16.044 15.7484 15.7223 16.1317 15.859 16.6617C15.9437 16.9158 16.1092 17.1352 16.3302 17.2866C16.5512 17.4379 16.8156 17.5129 17.0831 17.5C17.1936 17.5 17.2996 17.5439 17.3778 17.6221C17.4559 17.7002 17.4998 17.8062 17.4998 17.9167C17.4998 18.0272 17.4559 18.1332 17.3778 18.2113C17.2996 18.2895 17.1936 18.3334 17.0831 18.3334ZM9.99981 3.33337C8.23231 3.33536 6.53777 4.03837 5.28796 5.28819C4.03814 6.538 3.33513 8.23254 3.33314 10C3.64647 18.8234 16.3548 18.8209 16.6665 10C16.6645 8.23254 15.9615 6.538 14.7117 5.28819C13.4618 4.03837 11.7673 3.33536 9.99981 3.33337ZM9.30481 10.905C9.2872 10.6758 9.24701 10.4489 9.18481 10.2275C9.12223 10.0077 9.03851 9.79452 8.93481 9.59087C9.33713 9.43274 9.70045 9.18939 9.99981 8.87754C10.1464 9.03029 10.3087 9.16716 10.484 9.28587C10.6665 9.40889 10.8621 9.51119 11.0673 9.59087C10.8593 10.0005 10.7342 10.447 10.699 10.905C10.2392 10.8095 9.76462 10.8095 9.30481 10.905ZM14.2665 7.39504L13.0781 7.87087L12.6615 8.03754C12.4594 8.11833 12.2406 8.14844 12.0243 8.12523C11.8079 8.10201 11.6005 8.02619 11.4201 7.90438C11.2398 7.78257 11.092 7.61847 10.9897 7.42641C10.8874 7.23435 10.8336 7.02016 10.8331 6.80254V5.07004C11.5381 5.19026 12.2093 5.45993 12.8014 5.86095C13.3936 6.26196 13.8931 6.78503 14.2665 7.39504ZM9.16647 5.07004V6.80254C9.1659 7.01981 9.11223 7.23365 9.01015 7.42545C8.90807 7.61725 8.76066 7.7812 8.58075 7.90302C8.40085 8.02485 8.1939 8.10087 7.97791 8.12445C7.76192 8.14804 7.54344 8.11849 7.34148 8.03837L5.73314 7.39504C6.10647 6.78503 6.60599 6.26196 7.19817 5.86095C7.79035 5.45993 8.46147 5.19026 9.16647 5.07004ZM4.99981 10C4.9998 9.64455 5.03751 9.29007 5.11231 8.94254L6.52898 9.51004C6.78155 9.61082 7.00757 9.76833 7.18955 9.97041C7.37153 10.1725 7.5046 10.4137 7.57846 10.6754C7.65233 10.9371 7.66502 11.2123 7.61554 11.4797C7.56607 11.7471 7.45576 11.9996 7.29314 12.2175L6.37647 13.4417C5.49196 12.5143 4.99891 11.2816 4.99981 10ZM7.70898 14.4434L8.66647 13.1667C8.82733 12.9681 9.03053 12.808 9.26121 12.6979C9.49189 12.5879 9.74424 12.5308 9.99981 12.5308C10.2554 12.5308 10.5077 12.5879 10.7384 12.6979C10.9691 12.808 11.1723 12.9681 11.3331 13.1667L12.2898 14.4434C11.5806 14.8055 10.7957 14.9944 9.99939 14.9944C9.20309 14.9944 8.41814 14.8055 7.70898 14.4434ZM13.6256 13.4434L12.709 12.2234C12.5455 12.0054 12.4344 11.7528 12.3843 11.4849C12.3342 11.2171 12.3464 10.9414 12.4201 10.6791C12.4937 10.4167 12.6268 10.1749 12.809 9.97234C12.9912 9.76975 13.2176 9.61185 13.4706 9.51087L14.8873 8.94337C15.0569 9.73962 15.0305 10.5652 14.8103 11.3489C14.5901 12.1327 14.1827 12.8512 13.6231 13.4425L13.6256 13.4434Z" fill="#1600DB"/>
</g>
<defs>
<clipPath id="clip0_107_75">
<rect width="20" height="20" fill="white"/>
</clipPath>
</defs>
</svg>
