<svg width="20" height="20" viewBox="0 0 20 20" fill="none" xmlns="http://www.w3.org/2000/svg">
<g clip-path="url(#clip0_107_73)">
<path d="M18.9414 15.875L18.1247 15.4167C18.2497 15.0167 18.3414 14.6 18.3414 14.1667C18.3414 13.7333 18.2581 13.3083 18.1247 12.9167L18.9414 12.4583C19.3414 12.2333 19.4831 11.725 19.2664 11.325C19.0414 10.925 18.5331 10.775 18.1331 11L17.3164 11.4583C16.7247 10.775 15.9247 10.275 15.0081 10.0833V9.16667C15.0081 8.70833 14.6331 8.33333 14.1747 8.33333C13.7164 8.33333 13.3414 8.70833 13.3414 9.16667V10.0833C12.4247 10.2667 11.6247 10.775 11.0331 11.4583L10.2164 11C9.8164 10.775 9.30807 10.9167 9.08307 11.325C8.85807 11.725 8.99974 12.2333 9.40807 12.4583L10.2247 12.9167C10.0997 13.3167 10.0081 13.7333 10.0081 14.1667C10.0081 14.6 10.0914 15.025 10.2247 15.4167L9.40807 15.875C9.00807 16.1 8.8664 16.6083 9.08307 17.0083C9.23307 17.2833 9.5164 17.4333 9.80807 17.4333C9.94974 17.4333 10.0831 17.4 10.2164 17.325L11.0331 16.8667C11.6247 17.55 12.4247 18.05 13.3414 18.2417V19.1583C13.3414 19.6167 13.7164 19.9917 14.1747 19.9917C14.6331 19.9917 15.0081 19.6167 15.0081 19.1583V18.2417C15.9247 18.0583 16.7247 17.55 17.3164 16.8667L18.1331 17.325C18.2581 17.4 18.3997 17.4333 18.5414 17.4333C18.8331 17.4333 19.1164 17.2833 19.2664 17.0083C19.4914 16.6083 19.3497 16.1 18.9414 15.875ZM14.1664 16.6667C12.7914 16.6667 11.6664 15.5417 11.6664 14.1667C11.6664 12.7917 12.7914 11.6667 14.1664 11.6667C15.5414 11.6667 16.6664 12.7917 16.6664 14.1667C16.6664 15.5417 15.5414 16.6667 14.1664 16.6667ZM8.97474 8.54167L9.7914 9C9.9164 9.075 10.0581 9.10833 10.1997 9.10833C10.4914 9.10833 10.7747 8.95833 10.9247 8.68333C11.1497 8.28333 11.0081 7.775 10.5997 7.55L9.78307 7.09167C9.90807 6.69167 9.99974 6.275 9.99974 5.84167C9.99974 5.40833 9.9164 4.98333 9.78307 4.59167L10.5997 4.13333C10.9997 3.90833 11.1414 3.4 10.9247 3C10.6997 2.6 10.1914 2.45 9.7914 2.675L8.97474 3.13333C8.38307 2.45 7.58307 1.95 6.6664 1.75833V0.833333C6.6664 0.375 6.2914 0 5.83307 0C5.37474 0 4.99974 0.375 4.99974 0.833333V1.75C4.08307 1.93333 3.28307 2.44167 2.6914 3.125L1.87474 2.66667C1.47474 2.44167 0.966403 2.58333 0.741403 2.99167C0.516403 3.39167 0.65807 3.9 1.0664 4.125L1.88307 4.58333C1.75807 4.98333 1.6664 5.4 1.6664 5.83333C1.6664 6.26667 1.74974 6.69167 1.88307 7.08333L1.0664 7.54167C0.666403 7.76667 0.524737 8.275 0.741403 8.675C0.891403 8.95 1.17474 9.1 1.4664 9.1C1.60807 9.1 1.7414 9.06667 1.87474 8.99167L2.6914 8.53333C3.28307 9.21667 4.08307 9.71667 4.99974 9.90833V10.825C4.99974 11.2833 5.37474 11.6583 5.83307 11.6583C6.2914 11.6583 6.6664 11.2833 6.6664 10.825V9.90833C7.58307 9.725 8.38307 9.21667 8.97474 8.53333V8.54167ZM5.83307 8.33333C4.45807 8.33333 3.33307 7.20833 3.33307 5.83333C3.33307 4.45833 4.45807 3.33333 5.83307 3.33333C7.20807 3.33333 8.33307 4.45833 8.33307 5.83333C8.33307 7.20833 7.20807 8.33333 5.83307 8.33333Z" fill="#1600DB"/>
</g>
<defs>
<clipPath id="clip0_107_73">
<rect width="20" height="20" fill="white"/>
</clipPath>
</defs>
</svg>
