<svg width="20" height="20" viewBox="0 0 20 20" fill="none" xmlns="http://www.w3.org/2000/svg">
<g clip-path="url(#clip0_107_67)">
<path d="M19.6558 6.825C19.5488 6.74799 19.4251 6.6973 19.2948 6.67703C19.1645 6.65676 19.0312 6.66748 18.9058 6.70833L14.0475 8.30083C13.9177 8.33846 13.7806 8.34371 13.6482 8.3161C13.5159 8.2885 13.3923 8.2289 13.2883 8.1425C12.9941 7.69085 12.5921 7.31948 12.1186 7.06185C11.645 6.80422 11.1149 6.66841 10.5758 6.66667H9.16667V4.16667H10.8333C11.0543 4.16667 11.2663 4.07887 11.4226 3.92259C11.5789 3.76631 11.6667 3.55435 11.6667 3.33333C11.6667 3.11232 11.5789 2.90036 11.4226 2.74408C11.2663 2.5878 11.0543 2.5 10.8333 2.5H5.83333C5.61232 2.5 5.40036 2.5878 5.24408 2.74408C5.0878 2.90036 5 3.11232 5 3.33333C5 3.55435 5.0878 3.76631 5.24408 3.92259C5.40036 4.07887 5.61232 4.16667 5.83333 4.16667H7.5V6.66667H4.9775L3.37167 5.99083C2.99363 5.8502 2.58718 5.80312 2.18701 5.85362C1.78683 5.90412 1.40482 6.05069 1.07357 6.28083C0.742325 6.51097 0.471679 6.81784 0.284735 7.17524C0.0977905 7.53265 9.95396e-05 7.92999 0 8.33333L0 9.55417C0.000132015 10.244 0.2143 10.9169 0.612968 11.4799C1.01164 12.0429 1.57516 12.4683 2.22583 12.6975L3.33333 13.09V13.3333C3.33333 14.2174 3.68452 15.0652 4.30964 15.6904C4.93476 16.3155 5.78261 16.6667 6.66667 16.6667H10.9575C11.562 16.6672 12.1594 16.536 12.708 16.2821C13.2566 16.0282 13.7433 15.6578 14.1342 15.1967L19.8008 8.52167C19.9292 8.37103 19.9999 8.17961 20 7.98167V7.5C20.0001 7.3683 19.9689 7.23846 19.9091 7.12112C19.8492 7.00379 19.7625 6.90231 19.6558 6.825ZM2.77917 11.1275C2.45391 11.0128 2.17224 10.8001 1.97298 10.5186C1.77373 10.2371 1.6667 9.90071 1.66667 9.55583V8.33333C1.66566 8.19874 1.69773 8.06595 1.76007 7.94665C1.82241 7.82736 1.9131 7.7252 2.02417 7.64917C2.12884 7.57383 2.24998 7.52455 2.37752 7.50542C2.50506 7.48629 2.63533 7.49786 2.7575 7.53917L3.33333 7.78333V11.3225L2.77917 11.1275ZM12.8625 14.1183C12.6279 14.3946 12.336 14.6166 12.007 14.7688C11.6781 14.921 11.32 14.9999 10.9575 15H6.66667C6.22464 15 5.80072 14.8244 5.48816 14.5118C5.17559 14.1993 5 13.7754 5 13.3333V8.33333H10.5758C10.8477 8.33406 11.1147 8.40532 11.3507 8.54014C11.5868 8.67496 11.7838 8.86873 11.9225 9.1025C11.9579 9.16334 12.0011 9.21935 12.0508 9.26917C12.3706 9.58708 12.7701 9.81303 13.2074 9.92329C13.6446 10.0336 14.1035 10.0241 14.5358 9.89583L17.1875 9.0275L12.8625 14.1183ZM19.5108 13.8308C19.744 14.0639 19.9028 14.3609 19.9671 14.6842C20.0315 15.0075 19.9985 15.3426 19.8723 15.6472C19.7462 15.9518 19.5326 16.2121 19.2585 16.3953C18.9844 16.5784 18.6622 16.6762 18.3325 16.6762C18.0028 16.6762 17.6806 16.5784 17.4065 16.3953C17.1324 16.2121 16.9188 15.9518 16.7927 15.6472C16.6665 15.3426 16.6335 15.0075 16.6979 14.6842C16.7622 14.3609 16.921 14.0639 17.1542 13.8308L17.8208 13.0808C17.8849 13.0086 17.9635 12.9507 18.0516 12.9111C18.1396 12.8714 18.2351 12.8509 18.3317 12.8509C18.4282 12.8509 18.5237 12.8714 18.6118 12.9111C18.6998 12.9507 18.7785 13.0086 18.8425 13.0808L19.5108 13.8308Z" fill="#1600DB"/>
</g>
<defs>
<clipPath id="clip0_107_67">
<rect width="20" height="20" fill="white"/>
</clipPath>
</defs>
</svg>
