<svg width="20" height="20" viewBox="0 0 20 20" fill="none" xmlns="http://www.w3.org/2000/svg">
<g clip-path="url(#clip0_123_2)">
<path d="M14.9827 10.8533C14.0502 9.9233 12.6385 9.75497 11.5327 10.3475L7.50602 6.3208V3.74913C7.50602 2.90497 7.05185 2.11913 6.32102 1.69747L3.83685 0.264967C3.06102 -0.183366 2.07685 -0.0525329 1.44185 0.5808L0.587685 1.43663C-0.0464812 2.06913 -0.175648 3.05413 0.271852 3.82997L1.70435 6.31413C2.12602 7.0458 2.91269 7.49997 3.75602 7.49997H6.32769L10.3494 11.5216C10.1177 11.945 9.99435 12.4208 9.99435 12.9166C9.99435 13.6966 10.2985 14.4283 10.851 14.98L15.0294 19.1466C15.5777 19.6933 16.3244 20 17.096 20C17.9169 20 18.836 19.5658 19.361 18.9258C20.2994 17.7825 20.1744 16.03 19.0769 14.9366L14.9827 10.8533ZM3.14769 5.48247L1.71519 2.99747C1.64352 2.87413 1.66435 2.71663 1.76602 2.61497L2.62019 1.75997C2.72185 1.65913 2.87935 1.63747 3.00352 1.70913L5.48685 3.14247C5.70352 3.26747 5.83852 3.5008 5.83852 3.74997V5.8333H3.75519C3.50519 5.8333 3.27269 5.69913 3.14769 5.48247ZM18.0727 17.8683C17.8427 18.1491 17.5177 18.3133 17.1585 18.3316C16.8077 18.3483 16.4577 18.2158 16.2069 17.9666L12.0285 13.8C11.7919 13.5641 11.6619 13.2508 11.6619 12.9166C11.6619 12.5825 11.7927 12.27 12.0285 12.0333C12.2735 11.7891 12.596 11.6666 12.9177 11.6666C13.2394 11.6666 13.561 11.7891 13.806 12.0333L17.901 16.1158C18.3977 16.6116 18.4727 17.3808 18.0727 17.8683ZM8.69769 14.2491C9.02269 14.5758 9.02185 15.1025 8.69602 15.4275L4.96519 19.1458C4.41685 19.6925 3.67102 19.9991 2.89852 19.9991C2.16435 19.9991 1.15852 19.565 0.633519 18.9241C-0.303981 17.7816 -0.179815 16.0291 0.918519 14.9358L5.64185 10.2233C5.96685 9.8983 6.49519 9.8983 6.82019 10.225C7.14519 10.5508 7.14435 11.0783 6.81852 11.4033L2.09435 16.1158C1.59769 16.6116 1.52102 17.3808 1.92102 17.8675C2.15185 18.1491 2.47685 18.3133 2.83602 18.3316C3.19102 18.3475 3.53685 18.2158 3.78769 17.9666L7.51935 14.2483C7.84519 13.9233 8.37185 13.9233 8.69852 14.25L8.69769 14.2491ZM8.24435 3.86163C9.01102 1.90913 10.7644 0.466634 12.8202 0.097467C13.5394 -0.0308663 14.2619 -0.0333663 14.9694 0.092467C15.5244 0.1908 15.9719 0.582467 16.1377 1.11247C16.3285 1.71997 16.1377 2.3883 15.6277 2.89997L13.6819 4.7683C13.2777 5.17247 13.2119 5.81913 13.5444 6.2258C13.736 6.45997 14.0052 6.59663 14.3035 6.61247C14.5944 6.62663 14.8819 6.51913 15.0927 6.3083L17.271 4.20747C17.676 3.80247 18.2819 3.65163 18.8485 3.83247C19.4019 4.00663 19.8077 4.46747 19.9085 5.0333C20.0335 5.73997 20.0319 6.46413 19.9035 7.18413C19.6694 8.49413 18.9869 9.71413 17.9819 10.62C17.8227 10.7633 17.6227 10.8341 17.4244 10.8341C17.1969 10.8341 16.9694 10.7416 16.8052 10.5591C16.4969 10.2175 16.5244 9.68997 16.866 9.38163C17.5969 8.7233 18.0927 7.8383 18.2627 6.89163C18.3444 6.43497 18.356 5.97913 18.2985 5.53163L16.261 7.49747C15.7319 8.0283 14.986 8.31747 14.221 8.27747C13.4577 8.23913 12.741 7.87663 12.2544 7.28163C11.386 6.21997 11.501 4.5933 12.516 3.57913L14.461 1.7108L14.4685 1.7033C14.0227 1.64663 13.5677 1.6583 13.1144 1.73997C11.6244 2.00663 10.3535 3.05413 9.79602 4.47247C9.62852 4.9008 9.14435 5.11163 8.71602 4.9433C8.28769 4.77497 8.07602 4.29163 8.24519 3.8633L8.24435 3.86163Z" fill="#1600DB"/>
</g>
<defs>
<clipPath id="clip0_123_2">
<rect width="20" height="20" fill="white"/>
</clipPath>
</defs>
</svg>
