<svg width="20" height="20" viewBox="0 0 20 20" fill="none" xmlns="http://www.w3.org/2000/svg">
<g clip-path="url(#clip0_107_69)">
<path d="M17.9167 7.50004H17.5V7.08337C17.5 5.93504 16.565 5.00004 15.4167 5.00004H13.3333V2.50004H15.8333C16.2933 2.50004 16.6667 2.12671 16.6667 1.66671C16.6667 1.20671 16.2933 0.833374 15.8333 0.833374H9.16667C8.70667 0.833374 8.33333 1.20671 8.33333 1.66671C8.33333 2.12671 8.70667 2.50004 9.16667 2.50004H11.6667V5.00004H9.53083C8.78667 5.00004 8.08667 5.32837 7.61083 5.90004L6.27667 7.50004H6.25C5.10167 7.50004 4.16667 8.43504 4.16667 9.58337V10.8334H1.66667V8.33337C1.66667 7.87337 1.29333 7.50004 0.833333 7.50004C0.373333 7.50004 0 7.87337 0 8.33337V15C0 15.46 0.373333 15.8334 0.833333 15.8334C1.29333 15.8334 1.66667 15.46 1.66667 15V12.5H4.16667V14.3092C4.16667 14.9767 4.42667 15.605 4.89917 16.0775L6.4225 17.6009C6.89417 18.0734 7.5225 18.3334 8.19083 18.3334H15.4167C16.4233 18.3334 17.2642 17.6167 17.4583 16.6667H17.9167C19.065 16.6667 20 15.7317 20 14.5834V9.58337C20 8.43504 19.065 7.50004 17.9167 7.50004ZM18.3333 14.5834C18.3333 14.8134 18.1467 15 17.9167 15H16.6667C16.2067 15 15.8333 15.3734 15.8333 15.8334V16.25C15.8333 16.48 15.6467 16.6667 15.4167 16.6667H8.19083C7.96833 16.6667 7.75833 16.58 7.60083 16.4225L6.0775 14.8992C5.92 14.7417 5.83333 14.5325 5.83333 14.3092V9.58337C5.83333 9.35337 6.02 9.16671 6.25 9.16671H6.66667C6.91417 9.16671 7.14833 9.05671 7.30667 8.86671L8.89083 6.96671C9.04917 6.77587 9.2825 6.66671 9.53083 6.66671H15.4167C15.6467 6.66671 15.8333 6.85337 15.8333 7.08337V8.33337C15.8333 8.79337 16.2067 9.16671 16.6667 9.16671H17.9167C18.1467 9.16671 18.3333 9.35337 18.3333 9.58337V14.5834Z" fill="#1600DB"/>
</g>
<defs>
<clipPath id="clip0_107_69">
<rect width="20" height="20" fill="white"/>
</clipPath>
</defs>
</svg>
