<svg width="30" height="30" viewBox="0 0 30 30" fill="none" xmlns="http://www.w3.org/2000/svg">
<path d="M3.75 15C2.375 15 1.25 13.875 1.25 12.5V6.25C1.25 4.875 2.375 3.75 3.75 3.75H13.75C15.125 3.75 16.25 4.875 16.25 6.25V12.5C16.25 13.875 15.125 15 13.75 15H11.25V18.75L7.5 15H3.75ZM26.25 22.5C27.625 22.5 28.75 21.375 28.75 20V13.75C28.75 12.375 27.625 11.25 26.25 11.25H18.75V12.5C18.75 15.25 16.5 17.5 13.75 17.5V20C13.75 21.375 14.875 22.5 16.25 22.5H18.75V26.25L22.5 22.5H26.25Z" fill="#1600DB"/>
</svg>
