<svg width="25" height="25" viewBox="0 0 25 25" fill="none" xmlns="http://www.w3.org/2000/svg">
<g clip-path="url(#clip0_2007_1084)">
<path d="M1.90615 1.89592L2.9999 0.947998C4.26031 -0.312419 6.30198 -0.312419 7.5624 0.947998C7.59365 0.979248 9.52073 3.48967 9.52073 3.48967C10.7082 4.73967 10.7082 6.70842 9.52073 7.948L8.3124 9.46883C9.83323 12.9168 12.1978 15.2918 15.5311 16.7084L17.052 15.4897C18.2916 14.2918 20.2707 14.2918 21.5103 15.4897C21.5103 15.4897 24.0207 17.4167 24.052 17.448C25.3124 18.7084 25.3124 20.7501 24.1041 21.9584L23.0624 23.1563C21.8645 24.3543 20.2499 25.0105 18.4999 25.0105C10.5416 25.0105 -0.000104904 14.4584 -0.000104904 6.5105C-0.000104904 4.77092 0.656145 3.14592 1.90615 1.90633V1.89592ZM18.4999 22.9168C19.6874 22.9168 20.7811 22.4793 21.5311 21.7188L22.5728 20.5209C22.9999 20.0938 23.0207 19.3959 22.6145 18.948C22.6145 18.948 20.1249 17.0313 20.0936 17.0001C19.6666 16.573 18.9166 16.573 18.4791 17.0001C18.4478 17.0313 16.3541 18.7084 16.3541 18.7084C16.0624 18.9376 15.677 19.0001 15.3332 18.8647C11.0207 17.2188 7.92698 14.1355 6.14573 9.68758C6.01031 9.34383 6.0624 8.948 6.30198 8.64592C6.30198 8.64592 7.97906 6.54175 7.9999 6.52092C8.44781 6.073 8.44781 5.35425 7.9999 4.90633C7.96865 4.87508 6.05198 2.3855 6.05198 2.3855C5.60406 1.97925 4.90615 1.98966 4.42698 2.46883L3.33323 3.41675C2.53115 4.21883 2.08323 5.31258 2.08323 6.50008C2.08323 13.7501 12.2603 22.9168 18.4999 22.9168Z" fill="white"/>
</g>
<defs>
<clipPath id="clip0_2007_1084">
<rect width="25" height="25" fill="white" transform="matrix(-1 0 0 1 25 0)"/>
</clipPath>
</defs>
</svg>
