<svg width="144" height="153" viewBox="0 0 144 153" fill="none" xmlns="http://www.w3.org/2000/svg">
<g clip-path="url(#clip0_4007_1006)">
<path d="M0.000442505 43.929L0.199738 110.777L71.8564 153L71.6681 86.3096L0.000442505 43.929Z" fill="#E2E2E2"/>
<path d="M71.6676 86.3096L71.856 153L144 110.766L143.812 43.9629L71.6676 86.3096Z" fill="#A9A9A9"/>
<path d="M-0.00012207 42.2457L71.6675 84.4691L101.508 67.0047L118.808 56.8698L143.812 42.2346L72.1439 0L47.5827 14.3776L29.9951 24.6807L-0.00012207 42.2457Z" fill="#E3E3E3"/>
<path d="M71.6675 84.4691V86.3096L143.812 43.9628V42.2346L71.6675 84.4691Z" fill="#E2E2E2"/>
<path d="M0.000320435 42.2457V43.929L71.668 86.3096V84.4691L0.000320435 42.2457Z" fill="#A9A9A9"/>
<path d="M132.699 110.131L128.788 109.456L128.773 104.332L132.684 104.83L132.699 110.131Z" fill="#646464"/>
<path d="M132.945 98.6458L136.829 99.2106L132.96 104.175L129.076 103.749L132.945 98.6458Z" fill="#646464"/>
<path d="M137.061 104.612L133.166 109.858L133.151 104.557L137.046 99.4881L137.061 104.612Z" fill="#646464"/>
<path d="M139.752 108.283L126.126 116.26L126.081 100.389L139.708 92.4114L139.752 108.283ZM139.102 93.4698L126.686 100.739L126.726 115.206L139.142 107.937L139.102 93.4698Z" fill="#646464"/>
<path d="M123.742 117.655L110.121 125.63L110.077 109.758L123.698 101.784L123.742 117.655ZM123.097 102.839L110.681 110.108L110.722 124.575L123.137 117.306L123.097 102.84V102.839Z" fill="#646464"/>
<path d="M119.478 115.444L118.572 115.975L118.554 109.833L117.653 110.36L119.003 106.833L120.362 108.774L119.461 109.302L119.478 115.444Z" fill="#646464"/>
<path d="M115.31 117.885L114.403 118.416L114.386 112.274L113.484 112.802L114.834 109.274L116.193 111.215L115.292 111.743L115.31 117.885Z" fill="#646464"/>
<path d="M121.119 116.885L112.726 121.799L112.723 120.628L121.116 115.715L121.119 116.885Z" fill="#646464"/>
<path d="M106.272 127.883L92.6518 135.857L92.6074 119.986L106.228 112.012L106.272 127.883ZM105.627 113.067L93.2117 120.336L93.252 134.803L105.668 127.534L105.627 113.067Z" fill="#646464"/>
<path d="M99.8156 123.072L99.8294 127.993L102.267 126.566L102.271 127.737L96.6897 131.004L96.6862 129.834L99.0749 128.435L99.0611 123.514C96.9489 124.529 95.2871 123.43 95.2802 120.913L103.575 116.056C103.582 118.573 101.927 121.615 99.8156 123.073V123.072Z" fill="#646464"/>
<path d="M89.6539 121.716L89.6982 137.587L76.0776 145.561L76.0332 129.69L89.6539 121.716ZM76.6778 144.506L89.0934 137.238L89.0531 122.771L76.6374 130.04L76.6778 144.506Z" fill="#646464"/>
<path d="M83.2542 137.513C83.2554 137.817 83.4622 137.937 83.7225 137.784C83.9777 137.634 84.1833 137.273 84.1822 136.969L84.181 136.666L84.9356 136.224V136.528C84.9384 137.312 84.3918 138.272 83.7242 138.663C83.0509 139.058 82.5008 138.74 82.4985 137.955L82.4824 132.18L79.0621 134.182C79.6496 132.254 80.9381 130.366 82.4743 129.308L82.4714 128.334L83.226 127.892L83.2289 128.867C84.7656 128.125 86.0611 128.501 86.6572 129.736L83.2369 131.738L83.2531 137.514L83.2542 137.513Z" fill="#646464"/>
<path d="M19.819 66.2979L16.306 64.2414L13.7341 62.7356L13.7387 61.2457L13.7497 57.3592L19.834 60.9209L19.823 64.8074L19.819 66.2979Z" fill="#EEEEEE"/>
<path d="M26.4951 71.0062L26.4888 73.1801L7.05512 61.8029L7.06146 59.629L26.4951 71.0062Z" fill="#383838"/>
<path d="M26.4678 80.4425L26.4637 81.8753L7.03008 70.498L7.03411 69.0653L26.4678 80.4425Z" fill="#383838"/>
<path d="M26.4551 85.1362L26.451 86.5607L7.01796 75.1835L7.02141 73.7589L26.4551 85.1362Z" fill="#383838"/>
<path d="M26.4575 84.2717L7.02381 72.8945L7.02727 71.4699L26.4609 82.8472L26.4575 84.2717Z" fill="#383838"/>
<path d="M5.10259 56.1899L13.738 61.2457L13.7339 62.7362L16.3058 64.242L19.8188 66.2985L19.8228 64.808L28.2676 69.7522L28.2134 89.2013L5.04844 75.6397L5.10259 56.1905V56.1899ZM7.02354 72.8945L26.4572 84.2717L26.4612 82.8472L7.02758 71.4699L7.02354 72.8945ZM7.03046 70.4986L26.4641 81.8758L26.4682 80.4431L7.0345 69.0659L7.03046 70.4986ZM7.06099 59.6295L7.05465 61.8035L26.4883 73.1807L26.4941 71.0068L7.06042 59.6295H7.06099ZM26.4514 86.5613L26.4555 85.1367L7.02181 73.7595L7.01779 75.1841L26.4514 86.5613Z" fill="white"/>
<path d="M29.9957 24.6807L101.509 67.0047L103.037 67.903L120.325 57.7792L118.809 56.8698L47.5833 14.3776L29.9957 24.6807Z" fill="#5644F9"/>
<path d="M120.33 57.7786V77.0426L103.172 87.7125L103.036 67.903L120.33 57.7786Z" fill="#1600DB"/>
</g>
<defs>
<clipPath id="clip0_4007_1006">
<rect width="144" height="153" fill="white" transform="matrix(-1 0 0 1 144 0)"/>
</clipPath>
</defs>
</svg>
