<svg width="151" height="121" viewBox="0 0 151 121" fill="none" xmlns="http://www.w3.org/2000/svg">
<path d="M130.362 69.6692C130.384 61.7144 130.206 51.5855 119.615 45.7055C89.3643 28.9084 53.0914 32.584 32.3879 44.6175C22.1009 50.5947 20.9075 63.3374 20.8853 71.1909L22.7068 76.4449C22.7291 68.5914 27.8776 60.75 38.1645 54.7727C58.8701 42.7392 92.6669 42.7473 113.506 54.7788C123.998 60.8351 129.238 68.8041 129.215 76.7589L131.345 71.6427L130.362 69.6692Z" fill="url(#paint0_linear_4007_1096)"/>
<path d="M150.999 71.8556L150.985 76.8096C150.954 87.8726 143.699 98.9173 129.209 107.338C100.034 124.293 52.4269 124.293 23.0614 107.338C8.28849 98.8099 0.909154 87.5869 0.939547 76.3801L0.953707 71.426C0.921288 82.6329 10.5194 89.9414 25.2923 98.4696C54.6578 115.425 96.9119 116.067 126.087 99.1139C140.578 90.6931 150.985 76.8096 150.999 71.8556Z" fill="url(#paint1_linear_4007_1096)"/>
<path d="M128.879 40.8975C99.5259 23.9504 51.8943 23.9504 22.7314 40.8975C-6.44368 57.8526 -6.27547 85.4351 23.0779 102.382C52.4434 119.337 100.051 119.337 129.226 102.382C158.387 85.4351 158.245 57.8526 128.879 40.8975ZM113.778 93.4649C93.0725 105.498 59.2636 105.498 38.4222 93.4649C17.5809 81.4313 17.4714 61.8482 38.177 49.8167C58.8826 37.7852 92.6794 37.7913 113.519 49.8249C134.36 61.8564 134.484 81.4334 113.778 93.4649Z" fill="#AFA6FF"/>
<path opacity="0.7" d="M142.849 81.3989H147.469L147.027 75.4236L140.888 60.9689L130.623 41.9571C130.048 41.6025 129.479 41.2439 128.877 40.8975C99.5234 23.9504 51.8918 23.9504 22.7289 40.8975C-6.44612 57.8526 -6.27791 85.4351 23.0755 102.382C32.9896 108.106 45.0008 111.844 57.6625 113.702H81.46L83.1357 112.981H90.6163L93.0802 111.601H99.5437L99.5579 109.585H108.102L109.6 106.963H116.144L116.708 103.778H123.564L123.576 100.072H130.222L128.555 95.9186H136.033L136.305 91.3738H140.888L139.514 86.5069H144.722L142.849 81.3989ZM113.778 93.4649C93.0721 105.498 59.2632 105.498 38.4218 93.4649C17.5805 81.4334 17.471 61.8482 38.1766 49.8167C58.8822 37.7852 92.679 37.7913 113.518 49.8249C134.36 61.8564 134.483 81.4334 113.778 93.4649Z" fill="#1600DB"/>
<path d="M149.623 48.8502L149.56 70.7797L149.113 70.7878L149.098 76.1309L147.484 76.0417L147.467 81.3989L144.734 81.0464L144.718 86.511L140.903 85.7147L140.886 91.3779L136.05 89.9515L136.034 95.9226L130.241 93.6472L130.222 100.076L123.585 96.7007L123.564 103.782L116.167 98.9417L116.144 106.967L108.129 100.17L108.103 109.591L101.288 101.9C100.725 102.056 100.142 102.186 99.5703 102.327L99.544 111.607L94.444 103.476C93.1858 103.713 91.9194 103.93 90.6429 104.119L90.6186 112.989L87.3159 104.556C85.9888 104.706 84.6393 104.822 83.2959 104.915L83.3588 82.9854C84.7001 82.8922 86.0496 82.7767 87.3787 82.6268L90.5781 90.7984L90.6024 82.2074C91.9154 82.0149 93.2162 81.792 94.5069 81.5468L97.5948 86.4705L97.611 80.9045C98.8753 80.6188 100.125 80.3109 101.353 79.9725L104.275 83.2711L104.287 79.1012C105.473 78.7304 106.646 78.3272 107.789 77.8997L110.508 80.2055L110.518 76.8279C111.612 76.372 112.678 75.8837 113.729 75.3791L116.181 76.9839L116.189 74.1128C116.688 73.8392 117.184 73.5758 117.66 73.2982C118.144 73.0166 118.598 72.7289 119.062 72.4432L121.24 73.5515L121.248 71.0107C122.116 70.4008 122.951 69.7848 123.741 69.1445L125.574 69.8638L125.58 67.5601C126.316 66.8955 127.001 66.2208 127.643 65.5278L128.881 65.8925C127.039 59.7532 122.037 53.8691 113.847 49.142C92.8069 36.9951 58.6899 36.9991 37.7858 49.1461C30.3537 53.4659 25.5922 58.7502 23.4708 64.3141C23.8801 64.7883 24.2812 65.2624 24.729 65.7284L24.723 67.9572L26.425 67.3716C27.1382 68.0362 27.894 68.6907 28.7065 69.3309L28.7004 71.7644L30.7468 70.8425C31.6079 71.4443 32.5258 72.0318 33.4639 72.6053L33.4558 75.3224L35.8062 73.9567C36.8071 74.5018 37.8162 75.0286 38.8658 75.529L38.8577 78.6656L41.4734 76.7022C42.5797 77.1703 43.7205 77.6018 44.8693 78.0213L44.8592 81.8021L47.708 78.9958C48.9055 79.3788 50.1171 79.7456 51.3491 80.0758L51.3349 84.9407L54.3823 80.8295C55.6487 81.1233 56.9312 81.3827 58.226 81.6198L58.2057 88.5858L61.399 82.1527C62.7221 82.3492 64.0452 82.5194 65.3804 82.6653L65.3176 104.595C63.9803 104.449 62.6593 104.277 61.3362 104.082L57.2129 112.385L57.2392 103.359C56.2606 103.17 55.2819 102.982 54.3195 102.759L48.4456 110.683L48.4719 101.172C48.1984 101.087 47.9168 101.014 47.6453 100.927L40.1017 108.359L40.126 99.5981L32.3232 105.452L32.3455 97.8637L25.2316 101.997L25.2498 95.2216L18.9382 98.0643L18.9564 91.848L13.5506 93.7039L13.5668 87.8767L9.13754 88.989L9.15377 83.4231L5.7923 83.9884L5.80853 78.5846L3.54323 78.7933L3.55946 73.4502L2.43896 73.4704L2.50179 51.541C2.53421 51.541 2.54838 46.1858 2.54838 46.1858L3.7479 46.2507L3.76206 40.8792L6.1003 41.1811L6.1165 35.7024L9.55291 36.4176L9.56914 30.7382L14.0531 32.0593L14.0693 26.0699L19.5319 28.2156L19.5501 21.7662L25.8982 25L25.9184 17.8942L33.0546 22.5706L33.077 14.5185L41.4896 21.6568L42.6041 23.5189C47.6351 21.0834 52.1433 19.4624 58.0679 18.265L58.1024 7.84427L61.4051 16.2773L61.397 18.8586C63.2995 18.5527 65.2669 18.115 67.2101 17.9327L67.202 6.8859L68.6568 15.5033L68.6487 17.4059C72.1844 17.1324 75.7484 17.4626 79.3064 17.5943L79.3145 15.3088L79.7299 6.65897L79.6975 17.6065C82.0195 17.7017 84.3314 17.8699 86.621 18.1394L86.6291 15.8214L88.9227 7.28102L88.8903 18.4574C90.5376 18.6945 92.1666 18.9782 93.7774 19.3064L93.7855 16.8669L97.9007 8.56767L97.8663 20.046C98.8024 20.2891 99.7445 20.5201 100.66 20.7956L100.668 18.4149L106.536 10.4945L106.5 23.0609C106.717 23.1481 106.925 23.2433 107.138 23.3325L107.148 20.4674L114.7 13.0313L114.676 21.8168L122.239 16.1435L122.217 23.7478L129.057 19.7725L129.039 26.5723L135.043 23.8694L135.025 30.102L140.088 28.3635L140.072 34.207L144.13 33.1879L144.114 38.768L147.09 38.2655L147.074 43.6896L148.932 43.5194L148.916 48.8705L149.623 48.8502ZM75.9997 83.2367L75.173 91.8824L75.5154 113.81L75.9369 105.164C77.2944 105.168 78.6499 105.14 80.0075 105.087L81.4622 113.704L81.5251 91.775L80.0703 83.1577C78.7128 83.2124 77.3572 83.2407 75.9997 83.2367ZM66.351 91.4995L66.2882 113.429L68.5818 104.88C69.9251 104.982 71.2827 105.061 72.6403 105.103L72.703 83.1759C71.3455 83.1313 69.988 83.0543 68.6446 82.951L66.351 91.4995Z" fill="#1600DB"/>
<path d="M2.38021 49.6202L2.49568 51.5309L2.43289 73.4603L2.31738 71.5497L2.38021 49.6202ZM149.161 54.2014L149.098 76.1309L149.39 74.2283L149.453 52.2988L149.161 54.2014ZM3.00832 76.8927L3.53917 78.7832L3.60199 56.8537L3.07114 54.9633L3.00832 76.8927ZM147.469 81.3989L148.183 79.5287L148.245 57.5993L147.532 59.4675L147.469 81.3989ZM4.85216 82.1446L5.79028 83.9762L5.8531 62.0468L4.91495 60.2152L4.85216 82.1446ZM144.722 86.509L145.83 84.7057L145.893 62.7763L144.785 64.5796L144.722 86.509ZM7.81847 87.2182L9.13551 88.9769L9.19831 67.0495L7.8813 65.2908L7.81847 87.2182ZM140.89 91.3759L142.378 89.6698L142.44 67.7425L140.953 69.4485L140.89 91.3759ZM11.8607 92.0445L13.5505 93.6939L13.6134 71.7664L11.9236 70.1171L11.8607 92.0445ZM136.036 95.9207L137.875 94.3361L137.938 72.4067L136.098 73.9912L136.036 95.9207ZM16.9059 96.5407L18.9402 98.0562L19.003 76.1268L16.9687 74.6113L16.9059 96.5407ZM130.224 100.074L132.403 98.6438L132.465 76.7144L130.287 78.1429L130.224 100.074ZM22.8893 100.638L25.2315 101.989L25.2944 80.0597L22.9521 78.7081L22.8893 100.638ZM123.566 103.78L126.026 102.514L126.089 80.5844L123.629 81.8508L123.566 103.78ZM29.7013 104.269L32.3232 105.442L32.386 83.5122L29.7641 82.3391L29.7013 104.269ZM116.147 106.965L118.876 105.894L118.939 83.9641L116.209 85.036L116.147 106.965ZM37.2549 107.381L40.0997 108.349L40.1625 86.4219L37.3177 85.4533L37.2549 107.381ZM108.105 109.587L111.039 108.724L111.101 86.7947L108.167 87.6579L108.105 109.587ZM45.4042 109.918L48.4456 110.675L48.5084 88.7459L45.4671 87.9881L45.4042 109.918ZM99.546 111.603L102.65 110.959L102.713 89.0296L99.6088 89.6739L99.546 111.603ZM54.0479 111.838L57.2149 112.375L57.2777 90.4458L54.1108 89.9089L54.0479 111.838ZM90.6186 112.983L93.8423 112.564L93.9051 90.6343L90.6814 91.0537L90.6186 112.983ZM63.0321 113.131L66.2882 113.429L66.351 91.4995L63.0949 91.2016L63.0321 113.131ZM81.4622 113.704L84.7508 113.524L84.8136 91.5947L81.5251 91.773L81.4622 113.704ZM72.2188 113.749L75.5154 113.81L75.5782 91.8824L72.2816 91.8217L72.2188 113.749Z" fill="#4838D7"/>
<path d="M134.7 49.1238L149.623 48.8502L149.508 46.9396L134.585 47.2131C134.496 46.431 134.358 45.6448 134.186 44.8627L148.928 43.5112L148.412 41.6229L133.669 42.9743C133.412 42.2003 133.112 41.4344 132.763 40.6746L147.084 38.2594L146.152 36.4237L131.837 38.8348C131.418 38.0892 130.964 37.3476 130.462 36.6121L144.122 33.1838L142.797 31.4291L129.151 34.8574C128.571 34.1482 127.933 33.4492 127.268 32.7563L140.08 28.3574L138.398 26.7121L125.587 31.111C124.859 30.4464 124.103 29.792 123.291 29.1517L135.037 23.8613L132.996 22.3497L121.251 27.6402C120.389 27.0364 119.48 26.4548 118.533 25.8774L129.051 19.7644L126.709 18.4129L116.191 24.5259C115.204 23.9808 114.181 23.454 113.138 22.9576L122.231 16.1375L119.617 14.9603L110.524 21.7804C109.418 21.3124 108.283 20.8767 107.142 20.4614L114.694 13.0252L111.841 12.0527L104.289 19.4888C103.092 19.1058 101.888 18.7432 100.662 18.4088L106.53 10.4885L103.497 9.72663L97.6211 17.651C96.3547 17.3572 95.0661 17.1019 93.7774 16.8608L97.8926 8.56155L94.7196 8.02866L90.6045 16.3279C89.2814 16.1334 87.9583 15.9612 86.623 15.8153L88.9166 7.27496L85.6463 6.97711L83.3608 15.5215C82.0093 15.4242 80.6599 15.3493 79.3105 15.3007L79.7258 6.65087L76.4272 6.59009L76.0057 15.2358C74.6482 15.2318 73.2846 15.2642 71.9351 15.3128L70.4743 6.69947L67.2 6.8778L68.6548 15.4952C67.2992 15.5884 65.964 15.7039 64.6287 15.8498L61.326 7.41675L58.1024 7.83617L61.4051 16.2692C60.0921 16.4617 58.7913 16.6845 57.5006 16.9297L52.4007 8.79658L49.2905 9.44498L54.3985 17.574C53.1341 17.8597 51.884 18.1677 50.6562 18.5061L43.8421 10.8147L40.9082 11.6859L47.7222 19.3794C46.5288 19.7542 45.3638 20.1534 44.221 20.5809L35.8002 13.4386L33.0789 14.5145L41.4917 21.6527C40.3894 22.1127 39.3318 22.5969 38.2802 23.1035L28.3863 16.6278L25.9184 17.8901L35.8103 24.3739C35.32 24.6434 34.8215 24.9068 34.3393 25.1884C33.8631 25.466 33.4072 25.7538 32.9391 26.0435L21.7222 20.3297L19.5501 21.7622L30.761 27.472C29.8938 28.0839 29.0529 28.7018 28.2688 29.3381L15.9171 24.4874L14.0693 26.0678L26.427 30.9226C25.6935 31.5872 25.0006 32.2659 24.3643 32.9548L11.0543 29.0382L9.5671 30.7361L22.869 34.6568C22.2895 35.37 21.7586 36.0934 21.2703 36.8269L7.21471 33.899L6.11449 35.6983L20.1701 38.6261C19.7527 39.3758 19.3698 40.1296 19.0436 40.8894L4.47329 39.005L3.76006 40.8732L18.3304 42.7596C18.0811 43.5336 17.8826 44.3116 17.7327 45.0937L2.85233 44.2792L2.54638 46.1818L17.4267 46.9963C17.3396 47.7824 17.295 48.5686 17.3071 49.3548L2.38428 49.6283L2.49975 51.539L17.4307 51.2695C17.5118 52.0557 17.6435 52.8378 17.8238 53.6158L3.07521 54.9713L3.60606 56.8618L18.3405 55.5063C18.5917 56.2843 18.8977 57.0462 19.2401 57.8121L4.91902 60.2273L5.85717 62.059L20.1701 59.6478C20.5814 60.3975 21.0374 61.1391 21.5459 61.8705L7.88336 65.2989L9.20037 67.0575L22.8629 63.6293C23.4363 64.3425 24.0665 65.0374 24.7311 65.7304L11.9256 70.1232L13.6154 71.7725L26.427 67.3736C27.1402 68.0382 27.896 68.6927 28.7085 69.333L16.9688 74.6193L19.003 76.1349L30.7488 70.8445C31.61 71.4463 32.5278 72.0339 33.466 72.6073L22.9541 78.7162L25.2964 80.0677L35.8083 73.9587C36.8092 74.5038 37.8182 75.0306 38.8678 75.5311L29.7662 82.3472L32.388 83.5203L41.4755 76.7043C42.5818 77.1723 43.7225 77.6039 44.8714 78.0233L37.3198 85.4594L40.1645 86.4279L47.708 78.9958C48.9055 79.3788 50.1171 79.7456 51.3491 80.0758L45.4671 87.9962L48.5084 88.754L54.3843 80.8295C55.6507 81.1233 56.9333 81.3827 58.228 81.6198L54.1128 89.919L57.2797 90.456L61.401 82.1527C62.7241 82.3492 64.0472 82.5194 65.3825 82.6653L63.0969 91.2097L66.353 91.5076L68.6467 82.9591C69.99 83.0604 71.3475 83.1374 72.7051 83.184L72.2836 91.8297L75.5803 91.8905L76.0017 83.2448C77.3593 83.2488 78.7148 83.2205 80.0723 83.1678L81.5271 91.7851L84.8156 91.6068L83.3608 82.9895C84.7021 82.8963 86.0516 82.7808 87.3808 82.6308L90.6835 91.0639L93.9072 90.6444L90.6045 82.2114C91.9174 82.0189 93.2182 81.7961 94.5089 81.5509L99.6088 89.682L102.713 89.0377L97.613 80.9066C98.8773 80.6209 100.128 80.3129 101.355 79.9745L108.169 87.6659L111.103 86.8028L104.289 79.1012C105.475 78.7304 106.648 78.3272 107.791 77.8997L116.211 85.042L118.941 83.9702L110.52 76.8279C111.614 76.372 112.68 75.8837 113.731 75.3791L123.631 81.8568L126.091 80.5905L116.191 74.1107C116.69 73.8372 117.186 73.5738 117.662 73.2962C118.146 73.0145 118.6 72.7268 119.064 72.4411L130.289 78.1509L132.467 76.7225L121.251 71.0086C122.118 70.3988 122.952 69.7828 123.743 69.1425L136.1 73.9973L137.94 72.4128L125.583 67.558C126.318 66.8934 127.003 66.2187 127.645 65.5258L140.955 69.4505L142.442 67.7445L129.14 63.8238C129.72 63.1106 130.251 62.3872 130.739 61.6537L144.789 64.5856L145.897 62.7823L131.841 59.8545C132.259 59.1048 132.642 58.351 132.968 57.5912L147.538 59.4756L148.251 57.6074L133.675 55.7271C133.938 54.9531 134.123 54.1751 134.287 53.393L149.167 54.2075L149.459 52.3049L134.579 51.4904C134.66 50.7002 134.713 49.91 134.7 49.1238ZM114.149 71.2639C93.2527 83.4069 59.1357 83.4109 38.0958 71.2639C17.0559 59.117 16.9525 39.3535 37.8486 27.2106C58.7507 15.0636 92.8697 15.0595 113.908 27.2065C134.947 39.3535 135.051 59.117 114.149 71.2639Z" fill="#A59CF7"/>
<path d="M130.362 42.0625C130.384 34.1077 130.206 23.9788 119.615 18.0988C89.3643 1.30173 53.0914 4.97725 32.3879 17.0108C22.1009 22.988 20.9075 35.7307 20.8853 43.5842L22.7068 48.8381C22.7291 40.9846 27.8776 33.1433 38.1645 27.166C58.8701 15.1325 92.6669 15.1406 113.506 27.1741C123.998 33.2304 129.238 41.1994 129.215 49.1542L131.345 44.0381L130.362 42.0625Z" fill="url(#paint2_linear_4007_1096)"/>
<path d="M150.999 44.2488L150.985 49.2049C150.954 60.2679 143.699 71.3126 129.209 79.7335C100.034 96.6886 52.4269 96.6886 23.0614 79.7335C8.28849 71.2052 0.909154 59.9822 0.939547 48.7754L0.953707 43.8213C0.921288 55.0282 10.5194 62.3366 25.2923 70.8648C54.6578 87.8199 96.9119 88.4643 126.087 71.5092C140.578 63.0863 150.985 49.2029 150.999 44.2488Z" fill="url(#paint3_linear_4007_1096)"/>
<path d="M128.879 13.2928C99.5259 -3.65421 51.8943 -3.65421 22.7314 13.2928C-6.44368 30.2479 -6.27547 57.8304 23.0779 74.7774C52.4434 91.7325 100.051 91.7305 129.226 74.7774C158.387 57.8304 158.245 30.2459 128.879 13.2928ZM113.778 65.8582C93.0725 77.8917 59.2636 77.8917 38.4222 65.8582C17.5809 53.8246 17.4714 34.2415 38.177 22.21C58.8826 10.1765 92.6794 10.1846 113.519 22.2182C134.36 34.2497 134.484 53.8267 113.778 65.8582Z" fill="#D3D3D3"/>
<path opacity="0.3" d="M122.385 17.0656C96.6343 2.19942 54.8482 2.19942 29.2656 17.0656C3.67082 31.9398 3.81872 56.1364 29.5695 71.0046C55.3305 85.8788 97.0942 85.8768 122.689 71.0046C148.272 56.1364 148.148 31.9398 122.385 17.0656ZM120.722 69.8659C96.2128 84.108 56.1956 84.108 31.5268 69.8659C6.85801 55.6239 6.72837 32.4423 31.2351 18.2002C55.7438 3.95815 95.7468 3.96625 120.416 18.2083C145.082 32.4524 145.228 55.6239 120.722 69.8659Z" fill="#929086"/>
<path d="M10.416 40.5631C11.7087 31.9843 17.9818 23.6202 29.2596 17.0675C54.8422 2.19931 96.6282 2.19931 122.379 17.0675C137.085 25.5592 143.423 37.0862 141.407 48.1856C143.05 37.2969 136.668 26.0617 122.259 17.7422C96.5087 2.87607 54.7226 2.87607 29.14 17.7422C18.1581 24.1227 11.9296 32.2213 10.416 40.5631ZM31.3992 70.5406C56.0681 84.7827 96.0852 84.7827 120.594 70.5406C131.396 64.2635 137.401 56.2519 138.637 48.0337C137.182 56.0149 131.221 63.761 120.716 69.8659C96.2088 84.1079 56.1896 84.1079 31.5208 69.8659C17.7265 61.9009 11.6115 51.1419 13.1818 40.7151C11.2387 51.3526 17.3071 62.4055 31.3992 70.5406Z" fill="#BEBDB6"/>
<defs>
<linearGradient id="paint0_linear_4007_1096" x1="20.8838" y1="55.5435" x2="131.345" y2="55.5435" gradientUnits="userSpaceOnUse">
<stop stop-color="#C7C7BF"/>
<stop offset="1" stop-color="#B2B1AB"/>
</linearGradient>
<linearGradient id="paint1_linear_4007_1096" x1="0.941573" y1="95.7397" x2="151" y2="95.7397" gradientUnits="userSpaceOnUse">
<stop stop-color="#B2B1AB"/>
<stop offset="1" stop-color="#C7C7BF"/>
</linearGradient>
<linearGradient id="paint2_linear_4007_1096" x1="20.8838" y1="27.9372" x2="131.345" y2="27.9372" gradientUnits="userSpaceOnUse">
<stop stop-color="#C7C7BF"/>
<stop offset="1" stop-color="#B2B1AB"/>
</linearGradient>
<linearGradient id="paint3_linear_4007_1096" x1="0.941573" y1="68.1335" x2="151" y2="68.1335" gradientUnits="userSpaceOnUse">
<stop stop-color="#B2B1AB"/>
<stop offset="1" stop-color="#C7C7BF"/>
</linearGradient>
</defs>
</svg>
