<svg width="149" height="163" viewBox="0 0 149 163" fill="none" xmlns="http://www.w3.org/2000/svg">
<path d="M22.6593 61.6618C20.3398 60.314 17.1267 60.5031 13.5788 62.5509C6.52441 66.6249 0.828701 76.488 0.852614 84.5859C0.863484 88.6077 2.28307 91.4381 4.5744 92.7686L104.671 150.565L121.908 118.969L22.6593 61.6618Z" fill="url(#paint0_linear_4007_898)"/>
<path d="M142.939 117.023C142.061 116.512 140.844 116.582 139.504 117.356L132.894 121.173L137.548 123.878L144.159 120.06C145.498 119.286 146.715 119.217 147.594 119.728L142.939 117.023Z" fill="#ECECE2"/>
<path d="M105.501 152.752L98.7471 151.991C99.584 154.895 101.158 157.019 103.256 158.239L107.91 160.943C105.812 159.724 105.501 152.752 105.501 152.752Z" fill="#B1B1B1"/>
<path d="M128.382 114.923C125.159 113.049 120.698 113.312 115.767 116.158C107.617 120.865 100.791 131.108 98.7148 140.904L103.369 143.608C105.445 133.813 112.269 123.567 120.422 118.862C125.352 116.017 129.813 115.754 133.037 117.628L128.382 114.923Z" fill="url(#paint1_linear_4007_898)"/>
<path d="M98.7174 140.906L92.1064 144.721L96.7608 147.428L103.372 143.611L98.7174 140.906Z" fill="#D3D3CB"/>
<path d="M96.7604 147.428L92.106 144.723C89.4429 146.26 87.295 149.995 87.3037 153.054C87.3081 154.569 87.8451 155.639 88.7125 156.141L93.3668 158.845C92.4994 158.341 91.9625 157.274 91.9581 155.758C91.9494 152.7 94.0973 148.965 96.7604 147.428Z" fill="url(#paint2_linear_4007_898)"/>
<path d="M144.159 120.062L137.548 123.88C135.422 116.51 128.563 114.167 120.422 118.864C112.271 123.571 105.445 133.815 103.369 143.61L96.7583 147.428C94.0952 148.965 91.9474 152.7 91.9561 155.758C91.9648 158.804 94.1278 160.05 96.7887 158.513L103.4 154.695C105.526 162.065 112.385 164.408 120.535 159.704C128.676 155.004 135.5 144.76 137.576 134.965L144.187 131.147C146.848 129.61 149.009 125.869 149 122.823C148.996 119.765 146.822 118.525 144.159 120.062Z" fill="#C7C7BF"/>
<path opacity="0.5" d="M120.802 127.973C113.554 132.158 107.704 142.291 107.728 150.61C107.752 158.93 113.641 162.284 120.889 158.102C128.128 153.921 133.98 143.789 133.956 135.469C133.93 127.149 128.041 123.793 120.802 127.973Z" fill="#B1B1B1"/>
<path d="M131.469 124.958C129.086 123.573 125.784 123.767 122.141 125.871C114.893 130.056 109.043 140.189 109.066 148.508C109.077 152.639 110.536 155.547 112.89 156.915L116.295 158.887L134.873 126.93L131.469 124.958Z" fill="url(#paint3_linear_4007_898)"/>
<path d="M125.547 127.841C118.299 132.026 112.449 142.158 112.473 150.478C112.497 158.798 118.386 162.152 125.634 157.969C132.873 153.789 138.723 143.656 138.701 135.336C138.675 127.017 132.786 123.66 125.547 127.841Z" fill="#CFCFC5"/>
<path d="M125.566 135.871C122.182 137.826 119.451 142.556 119.462 146.441C119.473 150.326 122.223 151.893 125.608 149.939C128.988 147.987 131.721 143.256 131.71 139.371C131.697 135.486 128.947 133.919 125.566 135.871Z" fill="url(#paint4_linear_4007_898)"/>
<path d="M144.654 122.823C143.541 123.467 142.641 125.023 142.646 126.304C142.65 127.582 143.554 128.099 144.669 127.456C145.783 126.812 146.683 125.256 146.678 123.975C146.674 122.697 145.767 122.18 144.654 122.823Z" fill="#B1B1B1"/>
<path d="M96.7792 150.465C95.6662 151.108 94.7662 152.665 94.7705 153.945C94.7749 155.224 95.6792 155.741 96.7945 155.097C97.9075 154.454 98.8075 152.897 98.8032 151.619C98.7966 150.337 97.8923 149.821 96.7792 150.465Z" fill="#B1B1B1"/>
<path opacity="0.6" d="M104.814 112.93L97.8926 107.545L93.5121 107.53L69.1598 102.962L56.2488 95.5078L58.8445 94.523L62.9553 90.6599L46.5748 77.9163L42.1943 77.9011C42.1943 77.9011 20.4028 73.8424 19.5833 73.7164C8.9049 72.0729 3.15702 75.8555 1.26787 80.6403C1.00265 81.9795 0.848281 83.3055 0.852629 84.5881C0.863498 88.6099 2.28309 91.4404 4.57441 92.7708L62.6097 126.28C65.8075 126.63 68.6337 126.43 70.7402 125.395C81.8468 119.938 91.9578 120.823 91.9578 120.823L90.0752 115.812C93.2252 115.458 96.3752 115.093 99.4926 114.467C101.319 114.095 103.084 113.562 104.814 112.93Z" fill="#B1B1B1"/>
<path d="M84.1748 75.4445L84.177 111.808C84.177 119.541 90.7836 121.714 96.9901 120.862C105.397 119.706 107.058 113.725 111.54 113.008L111.538 74.1902L84.1748 75.4445Z" fill="url(#paint5_linear_4007_898)"/>
<path d="M41.1143 50.5835L41.1164 86.9469C41.1164 94.6796 47.723 96.8535 53.9296 95.9991C62.3362 94.8426 63.9971 88.8621 68.4797 88.1447L68.4776 49.3248L41.1143 50.5835Z" fill="url(#paint6_linear_4007_898)"/>
<path d="M64.0254 125.393L64.0341 136.898L70.7515 132.984L70.7407 121.482L64.0254 125.393Z" fill="#C7C7BF"/>
<path d="M69.843 117.586C69.3386 116.443 68.6452 115.352 67.8343 114.428C67.1495 113.647 66.3799 112.989 65.5669 112.519C64.1277 111.689 62.8255 111.61 61.8842 112.158L55.1689 116.069C56.1103 115.523 57.4103 115.599 58.8516 116.43C59.6646 116.899 60.4342 117.56 61.119 118.339C61.9299 119.263 62.6234 120.354 63.1277 121.497C63.6973 122.786 64.0299 124.141 64.0256 125.391L70.7408 121.48C70.7452 120.23 70.4126 118.878 69.843 117.586Z" fill="#ECECE2"/>
<path d="M67.8334 114.428L61.1182 118.339C61.929 119.263 62.6225 120.354 63.1269 121.497L69.8422 117.586C69.3378 116.445 68.6443 115.352 67.8334 114.428Z" fill="#F6F6EB"/>
<path d="M58.849 116.432C55.9816 114.778 53.662 116.112 53.6533 119.406L53.6642 130.91L64.0338 136.897L64.023 125.393C64.0338 122.099 61.7164 118.086 58.849 116.432Z" fill="#B1B1B1"/>
<path d="M58.8489 119.739C59.9642 120.382 60.862 121.941 60.8598 123.219C60.8555 124.497 59.9511 125.015 58.8359 124.371C57.7228 123.728 56.8228 122.171 56.8272 120.893C56.8315 119.61 57.7381 119.095 58.8489 119.739Z" fill="#B1B1B1"/>
<path d="M19.2373 99.5363L19.2482 111.039L25.9635 107.128L25.9526 95.6232L19.2373 99.5363Z" fill="#C7C7BF"/>
<path d="M25.0549 91.7296C24.5505 90.5861 23.857 89.4948 23.0462 88.5709C22.3614 87.7926 21.5918 87.1317 20.7788 86.6622C19.3396 85.8317 18.0374 85.7535 17.0961 86.3013L10.3809 90.2122C11.32 89.6665 12.6222 89.7427 14.0635 90.5731C14.8766 91.0427 15.6461 91.7035 16.3309 92.4818C17.1418 93.4057 17.8353 94.497 18.3396 95.6405C18.9092 96.9297 19.2418 98.284 19.2374 99.534L25.9527 95.6231C25.9571 94.3731 25.6245 93.0187 25.0549 91.7296Z" fill="#ECECE2"/>
<path d="M23.0463 88.5709L16.3311 92.4819C17.1419 93.4058 17.8354 94.4971 18.3398 95.6406L25.055 91.7297C24.5507 90.5862 23.8572 89.4949 23.0463 88.5709Z" fill="#F6F6EB"/>
<path d="M14.0639 90.5731C11.1964 88.9187 8.87686 90.2535 8.86816 93.547L8.87901 105.051L19.2487 111.038L19.2378 99.534C19.2465 96.2405 16.9313 92.2296 14.0639 90.5731Z" fill="#B1B1B1"/>
<path d="M14.055 93.8752C15.1702 94.5186 16.068 96.0752 16.0659 97.3556C16.0615 98.6339 15.1572 99.1513 14.0419 98.5078C12.9289 97.8643 12.0289 96.3078 12.0332 95.0295C12.0376 93.7491 12.9441 93.2338 14.055 93.8752Z" fill="#B1B1B1"/>
<path d="M26.4395 56.364L31.3764 62.075C32.6852 63.5902 34.4352 65.0098 36.6222 66.2728L85.9248 94.7383C96.7705 101.004 114.323 101.004 125.099 94.7383C127.206 93.5144 128.897 92.1426 130.175 90.6795L135.145 84.9969L26.4395 56.364Z" fill="#C1BCA8"/>
<path d="M22.9352 23.3943L22.92 47.6901C22.9069 52.6488 26.1787 57.6163 32.7331 61.4011L82.0357 89.8666C95.0597 97.3862 116.11 97.3862 129.051 89.8666C135.48 86.1296 138.697 81.2426 138.712 76.3447L138.728 52.0488L22.9352 23.3943Z" fill="#1600DB"/>
<path d="M135.208 43.3769L130.271 37.666L31.4723 9.06143L26.5027 14.7463C20.1766 21.9789 22.2679 31.0573 32.7506 37.1073L82.0532 65.5728C89.0576 69.6163 98.3816 71.4859 107.519 71.1793C114.86 70.9337 122.08 69.2837 127.875 66.2315C128.28 66.0184 128.678 65.7989 129.067 65.5728C139.399 59.5662 141.436 50.5813 135.208 43.3769Z" fill="#2815D1"/>
<path d="M124.16 56.7098C119.332 59.2533 113.317 60.6272 107.197 60.8315L107.517 71.1794C114.858 70.9338 122.078 69.2837 127.874 66.2315L124.16 56.7098Z" fill="#FFFBEE"/>
<path d="M125.025 33.4682L75.7226 5.00273C64.8768 -1.26255 47.3223 -1.26255 36.5483 5.00273C25.7678 11.2658 25.8243 21.4333 36.6766 27.6942L85.9792 56.1597C96.8249 62.425 114.379 62.425 125.153 56.1597C132.071 52.1423 134.525 46.5161 132.532 41.3465C131.417 38.4595 128.914 35.7139 125.025 33.4682Z" fill="#4736E3"/>
<path d="M91.9092 58.7749C110.368 65.188 130.629 57.2183 132.779 47.6617C129.677 55.5727 114.485 64.388 91.9092 58.7749Z" fill="#FFFBEE"/>
<path d="M117.825 35.8334C116.499 35.0682 114.984 34.4943 113.406 34.0182C109.903 32.7486 105.832 32.2138 101.849 32.4117C96.5425 32.1464 91.0772 33.1834 87.0141 35.5291C79.714 39.7443 79.714 46.577 87.0141 50.7923C91.075 53.1379 96.5425 54.1727 101.849 53.9097C105.832 54.1075 109.903 53.5749 113.406 52.3032C114.986 51.8271 116.499 51.2532 117.825 50.4879C124.832 46.4401 124.832 39.8791 117.825 35.8334Z" fill="#D6D1BA"/>
<path d="M124.201 37.5378L91.8506 37.6356L91.8614 44.2117C91.868 46.5944 93.4332 48.9705 96.5593 50.7879C102.855 54.4467 113.094 54.4466 119.438 50.7836C122.627 48.9422 124.218 46.527 124.212 44.1139L124.201 37.5378Z" fill="#C1BCA8"/>
<path d="M88.5723 32.1095V38.6618C88.6179 41.4813 90.5027 44.2944 94.2288 46.4444C101.772 50.801 114.005 50.801 121.549 46.4444C125.366 44.2401 127.251 41.3444 127.205 38.4552V31.903L88.5723 32.1095Z" fill="url(#paint7_linear_4007_898)"/>
<path d="M107.89 43.1596C118.559 43.1596 127.207 38.1666 127.207 32.0073C127.207 25.8481 118.559 20.855 107.89 20.855C97.221 20.855 88.5723 25.8481 88.5723 32.0073C88.5723 38.1666 97.221 43.1596 107.89 43.1596Z" fill="#646464"/>
<defs>
<linearGradient id="paint0_linear_4007_898" x1="68.1258" y1="87.9129" x2="50.1333" y2="119.077" gradientUnits="userSpaceOnUse">
<stop stop-color="#E0DFD6"/>
<stop offset="0.0444" stop-color="#DDDCD4"/>
<stop offset="0.6586" stop-color="#BEBDB6"/>
<stop offset="1" stop-color="#B2B1AB"/>
</linearGradient>
<linearGradient id="paint1_linear_4007_898" x1="124.412" y1="112.631" x2="105.738" y2="144.977" gradientUnits="userSpaceOnUse">
<stop offset="0.7094" stop-color="#ECECE2"/>
<stop offset="0.7351" stop-color="#D7D6CE"/>
<stop offset="0.765" stop-color="#C6C5BE"/>
<stop offset="0.8023" stop-color="#BBBAB3"/>
<stop offset="0.8547" stop-color="#B4B3AD"/>
<stop offset="1" stop-color="#B2B1AB"/>
</linearGradient>
<linearGradient id="paint2_linear_4007_898" x1="95.1377" y1="146.473" x2="89.337" y2="156.52" gradientUnits="userSpaceOnUse">
<stop stop-color="#ECECE2"/>
<stop offset="0.3403" stop-color="#D7D7CE"/>
<stop offset="1" stop-color="#B2B1AB"/>
</linearGradient>
<linearGradient id="paint3_linear_4007_898" x1="128.514" y1="123.25" x2="110.029" y2="155.267" gradientUnits="userSpaceOnUse">
<stop offset="0.7094" stop-color="#ECECE2"/>
<stop offset="0.7351" stop-color="#D7D6CE"/>
<stop offset="0.765" stop-color="#C6C5BE"/>
<stop offset="0.8023" stop-color="#BBBAB3"/>
<stop offset="0.8547" stop-color="#B4B3AD"/>
<stop offset="1" stop-color="#B2B1AB"/>
</linearGradient>
<linearGradient id="paint4_linear_4007_898" x1="129.9" y1="135.432" x2="121.27" y2="150.38" gradientUnits="userSpaceOnUse">
<stop stop-color="#898883"/>
<stop offset="1" stop-color="#A5A49D"/>
</linearGradient>
<linearGradient id="paint5_linear_4007_898" x1="111.54" y1="97.6116" x2="84.1738" y2="97.6112" gradientUnits="userSpaceOnUse">
<stop stop-color="#C7C7BF"/>
<stop offset="0.3872" stop-color="#BDBDB6"/>
<stop offset="1" stop-color="#B2B1AB"/>
</linearGradient>
<linearGradient id="paint6_linear_4007_898" x1="68.4791" y1="72.7503" x2="41.1133" y2="72.7499" gradientUnits="userSpaceOnUse">
<stop stop-color="#C7C7BF"/>
<stop offset="0.3872" stop-color="#BDBDB6"/>
<stop offset="1" stop-color="#B2B1AB"/>
</linearGradient>
<linearGradient id="paint7_linear_4007_898" x1="88.5725" y1="40.8081" x2="127.207" y2="40.8081" gradientUnits="userSpaceOnUse">
<stop stop-color="#332C2C"/>
<stop offset="1" stop-color="#423737"/>
</linearGradient>
</defs>
</svg>
