<svg width="103" height="154" viewBox="0 0 103 154" fill="none" xmlns="http://www.w3.org/2000/svg">
<path d="M48.0113 153.684L7.31348 130.187V107.386L54.3176 130.535L48.0113 153.684Z" fill="#1600DB"/>
<path d="M93.7255 127.29L48.0112 153.684V130.883L93.7255 104.491V127.29Z" fill="#877BF4"/>
<path d="M101.816 104.943C101.151 103.438 100.238 101.999 99.1701 100.78C98.2696 99.7561 97.2584 98.888 96.1886 98.2692L53.3789 73.5534C52.64 73.127 51.972 73.0885 51.4887 73.3687L5.77441 99.9346C6.25774 99.6545 6.92733 99.693 7.66463 100.119L50.4743 124.835C51.5441 125.454 52.5554 126.32 53.4558 127.346C54.5256 128.563 55.4369 130.004 56.1034 131.509C56.8545 133.209 57.2901 134.991 57.2855 136.634L57.2794 138.973C57.2763 139.811 56.9807 140.4 56.5036 140.677L102.218 114.111C102.695 113.834 102.991 113.245 102.994 112.407L103 110.068C103.003 108.425 102.567 106.643 101.816 104.943Z" fill="url(#paint0_linear_4007_1144)"/>
<path d="M50.4742 124.837C54.2531 127.018 57.2977 132.311 57.2854 136.634L57.2793 138.973C57.2746 140.659 56.0802 141.339 54.6133 140.492L7.62759 113.365C6.16069 112.518 4.97391 110.463 4.97853 108.778L4.99854 101.64C5.00316 99.9547 6.19763 99.2743 7.66454 100.121L50.4742 124.837Z" fill="#646464"/>
<path d="M57.2933 29.3399C56.8438 23.1429 57.0855 17.2845 57.4211 14.48C57.6335 12.7283 57.2733 10.9797 56.5683 9.38507C56.0142 8.13058 55.2461 6.9715 54.3734 5.97869C53.4513 4.93046 52.4154 4.06692 51.3918 3.47585C49.871 2.59694 48.3795 2.31835 47.3451 2.92019L1.63086 29.4862L16.2168 104.857L61.9311 78.2912C62.1697 78.1527 62.3005 77.8341 62.2559 77.3846C61.3123 68.6986 57.8413 36.9053 57.2933 29.3399Z" fill="url(#paint1_linear_4007_1144)"/>
<path d="M5.67753 30.0419C8.90226 31.9029 12.2624 36.4606 11.7068 41.046C11.3712 43.8506 11.1296 49.7089 11.579 55.906C12.1285 63.4714 15.598 95.2646 16.5416 103.952C16.6262 104.796 16.089 105.181 15.381 104.773L6.0808 99.4037C5.49435 99.0651 4.99564 98.26 4.92791 97.5274L0.270133 33.67C-0.0792775 28.8844 2.74217 28.3472 5.67753 30.0419Z" fill="#646464"/>
<path d="M42.6226 4.72581C42.4472 4.33022 42.2332 3.9208 41.9685 3.49442C41.7607 3.15579 41.5329 2.84946 41.2927 2.57702C40.8694 2.09523 40.4061 1.71504 39.932 1.44259C38.8946 0.843819 37.8109 0.756096 37.0028 1.22557L17.9546 12.2943C18.7627 11.8248 19.8463 11.9126 20.8838 12.5114C21.3579 12.7854 21.8212 13.164 22.2445 13.6458C22.4846 13.9198 22.7124 14.2261 22.9202 14.5632C23.1834 14.9895 23.3989 15.399 23.5744 15.7946C25.0798 19.2025 23.5821 21.656 23.7853 26.5416C23.8099 27.1004 23.6329 27.4944 23.3281 27.6715L42.3764 16.6027C42.6811 16.4257 42.8581 16.0316 42.8335 15.4729C42.6303 10.5873 44.128 8.13371 42.6226 4.72581Z" fill="url(#paint2_linear_4007_1144)"/>
<path d="M20.8852 12.5097C21.6271 12.9376 22.346 13.6287 22.9217 14.563C25.4506 18.6651 23.5605 21.088 23.7867 26.5415C23.836 27.6221 23.1249 28.0869 22.2105 27.5574C21.2531 27.0048 20.7913 24.6082 16.8924 22.3578C16.7893 22.2978 16.6831 22.2377 16.5738 22.1793C16.1428 21.9314 15.8165 21.3527 15.8688 20.9186L16.7169 14.4568C17.0325 12.0017 19.0335 11.4415 20.8852 12.5097Z" fill="#646464"/>
<path d="M40.8126 128.768L10.2861 111.142V121.661L44.533 136.541V135.31L40.8126 128.768Z" fill="#1600DB"/>
<path d="M39.4474 132.439C39.4474 133.095 38.9164 133.32 38.2591 132.941C37.6034 132.562 37.0708 131.723 37.0708 131.068C37.0708 130.412 37.6018 130.187 38.2591 130.566C38.9148 130.944 39.4474 131.783 39.4474 132.439Z" fill="#A3A3A3"/>
<path d="M15.1041 118.384C15.1041 119.04 14.5715 119.265 13.9158 118.886C13.2601 118.507 12.7275 117.668 12.7275 117.013C12.7275 116.357 13.2601 116.132 13.9158 116.511C14.5715 116.89 15.1041 117.728 15.1041 118.384Z" fill="#A3A3A3"/>
<path d="M49.5017 33.659C40.3955 37.8781 25.9419 46.6288 20.9009 50.1721C26.3544 47.64 40.9142 39.7037 49.5017 33.659Z" fill="#646464"/>
<path d="M50.9563 48.81C43.1585 52.4226 29.2636 60.4667 22.3555 65.3231C30.061 61.7458 43.965 53.731 50.9563 48.81Z" fill="#646464"/>
<path d="M23.6748 80.5508C31.5958 76.8751 45.5076 68.8032 52.2772 64.0377C44.7656 67.5164 30.8139 75.5328 23.6748 80.5508Z" fill="#646464"/>
<defs>
<linearGradient id="paint0_linear_4007_1144" x1="40.6714" y1="79.6145" x2="71.07" y2="132.266" gradientUnits="userSpaceOnUse">
<stop offset="0.1773" stop-color="#332C2C"/>
<stop offset="0.197" stop-color="#504444"/>
<stop offset="0.7685" stop-color="#514545"/>
<stop offset="0.7995" stop-color="#483D3D"/>
<stop offset="0.8512" stop-color="#413737"/>
<stop offset="0.9951" stop-color="#3F3535"/>
</linearGradient>
<linearGradient id="paint1_linear_4007_1144" x1="15.6916" y1="21.1945" x2="48.8176" y2="78.5704" gradientUnits="userSpaceOnUse">
<stop stop-color="#413737"/>
<stop offset="0.008" stop-color="#463B3B"/>
<stop offset="0.0355" stop-color="#504444"/>
<stop offset="0.069" stop-color="#534747"/>
<stop offset="0.1527" stop-color="#4D4141"/>
<stop offset="0.266" stop-color="#3F3535"/>
</linearGradient>
<linearGradient id="paint2_linear_4007_1144" x1="27.5226" y1="6.69884" x2="41.9899" y2="31.7566" gradientUnits="userSpaceOnUse">
<stop stop-color="#413737"/>
<stop offset="0.008" stop-color="#463B3B"/>
<stop offset="0.0355" stop-color="#504444"/>
<stop offset="0.069" stop-color="#534747"/>
<stop offset="0.1527" stop-color="#4D4141"/>
<stop offset="0.266" stop-color="#3F3535"/>
</linearGradient>
</defs>
</svg>
