<svg width="40" height="40" viewBox="0 0 40 40" fill="none" xmlns="http://www.w3.org/2000/svg">
<path d="M8.2149 35.7132C8.51549 35.7343 8.76304 35.6156 9.00621 35.4721C10.0554 34.8534 11.1107 34.245 12.154 33.6164C12.4002 33.4681 12.5926 33.466 12.8424 33.6102C13.6589 34.0818 14.5232 34.4533 15.4347 34.6901C15.8416 34.7958 16.0287 35.0294 16.1043 35.4228C16.3299 36.5986 16.5719 37.7713 16.8018 38.9463C16.9459 39.6832 17.2709 39.981 18.0211 39.9885C19.3709 40.0018 20.7208 40.0018 22.0706 39.9972C22.761 39.9949 23.1252 39.6996 23.2626 39.0145C23.5059 37.8015 23.7362 36.5857 23.9584 35.3685C24.026 34.9984 24.2036 34.7839 24.5761 34.6878C25.4761 34.4557 26.3328 34.1038 27.1321 33.6255C27.3796 33.4773 27.5715 33.4863 27.8181 33.6327C28.8656 34.2539 29.923 34.8584 30.9811 35.4612C31.7794 35.9159 32.2119 35.8507 32.8455 35.1967C33.6587 34.3574 34.4714 33.5176 35.2816 32.6753C35.8173 32.1184 35.8637 31.6072 35.4488 30.9503C34.867 30.0292 34.2925 29.1034 33.7023 28.1878C33.4429 27.7852 33.379 27.4324 33.6668 26.9853C34.1279 26.2688 34.4342 25.4672 34.6471 24.6396C34.7588 24.2055 35.0048 24.0104 35.4366 23.9328C36.6334 23.7179 37.8252 23.474 39.0163 23.2287C39.7199 23.0838 39.9923 22.7262 39.9935 21.9968C39.9955 20.7176 39.994 19.4384 40 18.1591C40.0036 17.3689 39.7253 16.9871 38.9747 16.8353C37.8344 16.6047 36.6937 16.3729 35.5466 16.1812C35.0579 16.0995 34.7729 15.9109 34.6508 15.3945C34.4419 14.5112 34.0883 13.6753 33.5929 12.9111C33.4105 12.6297 33.4147 12.3896 33.5871 12.105C34.1997 11.0937 34.7942 10.0714 35.3986 9.05512C35.8245 8.33902 35.7769 7.80204 35.1988 7.21948C34.3289 6.34297 33.4511 5.47437 32.5699 4.60938C32.1435 4.19075 31.7187 4.1287 31.1146 4.44521C30.4704 4.78275 29.8495 5.16578 29.221 5.53355C28.7297 5.82111 28.2354 6.10475 27.7564 6.41222C27.5486 6.54569 27.384 6.53825 27.1762 6.42174C26.3188 5.94114 25.4216 5.55243 24.4687 5.30621C24.1247 5.21729 24.0336 4.94548 23.9732 4.65176C23.7588 3.60924 23.5392 2.56767 23.3419 1.52187C23.0285 -0.139355 22.6841 -0.00525284 21.5625 0.00770187C20.3849 0.0212975 19.207 0.0128212 18.0292 0.0143394C17.3813 0.0152206 17.0504 0.254478 16.9037 0.903809C16.6283 2.12337 16.3652 3.34615 16.1276 4.57363C16.0335 5.06007 15.7964 5.28949 15.3105 5.39672C14.4432 5.58809 13.6232 5.93506 12.8573 6.39319C12.6232 6.53321 12.434 6.52322 12.199 6.3872C11.1219 5.76377 10.0388 5.15083 8.9503 4.54781C8.20339 4.13406 7.82886 4.21882 7.24079 4.83432C6.47942 5.63127 5.69964 6.41047 4.92755 7.19709C4.30135 7.83515 4.23846 8.35861 4.68636 9.13012C5.27325 10.1411 5.85005 11.158 6.44337 12.165C6.60371 12.4372 6.60609 12.6647 6.43948 12.9402C5.95559 13.7405 5.6099 14.6049 5.38014 15.5117C5.27666 15.9201 5.07558 16.135 4.63744 16.2071C3.41157 16.4087 2.19262 16.6539 0.972863 16.892C0.29306 17.0247 0.00914581 17.3921 0.00835165 18.0916C0.00684274 19.3974 0.00422356 20.7033 1.4503e-05 22.0092C-0.00228857 22.7306 0.269472 23.0924 0.980803 23.2397C2.17173 23.486 3.36369 23.73 4.56136 23.9393C5.04159 24.0232 5.30732 24.2449 5.42668 24.7239C5.64301 25.5923 5.99721 26.4115 6.44043 27.1862C6.59219 27.4513 6.60188 27.6662 6.44202 27.9225C5.8236 28.9144 5.21861 29.9148 4.60306 30.9084C4.12704 31.6769 4.16198 32.1495 4.80104 32.7938C5.6519 33.6515 6.51738 34.4947 7.38103 35.3395C7.61317 35.5667 7.87548 35.7445 8.2149 35.7132ZM20.0597 30.8364C14.4366 30.9802 9.43752 26.1343 9.28265 20.3896C9.1193 14.3305 13.7644 9.36627 19.7429 9.21081C25.6595 9.05696 30.6478 13.7855 30.8173 19.677C30.9821 25.4027 26.3602 30.8781 20.0597 30.8364Z" fill="white"/>
</svg>
