<svg width="200" height="200" viewBox="0 0 200 200" fill="none" xmlns="http://www.w3.org/2000/svg">
<circle cx="100" cy="100" r="58" fill="#124FDC"/>
<path d="M41.0745 21.4338C42.5775 21.3283 43.8152 21.922 45.031 22.6393C50.2769 25.7332 55.5533 28.7752 60.7701 31.9178C62.0011 32.6595 62.9632 32.6699 64.212 31.949C68.2944 29.5912 72.6159 27.7336 77.1735 26.5497C79.2082 26.0211 80.1437 24.8532 80.5213 22.886C81.6494 17.0069 82.8597 11.1437 84.0089 5.26861C84.7296 1.58375 86.3545 0.0947781 90.1057 0.0575937C96.8545 -0.00917837 103.604 -0.00918188 110.353 0.0140084C113.805 0.0256036 115.626 1.50179 116.313 4.92755C117.53 10.9926 118.681 17.0717 119.792 23.1575C120.13 25.0079 121.018 26.0803 122.881 26.5609C127.38 27.7216 131.664 29.4809 135.66 31.8727C136.898 32.6136 137.857 32.5684 139.09 31.8367C144.328 28.7304 149.615 25.708 154.906 22.6941C158.897 20.4203 161.06 20.7465 164.228 24.0164C168.293 28.213 172.357 32.412 176.408 36.6235C179.086 39.4079 179.319 41.964 177.244 45.2487C174.335 49.8539 171.462 54.4828 168.512 59.0609C167.214 61.074 166.895 62.8381 168.334 65.0736C170.64 68.6561 172.171 72.664 173.235 76.8018C173.794 78.9725 175.024 79.9481 177.183 80.336C183.167 81.4107 189.126 82.6298 195.082 83.8565C198.6 84.581 199.961 86.369 199.967 90.0159C199.978 96.412 199.97 102.808 200 109.204C200.018 113.155 198.627 115.065 194.874 115.824C189.172 116.977 183.469 118.136 177.733 119.094C175.289 119.502 173.865 120.446 173.254 123.027C172.209 127.444 170.442 131.623 167.965 135.445C167.052 136.852 167.073 138.052 167.936 139.475C170.999 144.531 173.971 149.643 176.993 154.724C179.122 158.305 178.884 160.99 175.994 163.903C171.645 168.285 167.256 172.628 162.85 176.953C160.717 179.046 158.593 179.357 155.573 177.774C152.352 176.086 149.247 174.171 146.105 172.332C143.648 170.894 141.177 169.476 138.782 167.939C137.743 167.272 136.92 167.309 135.881 167.891C131.594 170.294 127.108 172.238 122.343 173.469C120.623 173.914 120.168 175.273 119.866 176.741C118.794 181.954 117.696 187.162 116.71 192.391C115.142 200.697 113.42 200.026 107.813 199.961C101.924 199.894 96.0349 199.936 90.1458 199.928C86.9064 199.924 85.2518 198.728 84.5187 195.481C83.1417 189.383 81.8257 183.269 80.6381 177.132C80.1675 174.7 78.9819 173.553 76.5525 173.016C72.216 172.06 68.1161 170.325 64.2867 168.034C63.1161 167.334 62.1702 167.384 60.9949 168.064C55.6097 171.181 50.1939 174.246 44.7515 177.261C41.0169 179.33 39.1443 178.906 36.2039 175.828C32.3971 171.844 28.4982 167.948 24.6378 164.015C21.5068 160.824 21.1923 158.207 23.4318 154.349C26.3662 149.295 29.2502 144.21 32.2168 139.175C33.0185 137.814 33.0305 136.676 32.1974 135.299C29.778 131.297 28.0495 126.975 26.9007 122.442C26.3833 120.4 25.3779 119.325 23.1872 118.965C17.0579 117.957 10.9631 116.731 4.86431 115.54C1.4653 114.876 0.0457291 113.039 0.0417583 109.542C0.0342137 103.013 0.0211178 96.4836 7.2515e-05 89.9539C-0.0114428 86.3471 1.34736 84.5378 4.90401 83.8017C10.8586 82.5698 16.8184 81.3499 22.8068 80.3036C25.208 79.8842 26.5366 78.7754 27.1334 76.3804C28.2151 72.0386 29.986 67.9424 32.2021 64.0692C32.961 62.7433 33.0094 61.669 32.2101 60.3875C29.118 55.428 26.0931 50.4261 23.0153 45.4578C20.6352 41.6154 20.8099 39.2524 24.0052 36.0309C28.2595 31.7423 32.5869 27.5265 36.9052 23.3023C38.0658 22.1667 39.3774 21.2775 41.0745 21.4338ZM100.298 45.818C72.183 45.0991 47.1876 69.3286 46.4133 98.0522C45.5965 128.347 68.8221 153.169 98.7144 153.946C128.297 154.715 153.239 131.072 154.087 101.615C154.91 72.9863 131.801 45.6097 100.298 45.818Z" fill="white"/>
<path d="M100.316 136.232C80.0917 136.252 64.3061 120.57 64.2686 100.419C64.2304 79.8182 80.0706 63.7552 100.412 63.7681C120.013 63.7805 136.1 79.774 136.21 99.3597C136.327 120.063 120.607 136.211 100.316 136.232ZM100.065 128.977C116.474 128.96 129.147 116.214 129.148 99.7244C129.149 84.0103 116.083 71.0307 100.255 71.0223C84.2562 71.0138 71.3163 84.1559 71.3662 100.364C71.4144 116.109 84.3367 128.992 100.065 128.977Z" fill="white"/>
</svg>
