<svg width="18" height="18" viewBox="0 0 18 18" fill="none" xmlns="http://www.w3.org/2000/svg">
<path d="M9 0.53125C13.7812 0.53125 17.7188 4.46875 17.7188 9.25C17.7188 14.0664 13.7812 17.9688 9 17.9688C4.18359 17.9688 0.28125 14.0664 0.28125 9.25C0.28125 4.46875 4.18359 0.53125 9 0.53125ZM13.0078 6.47266C13.043 6.36719 13.043 6.26172 13.0078 6.12109C13.0078 6.05078 12.9375 5.94531 12.9023 5.91016C12.7969 5.80469 12.6211 5.80469 12.5508 5.80469C12.2344 5.80469 11.707 5.98047 9.28125 7C8.4375 7.35156 6.75 8.05469 4.21875 9.17969C3.79688 9.35547 3.58594 9.49609 3.55078 9.67188C3.51562 9.95312 3.97266 10.0586 4.5 10.2344C4.95703 10.375 5.55469 10.5508 5.87109 10.5508C6.15234 10.5508 6.46875 10.4453 6.82031 10.1992C9.17578 8.58203 10.4062 7.77344 10.4766 7.77344C10.5469 7.77344 10.6172 7.73828 10.6523 7.77344C10.7227 7.84375 10.7227 7.91406 10.6875 7.94922C10.6523 8.125 8.4375 10.1641 8.29688 10.3047C7.80469 10.7969 7.24219 11.1133 8.12109 11.6758C8.85938 12.168 9.28125 12.4844 10.0547 12.9766C10.5469 13.293 10.9336 13.6797 11.4258 13.6445C11.6719 13.6094 11.918 13.3984 12.0234 12.7305C12.3398 11.2188 12.9023 7.84375 13.0078 6.47266Z" fill="#646464"/>
</svg>
