<svg width="15" height="15" viewBox="0 0 15 15" fill="none" xmlns="http://www.w3.org/2000/svg">
<g clip-path="url(#clip0_262_4058)">
<path d="M11.875 3.125H10.5625C10.4174 2.41963 10.0336 1.78584 9.47578 1.33045C8.91793 0.875056 8.22013 0.625909 7.5 0.625H3.125C2.2965 0.625992 1.50222 0.955551 0.916387 1.54139C0.330551 2.12722 0.000992411 2.9215 0 3.75L0 9.375C0.00157113 9.93477 0.190961 10.4778 0.537835 10.9172C0.884709 11.3565 1.369 11.6667 1.91313 11.7981C1.85423 12.1109 1.86429 12.4328 1.94262 12.7413C2.02095 13.0497 2.16565 13.3374 2.36662 13.5842C2.5676 13.831 2.82001 14.031 3.10624 14.1702C3.39247 14.3094 3.70563 14.3844 4.02386 14.3901C4.34208 14.3958 4.65771 14.3319 4.94872 14.203C5.23973 14.0741 5.49911 13.8833 5.70876 13.6438C5.9184 13.4043 6.07326 13.122 6.16254 12.8165C6.25181 12.511 6.27334 12.1897 6.22563 11.875H8.77688C8.76079 11.9784 8.75223 12.0829 8.75125 12.1875C8.75125 12.7677 8.98172 13.3241 9.39195 13.7343C9.80219 14.1445 10.3586 14.375 10.9388 14.375C11.5189 14.375 12.0753 14.1445 12.4855 13.7343C12.8958 13.3241 13.1263 12.7677 13.1263 12.1875C13.1255 12.0568 13.1128 11.9265 13.0881 11.7981C13.632 11.6665 14.116 11.3562 14.4627 10.9168C14.8093 10.4775 14.9985 9.9346 15 9.375V6.25C14.999 5.4215 14.6694 4.62722 14.0836 4.04139C13.4978 3.45555 12.7035 3.12599 11.875 3.125ZM13.75 6.25V6.875H10.625V4.375H11.875C12.3723 4.375 12.8492 4.57254 13.2008 4.92418C13.5525 5.27581 13.75 5.75272 13.75 6.25ZM1.25 9.375V3.75C1.25 3.25272 1.44754 2.77581 1.79917 2.42418C2.15081 2.07254 2.62772 1.875 3.125 1.875H7.5C7.99728 1.875 8.47419 2.07254 8.82583 2.42418C9.17746 2.77581 9.375 3.25272 9.375 3.75V10.625H2.5C2.16848 10.625 1.85054 10.4933 1.61612 10.2589C1.3817 10.0245 1.25 9.70652 1.25 9.375ZM5 12.1875C5 12.4361 4.90123 12.6746 4.72541 12.8504C4.5496 13.0262 4.31114 13.125 4.0625 13.125C3.81386 13.125 3.5754 13.0262 3.39959 12.8504C3.22377 12.6746 3.125 12.4361 3.125 12.1875C3.12538 12.0807 3.14508 11.9748 3.18313 11.875H4.94187C4.97992 11.9748 4.99962 12.0807 5 12.1875ZM10.9375 13.125C10.6889 13.125 10.4504 13.0262 10.2746 12.8504C10.0988 12.6746 10 12.4361 10 12.1875C10.0003 12.0807 10.02 11.9748 10.0581 11.875H11.8169C11.855 11.9748 11.8747 12.0807 11.875 12.1875C11.875 12.4361 11.7762 12.6746 11.6004 12.8504C11.4246 13.0262 11.1861 13.125 10.9375 13.125ZM12.5 10.625H10.625V8.125H13.75V9.375C13.75 9.70652 13.6183 10.0245 13.3839 10.2589C13.1495 10.4933 12.8315 10.625 12.5 10.625Z" fill="white"/>
</g>
<defs>
<clipPath id="clip0_262_4058">
<rect width="15" height="15" fill="white"/>
</clipPath>
</defs>
</svg>
