<svg width="21" height="16" viewBox="0 0 21 16" fill="none" xmlns="http://www.w3.org/2000/svg">
<path d="M0 16V11.5989C0 10.2999 0.245345 8.93219 0.736035 7.4957C1.22673 6.05921 1.90909 4.68386 2.78313 3.36963C3.65717 2.05539 4.68456 0.932185 5.86528 0L9.26944 2.4298C8.33406 3.78987 7.53669 5.21108 6.87733 6.69341C6.21796 8.17574 5.88828 9.78796 5.88828 11.5301V16H0ZM11.7306 16V11.5989C11.7306 10.2999 11.9759 8.93219 12.4666 7.4957C12.9573 6.05921 13.6396 4.68386 14.5137 3.36963C15.3877 2.05539 16.4151 0.932185 17.5958 0L21 2.4298C20.0646 3.78987 19.2673 5.21108 18.6079 6.69341C17.9485 8.17574 17.6188 9.78796 17.6188 11.5301V16H11.7306Z" fill="#1600DB"/>
</svg>
