<svg width="60" height="60" viewBox="0 0 60 60" fill="none" xmlns="http://www.w3.org/2000/svg">
<rect width="60" height="60" rx="5" fill="#F5F5F5"/>
<path d="M20.2605 14H28.7694C29.0871 14 29.2887 14.3238 29.136 14.5887L20.3601 29.8113C20.2074 30.0762 20.409 30.4 20.7267 30.4H25.0284C25.1797 30.4 25.3191 30.3223 25.3931 30.1968L34.8183 14.2032C34.8923 14.0777 35.0317 14 35.183 14H39.7408C39.8893 14 40.0266 14.0749 40.1016 14.1969L49.9428 30.2005C50.0187 30.3238 50.0191 30.4764 49.9439 30.6001L40.1012 46.8013C40.0266 46.9243 39.8886 47 39.7393 47H31.0251C30.7066 47 30.5051 46.6748 30.6594 46.4098L39.6369 30.9902C39.7912 30.7252 39.5897 30.4 39.2712 30.4H35.1793C35.03 30.4 34.8921 30.4757 34.8174 30.5987L24.9738 46.8013C24.8991 46.9243 24.7612 47 24.6119 47H20.0544C19.9038 47 19.7648 46.9229 19.6906 46.7982L10.0542 30.5991C9.98088 30.4758 9.98202 30.3248 10.0572 30.2026L19.8997 14.1969C19.9747 14.0749 20.112 14 20.2605 14Z" fill="#1600DB"/>
</svg>
